<?xml version="1.0" encoding="UTF-8" standalone="no"?>
<!DOCTYPE svg PUBLIC "-//W3C//DTD SVG 1.1//EN" "http://www.w3.org/Graphics/SVG/1.1/DTD/svg11.dtd">
<svg width="100%" height="100%" viewBox="0 0 45989 33818" version="1.1" xmlns="http://www.w3.org/2000/svg" xmlns:xlink="http://www.w3.org/1999/xlink" xml:space="preserve" xmlns:serif="http://www.serif.com/" style="fill-rule:evenodd;clip-rule:evenodd;stroke-linecap:round;stroke-miterlimit:1.5;">
    <g id="L00">
        <g id="detail">
            <path d="M6759,24468l9003.94,-0l0,-6609.22l1798.9,0" style="fill:none;stroke:#ebeff3;stroke-width:100px;"/>
            <path d="M20361.8,17858.8l0,15598.2" style="fill:none;stroke:#ebeff3;stroke-width:100px;"/>
            <path d="M9556.84,24386.3l0,-24025.3l2465.16,0l0,13990.8l569,-0l0,6641.34" style="fill:none;stroke:#ebeff3;stroke-width:100px;"/>
            <rect x="23271.8" y="11844.3" width="4245.63" height="7795.58" style="fill:none;stroke:#ebeff3;stroke-width:100px;"/>
            <rect x="27517.5" y="11844.3" width="3932.75" height="7795.58" style="fill:none;stroke:#ebeff3;stroke-width:100px;"/>
            <rect x="14415" y="12508.8" width="3146.84" height="2640" style="fill:none;stroke:#ebeff3;stroke-width:100px;"/>
            <rect x="14415" y="15148.8" width="3146.84" height="2710" style="fill:none;stroke:#ebeff3;stroke-width:100px;"/>
            <rect x="20361.8" y="12508.8" width="2900" height="2640" style="fill:none;stroke:#ebeff3;stroke-width:100px;"/>
            <rect x="20361.8" y="15148.8" width="2900" height="2710" style="fill:none;stroke:#ebeff3;stroke-width:100px;"/>
            <path d="M31450.2,18070l5019.78,-0l0,3635.01l-6349,-0l0,1906.27l-4136.46,0l-0,-148.25l-5595.54,0" style="fill:none;stroke:#ebeff3;stroke-width:100px;"/>
            <path d="M34375,18070l0,-6060l989,-0l0,-5720" style="fill:none;stroke:#ebeff3;stroke-width:100px;"/>
            <path d="M15762.9,21971l-6206.1,-0l0,-977.866l3877.5,0l0,-365l2328.6,0l0,1342.87Z" style="fill:#53657d;stroke:#ebeff3;stroke-width:100px;"/>
            <path d="M23261.8,19639.9l-344.839,-3.133l-4,2076.27l-2551.16,-0l0,-3854.22l2900,0l0,1781.08Z" style="fill:#53657d;stroke:#ebeff3;stroke-width:100px;"/>
            <path d="M20910,12508.8l0,-12147.8l12831,0l0,9867l-2290.78,-0l-0,1596l-8188.38,-0l0,684.784l-2351.84,0Z" style="fill:#53657d;stroke:#ebeff3;stroke-width:100px;"/>
            <path d="M15766,17858.8l-1351,0l0,-3504.78l-1824,-0l0,6624l855,-0l0,-349.866l2316.94,0l3.061,-2769.35Z" style="fill:#53657d;stroke:#ebeff3;stroke-width:100px;"/>
            <path d="M14415,14354l-2379,-0l0,-4449l6741,-0l0,-9553l2147,-0l0,12156.8l-6505,0l-4,1845.22Z" style="fill:#53657d;stroke:#ebeff3;stroke-width:100px;"/>
            <rect x="12036" y="352" width="6725.84" height="9544" style="fill:#53657d;stroke:#ebeff3;stroke-width:100px;"/>
            <g>
                <path d="M33205.8,15220.4l-0,269.769l-269.77,0l0,269.77l-269.769,0l-0,269.77l-269.77,-0l-0,202.327l472.097,-0l-0,-269.77l269.77,0l-0,-269.769l269.769,-0l0,-269.77l269.77,0l-0,-202.327l-472.097,-0Z" style="fill:#c9d3df;fill-rule:nonzero;"/>
                <path d="M32609.5,14770.3c-54.595,0 -100.174,-46.079 -100.174,-100.173c0,-56.098 45.579,-100.174 100.174,-100.174c55.596,0 100.174,44.076 100.174,100.174c-0,54.094 -44.578,100.173 -100.174,100.173m180.813,695.206l-50.086,-219.38l-105.684,100.174l0,300.521l-100.174,-0l0,-375.652l105.684,-100.174l-30.553,-150.26c-64.612,75.13 -164.786,125.217 -275.478,125.217l-0,-100.174c95.666,0 175.304,-50.087 215.874,-121.21l50.087,-79.137c20.035,-31.054 50.087,-50.087 84.647,-50.087c15.527,-0 25.044,4.007 40.57,4.007l259.951,110.191l0,236.41l-100.173,0l-0,-171.297l-89.656,-35.061l80.139,406.706l245.426,-50.087l20.035,100.173l-350.609,69.12Z" style="fill:#c9d3df;fill-rule:nonzero;"/>
            </g>
            <g>
                <path d="M11299.8,17686.4l-0,269.769l-269.77,0l0,269.77l-269.769,0l-0,269.77l-269.77,-0l-0,202.327l472.097,-0l-0,-269.77l269.77,0l-0,-269.769l269.769,-0l0,-269.77l269.77,0l-0,-202.327l-472.097,-0Z" style="fill:#c9d3df;fill-rule:nonzero;"/>
                <path d="M10703.5,17236.3c-54.595,0 -100.174,-46.079 -100.174,-100.173c0,-56.098 45.579,-100.174 100.174,-100.174c55.596,-0 100.174,44.076 100.174,100.174c-0,54.094 -44.578,100.173 -100.174,100.173m180.813,695.206l-50.086,-219.38l-105.684,100.174l0,300.521l-100.174,-0l0,-375.652l105.684,-100.174l-30.553,-150.26c-64.612,75.13 -164.786,125.217 -275.478,125.217l-0,-100.174c95.666,0 175.304,-50.087 215.874,-121.21l50.087,-79.137c20.035,-31.054 50.087,-50.087 84.647,-50.087c15.527,-0 25.044,4.007 40.57,4.007l259.951,110.191l0,236.41l-100.173,0l-0,-171.297l-89.656,-35.061l80.139,406.706l245.426,-50.087l20.035,100.173l-350.609,69.12Z" style="fill:#c9d3df;fill-rule:nonzero;"/>
            </g>
            <path d="M25646.8,14984.2c17.987,0 32.788,14.802 32.788,32.789c0,17.987 -14.801,32.788 -32.788,32.788c-17.987,0 -32.788,-14.801 -32.788,-32.788c-0,-17.987 14.801,-32.789 32.788,-32.789m-131.153,0c17.987,0 32.788,14.802 32.788,32.789c0,17.987 -14.801,32.788 -32.788,32.788c-17.987,0 -32.788,-14.801 -32.788,-32.788c-0,-17.987 14.801,-32.789 32.788,-32.789m-131.153,0c17.987,0 32.788,14.802 32.788,32.789c-0,17.987 -14.801,32.788 -32.788,32.788c-17.987,0 -32.789,-14.801 -32.789,-32.788c0,-17.987 14.802,-32.789 32.789,-32.789m-131.154,0c17.988,0 32.789,14.802 32.789,32.789c-0,17.987 -14.801,32.788 -32.789,32.788c-17.987,0 -32.788,-14.801 -32.788,-32.788c0,-17.987 14.801,-32.789 32.788,-32.789m-131.153,0c17.987,0 32.789,14.802 32.789,32.789c-0,17.987 -14.802,32.788 -32.789,32.788c-17.987,0 -32.788,-14.801 -32.788,-32.788c-0,-17.987 14.801,-32.789 32.788,-32.789m65.577,-98.364c17.987,-0 32.788,14.801 32.788,32.788c0,17.987 -14.801,32.788 -32.788,32.788c-17.987,0 -32.788,-14.801 -32.788,-32.788c-0,-17.987 14.801,-32.788 32.788,-32.788m131.153,-0c17.987,-0 32.788,14.801 32.788,32.788c0,17.987 -14.801,32.788 -32.788,32.788c-17.987,0 -32.788,-14.801 -32.788,-32.788c-0,-17.987 14.801,-32.788 32.788,-32.788m131.153,-0c17.987,-0 32.789,14.801 32.789,32.788c-0,17.987 -14.802,32.788 -32.789,32.788c-17.987,0 -32.788,-14.801 -32.788,-32.788c-0,-17.987 14.801,-32.788 32.788,-32.788m131.153,-0c17.988,-0 32.789,14.801 32.789,32.788c-0,17.987 -14.801,32.788 -32.789,32.788c-17.987,0 -32.788,-14.801 -32.788,-32.788c0,-17.987 14.801,-32.788 32.788,-32.788m-327.883,-98.365c17.988,-0 32.789,14.801 32.789,32.788c-0,17.987 -14.801,32.788 -32.789,32.788c-17.987,0 -32.788,-14.801 -32.788,-32.788c0,-17.987 14.801,-32.788 32.788,-32.788m131.154,-0c17.987,-0 32.788,14.801 32.788,32.788c-0,17.987 -14.801,32.788 -32.788,32.788c-17.987,0 -32.789,-14.801 -32.789,-32.788c0,-17.987 14.802,-32.788 32.789,-32.788m131.153,-0c17.987,-0 32.788,14.801 32.788,32.788c0,17.987 -14.801,32.788 -32.788,32.788c-17.987,0 -32.788,-14.801 -32.788,-32.788c-0,-17.987 14.801,-32.788 32.788,-32.788m98.365,-65.577l-459.036,0l-0,-65.577l459.036,0l-0,65.577m-35.412,-98.365l-388.213,0c13.771,-81.971 79.348,-147.547 161.318,-161.318l0,-68.2l65.577,-0l-0,68.2c81.971,13.771 147.547,79.347 161.318,161.318Z" style="fill:#c9d3df;fill-rule:nonzero;"/>
            <path d="M25384.5,15153.8c74.06,-0 135.002,60.942 135.002,135.002c-0,74.06 -60.942,135.002 -135.002,135.002c-74.06,-0 -135.002,-60.942 -135.002,-135.002c-0,-74.06 60.942,-135.002 135.002,-135.002m-101.252,337.505l202.503,0c74.06,0 135.003,60.942 135.003,135.002l-0,371.256l-101.252,0l-0,506.258l-270.004,0l-0,-506.258l-101.252,0l-0,-371.256c-0,-74.06 60.942,-135.002 135.002,-135.002Z" style="fill:#c9d3df;fill-rule:nonzero;"/>
            <path d="M29746.1,14984.2c17.988,0 32.789,14.802 32.789,32.789c-0,17.987 -14.801,32.788 -32.789,32.788c-17.987,0 -32.788,-14.801 -32.788,-32.788c0,-17.987 14.801,-32.789 32.788,-32.789m-131.153,0c17.987,0 32.789,14.802 32.789,32.789c-0,17.987 -14.802,32.788 -32.789,32.788c-17.987,0 -32.788,-14.801 -32.788,-32.788c-0,-17.987 14.801,-32.789 32.788,-32.789m-131.153,0c17.987,0 32.788,14.802 32.788,32.789c0,17.987 -14.801,32.788 -32.788,32.788c-17.987,0 -32.788,-14.801 -32.788,-32.788c-0,-17.987 14.801,-32.789 32.788,-32.789m-131.153,0c17.987,0 32.788,14.802 32.788,32.789c0,17.987 -14.801,32.788 -32.788,32.788c-17.987,0 -32.788,-14.801 -32.788,-32.788c-0,-17.987 14.801,-32.789 32.788,-32.789m-131.153,0c17.987,0 32.788,14.802 32.788,32.789c-0,17.987 -14.801,32.788 -32.788,32.788c-17.988,0 -32.789,-14.801 -32.789,-32.788c0,-17.987 14.801,-32.789 32.789,-32.789m65.576,-98.364c17.987,-0 32.789,14.801 32.789,32.788c-0,17.987 -14.802,32.788 -32.789,32.788c-17.987,0 -32.788,-14.801 -32.788,-32.788c-0,-17.987 14.801,-32.788 32.788,-32.788m131.153,-0c17.988,-0 32.789,14.801 32.789,32.788c-0,17.987 -14.801,32.788 -32.789,32.788c-17.987,0 -32.788,-14.801 -32.788,-32.788c0,-17.987 14.801,-32.788 32.788,-32.788m131.154,-0c17.987,-0 32.788,14.801 32.788,32.788c-0,17.987 -14.801,32.788 -32.788,32.788c-17.988,0 -32.789,-14.801 -32.789,-32.788c0,-17.987 14.801,-32.788 32.789,-32.788m131.153,-0c17.987,-0 32.788,14.801 32.788,32.788c0,17.987 -14.801,32.788 -32.788,32.788c-17.987,0 -32.788,-14.801 -32.788,-32.788c-0,-17.987 14.801,-32.788 32.788,-32.788m-327.883,-98.365c17.987,-0 32.788,14.801 32.788,32.788c0,17.987 -14.801,32.788 -32.788,32.788c-17.987,0 -32.788,-14.801 -32.788,-32.788c-0,-17.987 14.801,-32.788 32.788,-32.788m131.153,-0c17.987,-0 32.788,14.801 32.788,32.788c0,17.987 -14.801,32.788 -32.788,32.788c-17.987,0 -32.788,-14.801 -32.788,-32.788c-0,-17.987 14.801,-32.788 32.788,-32.788m131.153,-0c17.987,-0 32.789,14.801 32.789,32.788c-0,17.987 -14.802,32.788 -32.789,32.788c-17.987,0 -32.788,-14.801 -32.788,-32.788c-0,-17.987 14.801,-32.788 32.788,-32.788m98.365,-65.577l-459.036,0l-0,-65.577l459.036,0l0,65.577m-35.411,-98.365l-388.214,0c13.771,-81.971 79.348,-147.547 161.319,-161.318l-0,-68.2l65.576,-0l0,68.2c81.971,13.771 147.548,79.347 161.319,161.318Z" style="fill:#c9d3df;fill-rule:nonzero;"/>
            <path d="M29483.8,15148.8c74.059,0 135,60.942 135,135c0,74.059 -60.941,135 -135,135c-74.059,0 -135,-60.941 -135,-135c0,-74.058 60.941,-135 135,-135m-101.25,1350l0,-405l-202.5,0l174.825,-512.325c16.875,-55.35 68.175,-95.175 128.925,-95.175c60.75,0 112.05,39.825 128.925,95.175l174.825,512.325l-202.5,0l0,405l-202.5,0Z" style="fill:#c9d3df;fill-rule:nonzero;"/>
            <path d="M28011.5,20890c-442.36,-0 -801.5,359.14 -801.5,801.5c0,442.36 359.14,801.5 801.5,801.5c442.36,-0 801.5,-359.14 801.5,-801.5c0,-442.36 -359.14,-801.5 -801.5,-801.5Zm0,100c387.168,-0 701.5,314.332 701.5,701.5c0,387.168 -314.332,701.5 -701.5,701.5c-387.168,-0 -701.5,-314.332 -701.5,-701.5c0,-387.168 314.332,-701.5 701.5,-701.5Zm-271.975,480.75l132.45,-0c48.44,-0 88.3,39.86 88.3,88.3l-0,242.825l-66.225,-0l-0,331.125l-176.6,-0l-0,-331.125l-66.225,-0l-0,-242.825c-0,-48.44 39.86,-88.3 88.3,-88.3Zm397.35,662.25l-0,-264.9l-132.45,-0l114.348,-335.099c11.038,-36.203 44.592,-62.251 84.327,-62.251c39.735,-0 73.289,26.048 84.326,62.251l114.349,335.099l-132.45,-0l-0,264.9l-132.45,-0Zm-331.125,-883c48.44,-0 88.3,39.86 88.3,88.3c-0,48.44 -39.86,88.3 -88.3,88.3c-48.44,-0 -88.3,-39.86 -88.3,-88.3c-0,-48.44 39.86,-88.3 88.3,-88.3Zm397.35,-0c48.44,-0 88.3,39.86 88.3,88.3c-0,48.44 -39.86,88.3 -88.3,88.3c-48.44,-0 -88.3,-39.86 -88.3,-88.3c-0,-48.44 39.86,-88.3 88.3,-88.3Z" style="fill:#c9d3df;"/>
            <path d="M22278.5,15903.8l-933.334,0c-73.333,0 -133.333,60 -133.333,133.334l0,933.333c0,73.333 60,133.333 133.333,133.333l933.334,0c73.333,0 133.333,-60 133.333,-133.333l0,-933.333c0,-73.334 -60,-133.334 -133.333,-133.334m-700,200c46,0 83.333,37.334 83.333,83.334c0,46 -37.333,83.333 -83.333,83.333c-46,0 -83.334,-37.333 -83.334,-83.333c0,-46 37.334,-83.334 83.334,-83.334m166.666,533.334l-66.666,-0l-0,266.666l-200,0l-0,-266.666l-66.667,-0l0,-166.667c0,-73.333 60,-133.333 133.333,-133.333l66.667,-0c73.333,-0 133.333,60 133.333,133.333l0,166.667m300,200l-166.666,-266.667l333.333,0l-166.667,266.667m-166.666,-400l166.666,-266.667l166.667,266.667l-333.333,-0Z" style="fill:#c9d3df;fill-rule:nonzero;"/>
            <path d="M22278.5,13228.8l-933.334,0c-73.333,0 -133.333,60 -133.333,133.334l0,933.333c0,73.333 60,133.333 133.333,133.333l933.334,0c73.333,0 133.333,-60 133.333,-133.333l0,-933.333c0,-73.334 -60,-133.334 -133.333,-133.334m-700,200c46,0 83.333,37.334 83.333,83.334c0,46 -37.333,83.333 -83.333,83.333c-46,0 -83.334,-37.333 -83.334,-83.333c0,-46 37.334,-83.334 83.334,-83.334m166.666,533.334l-66.666,-0l-0,266.666l-200,0l-0,-266.666l-66.667,-0l0,-166.667c0,-73.333 60,-133.333 133.333,-133.333l66.667,-0c73.333,-0 133.333,60 133.333,133.333l0,166.667m300,200l-166.666,-266.667l333.333,0l-166.667,266.667m-166.666,-400l166.666,-266.667l166.667,266.667l-333.333,-0Z" style="fill:#c9d3df;fill-rule:nonzero;"/>
            <path d="M16475.7,15903.8l-933.334,0c-73.333,0 -133.333,60 -133.333,133.334l0,933.333c0,73.333 60,133.333 133.333,133.333l933.334,0c73.333,0 133.333,-60 133.333,-133.333l0,-933.333c0,-73.334 -60,-133.334 -133.333,-133.334m-700,200c46,0 83.333,37.334 83.333,83.334c-0,46 -37.333,83.333 -83.333,83.333c-46,0 -83.334,-37.333 -83.334,-83.333c0,-46 37.334,-83.334 83.334,-83.334m166.666,533.334l-66.666,-0l-0,266.666l-200,0l-0,-266.666l-66.667,-0l-0,-166.667c-0,-73.333 60,-133.333 133.333,-133.333l66.667,-0c73.333,-0 133.333,60 133.333,133.333l0,166.667m300,200l-166.666,-266.667l333.333,0l-166.667,266.667m-166.666,-400l166.666,-266.667l166.667,266.667l-333.333,-0Z" style="fill:#c9d3df;fill-rule:nonzero;"/>
            <path d="M16475.7,13228.8l-933.334,0c-73.333,0 -133.333,60 -133.333,133.334l0,933.333c0,73.333 60,133.333 133.333,133.333l933.334,0c73.333,0 133.333,-60 133.333,-133.333l0,-933.333c0,-73.334 -60,-133.334 -133.333,-133.334m-700,200c46,0 83.333,37.334 83.333,83.334c-0,46 -37.333,83.333 -83.333,83.333c-46,0 -83.334,-37.333 -83.334,-83.333c0,-46 37.334,-83.334 83.334,-83.334m166.666,533.334l-66.666,-0l-0,266.666l-200,0l-0,-266.666l-66.667,-0l-0,-166.667c-0,-73.333 60,-133.333 133.333,-133.333l66.667,-0c73.333,-0 133.333,60 133.333,133.333l0,166.667m300,200l-166.666,-266.667l333.333,0l-166.667,266.667m-166.666,-400l166.666,-266.667l166.667,266.667l-333.333,-0Z" style="fill:#c9d3df;fill-rule:nonzero;"/>
            <path d="M16221,20139l0,1602" style="fill:none;stroke:#ebeff3;stroke-width:100px;"/>
            <path d="M17401,20139l0,1602" style="fill:none;stroke:#ebeff3;stroke-width:100px;"/>
            <path d="M18309,20139l0,1602" style="fill:none;stroke:#ebeff3;stroke-width:100px;"/>
            <path d="M19217,20139l0,1602" style="fill:none;stroke:#ebeff3;stroke-width:100px;"/>
            <path d="M20125,20139l0,1602" style="fill:none;stroke:#ebeff3;stroke-width:100px;"/>
        </g>
        <g id="outline">
            <path d="M361.34,361l33397.5,0l0,5913.15l11869.2,-0l0,27182.8l-38872,0l0,-9037l-6394.66,0l0,-24059Z" style="fill:none;stroke:#005ea6;stroke-width:400px;"/>
        </g>
        <g id="doors_contacts">
            <rect x="6433" y="27452" width="672" height="2921" style="fill:#03bd5b;"/>
            <path d="M11717,697l0,-672l-1861,0l0,672l1861,0Z" style="fill:#03bd5b;"/>
            <path d="M14311,697l0,-672l-1861,0l0,672l1861,0Z" style="fill:#03bd5b;"/>
            <path d="M29653,697l-0,-672l-1861,0l-0,672l1861,0Z" style="fill:#03bd5b;"/>
            <path d="M7974,697l-0,-672l-1215,0l-0,672l1215,0Z" style="fill:#03bd5b;"/>
            <path d="M35227,6612l0,-672l-1215,0l0,672l1215,0Z" style="fill:#03bd5b;"/>
            <path d="M26246,33793l-0,-672l-1215,0l-0,672l1215,0Z" style="fill:#03bd5b;"/>
            <rect x="45292" y="12960" width="672" height="1215" style="fill:#03bd5b;"/>
        </g>
        <g id="doors_acu">
            <rect id="ACU-01" x="6433" y="31688" width="672" height="1433" style="fill:#03bd5b;"/>
            <rect id="ACU-02-D2" x="15597" y="22522" width="337" height="1001.58" style="fill:#03bd5b;"/>
            <rect id="ACU-02-D3" x="15597" y="18199" width="337" height="1001.58" style="fill:#03bd5b;"/>
            <path id="ACU-18" d="M17312.6,21093l0,-337l-1001.58,0l0,337l1001.58,-0Z" style="fill:#03bd5b;"/>
            <path id="ACU-19" d="M18223,21093l0,-337l-738,-0l0,337l738,-0Z" style="fill:#03bd5b;"/>
            <path id="ACU-20" d="M19135,21093l0,-337l-738,-0l0,337l738,-0Z" style="fill:#03bd5b;"/>
            <path id="ACU-21" d="M20039,21093l0,-337l-738,-0l0,337l738,-0Z" style="fill:#03bd5b;"/>
            <path id="ACU-05-D8" d="M27214,19808.4l-0,-337l-967,-0l0,337l967,-0Z" style="fill:#03bd5b;"/>
            <path id="ACU-05-D9" d="M28639,19808.4l-0,-337l-967,-0l0,337l967,-0Z" style="fill:#03bd5b;"/>
            <path id="ACU-06" d="M20790,697l0,-672l-1861,0l0,672l1861,0Z" style="fill:#03bd5b;"/>
        </g>
    </g>
</svg>
