<?xml version="1.0" encoding="UTF-8" standalone="no"?>
<!DOCTYPE svg PUBLIC "-//W3C//DTD SVG 1.1//EN" "http://www.w3.org/Graphics/SVG/1.1/DTD/svg11.dtd">
<svg width="100%" height="100%" viewBox="0 0 45989 33818" version="1.1" xmlns="http://www.w3.org/2000/svg" xmlns:xlink="http://www.w3.org/1999/xlink" xml:space="preserve" xmlns:serif="http://www.serif.com/" style="fill-rule:evenodd;clip-rule:evenodd;stroke-linecap:round;stroke-miterlimit:1.5;">
	<g id="L06">
		<g id="detail">
			<path d="M20361.8,18305.1l0,1692.87" style="fill:none;stroke:#ebeff3;stroke-width:100px;" />
			<path d="M27517.5,11844.3l-4245.63,0l0,4969.72l2285.16,0l-0,-1086.47l1960.47,14.548l-0,-3897.79Z" style="fill:none;stroke:#ebeff3;stroke-width:100px;" />
			<path d="M31450.2,11844.3l-3932.75,0l-0,4460.72l2433.53,0l-0.547,509l1499.76,0l-0,-4969.72Z" style="fill:none;stroke:#ebeff3;stroke-width:100px;" />
			<rect x="31450.2" y="11844.3" width="2872.78" height="8153.72" style="fill:none;stroke:#ebeff3;stroke-width:100px;" />
			<rect x="9561" y="14354" width="2870" height="6624" style="fill:none;stroke:#ebeff3;stroke-width:100px;" />
			<path d="M17561.8,21672l2800,0" style="fill:none;stroke:#ebeff3;stroke-width:100px;" />
			<path d="M17561.8,21672l2800,0" style="fill:none;stroke:#ebeff3;stroke-width:100px;" />
			<path d="M17561.8,11844.3l0,-234.284l2800,0l0,234.284" style="fill:none;stroke:#ebeff3;stroke-width:100px;" />
			<path d="M34323,19998l-13961.2,0l0,1670l6909.16,0l-0.098,275.858l7052.1,-0l-0,-1945.86Z" style="fill:#53657d;stroke:#ebeff3;stroke-width:100px;" />
			<rect x="14415" y="12508.8" width="3146.84" height="2640" style="fill:none;stroke:#ebeff3;stroke-width:100px;" />
			<rect x="14415" y="15148.8" width="3146.84" height="2710" style="fill:none;stroke:#ebeff3;stroke-width:100px;" />
			<rect x="20361.8" y="12508.8" width="2900" height="2640" style="fill:none;stroke:#ebeff3;stroke-width:100px;" />
			<rect x="20361.8" y="15148.8" width="2900" height="2710" style="fill:none;stroke:#ebeff3;stroke-width:100px;" />
			<path d="M15762.9,21971l-6206.1,-0l0,-977.866l5147.16,0l0,-948.134l2857.84,0l0,1627l-1798.9,0l0,299Z" style="fill:#53657d;stroke:#ebeff3;stroke-width:100px;" />
			<rect x="20361.8" y="17858.8" width="2900" height="446.348" style="fill:#53657d;stroke:#ebeff3;stroke-width:100px;" />
			<path d="M15428,17858.8l-1013,0l0,-3504.78l-1984,-0l0,6624l2262,-0l0.654,-933l731.94,0l2.406,-2186.22Z" style="fill:none;stroke:#ebeff3;stroke-width:100px;" />
			<rect x="20361.8" y="11844.3" width="2905.94" height="664.5" style="fill:#53657d;stroke:#ebeff3;stroke-width:100px;" />
			<path d="M17561.8,11844.3l-8005,0l0,2509.72l2874.16,-0l-0,1003l1988.25,0l-4.249,-2848.22l3146.84,0l0,-664.5Z" style="fill:#53657d;stroke:#ebeff3;stroke-width:100px;" />
			<g>
				<path d="M33205.8,15220.4l-0,269.769l-269.77,0l0,269.77l-269.769,0l-0,269.77l-269.77,-0l-0,202.327l472.097,-0l-0,-269.77l269.77,0l-0,-269.769l269.769,-0l0,-269.77l269.77,0l-0,-202.327l-472.097,-0Z" style="fill:#c9d3df;fill-rule:nonzero;" />
				<path d="M32609.5,14770.3c-54.595,0 -100.174,-46.079 -100.174,-100.173c0,-56.098 45.579,-100.174 100.174,-100.174c55.596,0 100.174,44.076 100.174,100.174c-0,54.094 -44.578,100.173 -100.174,100.173m180.813,695.206l-50.086,-219.38l-105.684,100.174l0,300.521l-100.174,-0l0,-375.652l105.684,-100.174l-30.553,-150.26c-64.612,75.13 -164.786,125.217 -275.478,125.217l0,-100.174c95.666,0 175.304,-50.087 215.874,-121.21l50.087,-79.137c20.035,-31.054 50.087,-50.087 84.647,-50.087c15.527,-0 25.044,4.007 40.57,4.007l259.951,110.191l0,236.41l-100.173,0l-0,-171.297l-89.656,-35.061l80.139,406.706l245.426,-50.087l20.035,100.173l-350.609,69.12Z" style="fill:#c9d3df;fill-rule:nonzero;" />
			</g>
			<g>
				<path d="M11299.8,17686.4l-0,269.769l-269.77,0l0,269.77l-269.769,0l-0,269.77l-269.77,-0l-0,202.327l472.097,-0l-0,-269.77l269.77,0l-0,-269.769l269.769,-0l0,-269.77l269.77,0l-0,-202.327l-472.097,-0Z" style="fill:#c9d3df;fill-rule:nonzero;" />
				<path d="M10703.5,17236.3c-54.595,0 -100.174,-46.079 -100.174,-100.173c0,-56.098 45.579,-100.174 100.174,-100.174c55.596,-0 100.174,44.076 100.174,100.174c-0,54.094 -44.578,100.173 -100.174,100.173m180.813,695.206l-50.086,-219.38l-105.684,100.174l0,300.521l-100.174,-0l0,-375.652l105.684,-100.174l-30.553,-150.26c-64.612,75.13 -164.786,125.217 -275.478,125.217l0,-100.174c95.666,0 175.304,-50.087 215.874,-121.21l50.087,-79.137c20.035,-31.054 50.087,-50.087 84.647,-50.087c15.527,-0 25.044,4.007 40.57,4.007l259.951,110.191l0,236.41l-100.173,0l-0,-171.297l-89.656,-35.061l80.139,406.706l245.426,-50.087l20.035,100.173l-350.609,69.12Z" style="fill:#c9d3df;fill-rule:nonzero;" />
			</g>
			<path d="M22278.5,15903.8l-933.334,0c-73.333,0 -133.333,60 -133.333,133.334l0,933.333c0,73.333 60,133.333 133.333,133.333l933.334,0c73.333,0 133.333,-60 133.333,-133.333l0,-933.333c0,-73.334 -60,-133.334 -133.333,-133.334m-700,200c46,0 83.333,37.334 83.333,83.334c0,46 -37.333,83.333 -83.333,83.333c-46,0 -83.334,-37.333 -83.334,-83.333c0,-46 37.334,-83.334 83.334,-83.334m166.666,533.334l-66.666,-0l-0,266.666l-200,0l-0,-266.666l-66.667,-0l0,-166.667c0,-73.333 60,-133.333 133.333,-133.333l66.667,-0c73.333,-0 133.333,60 133.333,133.333l0,166.667m300,200l-166.666,-266.667l333.333,0l-166.667,266.667m-166.666,-400l166.666,-266.667l166.667,266.667l-333.333,-0Z" style="fill:#c9d3df;fill-rule:nonzero;" />
			<path d="M22278.5,13228.8l-933.334,0c-73.333,0 -133.333,60 -133.333,133.334l0,933.333c0,73.333 60,133.333 133.333,133.333l933.334,0c73.333,0 133.333,-60 133.333,-133.333l0,-933.333c0,-73.334 -60,-133.334 -133.333,-133.334m-700,200c46,0 83.333,37.334 83.333,83.334c0,46 -37.333,83.333 -83.333,83.333c-46,0 -83.334,-37.333 -83.334,-83.333c0,-46 37.334,-83.334 83.334,-83.334m166.666,533.334l-66.666,-0l-0,266.666l-200,0l-0,-266.666l-66.667,-0l0,-166.667c0,-73.333 60,-133.333 133.333,-133.333l66.667,-0c73.333,-0 133.333,60 133.333,133.333l0,166.667m300,200l-166.666,-266.667l333.333,0l-166.667,266.667m-166.666,-400l166.666,-266.667l166.667,266.667l-333.333,-0Z" style="fill:#c9d3df;fill-rule:nonzero;" />
			<path d="M16475.7,15903.8l-933.334,0c-73.333,0 -133.333,60 -133.333,133.334l0,933.333c0,73.333 60,133.333 133.333,133.333l933.334,0c73.333,0 133.333,-60 133.333,-133.333l0,-933.333c0,-73.334 -60,-133.334 -133.333,-133.334m-700,200c46,0 83.333,37.334 83.333,83.334c-0,46 -37.333,83.333 -83.333,83.333c-46,0 -83.334,-37.333 -83.334,-83.333c0,-46 37.334,-83.334 83.334,-83.334m166.666,533.334l-66.666,-0l-0,266.666l-200,0l-0,-266.666l-66.667,-0l-0,-166.667c-0,-73.333 60,-133.333 133.333,-133.333l66.667,-0c73.333,-0 133.333,60 133.333,133.333l0,166.667m300,200l-166.666,-266.667l333.333,0l-166.667,266.667m-166.666,-400l166.666,-266.667l166.667,266.667l-333.333,-0Z" style="fill:#c9d3df;fill-rule:nonzero;" />
			<path d="M16475.7,13228.8l-933.334,0c-73.333,0 -133.333,60 -133.333,133.334l0,933.333c0,73.333 60,133.333 133.333,133.333l933.334,0c73.333,0 133.333,-60 133.333,-133.333l0,-933.333c0,-73.334 -60,-133.334 -133.333,-133.334m-700,200c46,0 83.333,37.334 83.333,83.334c-0,46 -37.333,83.333 -83.333,83.333c-46,0 -83.334,-37.333 -83.334,-83.333c0,-46 37.334,-83.334 83.334,-83.334m166.666,533.334l-66.666,-0l-0,266.666l-200,0l-0,-266.666l-66.667,-0l-0,-166.667c-0,-73.333 60,-133.333 133.333,-133.333l66.667,-0c73.333,-0 133.333,60 133.333,133.333l0,166.667m300,200l-166.666,-266.667l333.333,0l-166.667,266.667m-166.666,-400l166.666,-266.667l166.667,266.667l-333.333,-0Z" style="fill:#c9d3df;fill-rule:nonzero;" />
			<path d="M29511.5,13160c-442.36,-0 -801.5,359.14 -801.5,801.5c0,442.36 359.14,801.5 801.5,801.5c442.36,-0 801.5,-359.14 801.5,-801.5c0,-442.36 -359.14,-801.5 -801.5,-801.5Zm0,100c387.168,-0 701.5,314.332 701.5,701.5c0,387.168 -314.332,701.5 -701.5,701.5c-387.168,-0 -701.5,-314.332 -701.5,-701.5c0,-387.168 314.332,-701.5 701.5,-701.5Zm-68.4,1143l0,-264.9l-132.45,-0l114.349,-335.099c11.037,-36.203 44.591,-62.251 84.326,-62.251c39.735,-0 73.289,26.048 84.327,62.251l114.348,335.099l-132.45,-0l0,264.9l-132.45,-0Zm66.225,-883c48.44,-0 88.3,39.86 88.3,88.3c0,48.44 -39.86,88.3 -88.3,88.3c-48.44,-0 -88.3,-39.86 -88.3,-88.3c0,-48.44 39.86,-88.3 88.3,-88.3Z" style="fill:#c9d3df;" />
			<path d="M25402.5,13160c-442.36,-0 -801.5,359.14 -801.5,801.5c0,442.36 359.14,801.5 801.5,801.5c442.36,-0 801.5,-359.14 801.5,-801.5c0,-442.36 -359.14,-801.5 -801.5,-801.5Zm0,100c387.168,-0 701.5,314.332 701.5,701.5c0,387.168 -314.332,701.5 -701.5,701.5c-387.168,-0 -701.5,-314.332 -701.5,-701.5c0,-387.168 314.332,-701.5 701.5,-701.5Zm-62.025,480.75l132.45,-0c48.44,-0 88.3,39.86 88.3,88.3l0,242.825l-66.225,-0l0,331.125l-176.6,-0l0,-331.125l-66.225,-0l0,-242.825c0,-48.44 39.86,-88.3 88.3,-88.3Zm66.225,-220.75c48.44,-0 88.3,39.86 88.3,88.3c0,48.44 -39.86,88.3 -88.3,88.3c-48.44,-0 -88.3,-39.86 -88.3,-88.3c0,-48.44 39.86,-88.3 88.3,-88.3Z" style="fill:#c9d3df;" />
			<path d="M26553.5,16560c-301.622,-0 -546.5,244.878 -546.5,546.5c0,301.622 244.878,546.5 546.5,546.5c301.622,-0 546.5,-244.878 546.5,-546.5c0,-301.622 -244.878,-546.5 -546.5,-546.5Zm0,68.185c263.989,-0 478.315,214.326 478.315,478.315c0,263.989 -214.326,478.315 -478.315,478.315c-263.989,0 -478.315,-214.326 -478.315,-478.315c-0,-263.989 214.326,-478.315 478.315,-478.315Zm72.473,618.165l41.023,54.697c-31.078,59.67 -93.544,100.693 -165.334,100.693c-102.868,-0 -186.467,-83.6 -186.467,-186.468c-0,-75.519 45.373,-139.85 110.326,-169.374l6.526,67.439c-32.631,22.376 -54.697,59.359 -54.697,101.935c0,68.683 55.63,124.312 124.312,124.312c57.805,-0 105.975,-39.78 119.96,-93.234l4.351,0Zm172.482,3.419l-38.847,19.268l-87.018,-115.92l-142.647,-0l-6.216,-62.156l102.246,0l0,-62.156l-108.772,0l-9.324,-93.233c31.389,-3.73 55.94,-29.835 55.94,-62.156c0,-34.185 -27.659,-62.156 -62.155,-62.156c-34.497,0 -62.156,27.971 -62.156,62.156l0,3.108l34.186,338.748l167.82,0l99.449,132.703l85.464,-42.577l-27.97,-55.629Z" style="fill:#c9d3df;fill-rule:nonzero;" />
			<rect x="27517.5" y="16305" width="2421.53" height="2155" style="fill:#53657d;stroke:#ebeff3;stroke-width:100px;" />
			<rect x="25557" y="15736" width="1960.47" height="2724" style="fill:none;stroke:#ebeff3;stroke-width:100px;" />
		</g>
		<g id="outline">
			<path d="M361.34,361l33397.5,0l0,5913.15l11869.2,-0l0,27182.8l-45266.7,0l0,-33096Z" style="fill:none;stroke:#005ea6;stroke-width:400px;" />
		</g>
		<g id="doors_acu">
			<rect id="ACU-12" x="15259.5" y="18673" width="337" height="1086" style="fill:#03bd5b;" />
		</g>
		<g id="doors_contacts">
			<rect id="DRH-L06-006" x="31259.498" y="18673" width="337" height="1086" style="fill:#03bd5b" />
		</g>
	</g>
</svg>
