<?xml version="1.0" encoding="UTF-8" standalone="no"?>
<!DOCTYPE svg PUBLIC "-//W3C//DTD SVG 1.1//EN" "http://www.w3.org/Graphics/SVG/1.1/DTD/svg11.dtd">
<svg width="100%" height="100%" viewBox="0 0 45989 33818" version="1.1" xmlns="http://www.w3.org/2000/svg" xmlns:xlink="http://www.w3.org/1999/xlink" xml:space="preserve" xmlns:serif="http://www.serif.com/" style="fill-rule:evenodd;clip-rule:evenodd;stroke-linecap:round;stroke-miterlimit:1.5;">
    <g id="L10">
        <g id="detail">
            <path d="M20361.8,18305.1l0,1692.87" style="fill:none;stroke:#ebeff3;stroke-width:100px;"/>
            <rect x="31450.2" y="11844.3" width="2872.78" height="8153.72" style="fill:none;stroke:#ebeff3;stroke-width:100px;"/>
            <rect x="9561" y="14354" width="2870" height="6624" style="fill:none;stroke:#ebeff3;stroke-width:100px;"/>
            <path d="M17561.8,21943.9l2800,-0" style="fill:none;stroke:#ebeff3;stroke-width:100px;"/>
            <path d="M17561.8,6404.28l0,-234.284l2800,0l0,234.284" style="fill:none;stroke:#ebeff3;stroke-width:100px;"/>
            <rect x="20361.8" y="19998" width="13961.2" height="1945.86" style="fill:#53657d;stroke:#ebeff3;stroke-width:100px;"/>
            <rect x="14415" y="12508.8" width="3146.84" height="2640" style="fill:none;stroke:#ebeff3;stroke-width:100px;"/>
            <rect x="14415" y="15148.8" width="3146.84" height="2710" style="fill:none;stroke:#ebeff3;stroke-width:100px;"/>
            <rect x="20361.8" y="12508.8" width="2900" height="2640" style="fill:#53657d;stroke:#ebeff3;stroke-width:100px;"/>
            <rect x="20361.8" y="15148.8" width="2900" height="2710" style="fill:#53657d;stroke:#ebeff3;stroke-width:100px;"/>
            <path d="M17561.8,21943.9l-8005,27.142l0,-977.866l5147.16,0l0,-948.134l2857.84,0l0,1898.86Z" style="fill:#53657d;stroke:#ebeff3;stroke-width:100px;"/>
            <rect x="20361.8" y="17858.8" width="2900" height="446.348" style="fill:#53657d;stroke:#ebeff3;stroke-width:100px;"/>
            <path d="M15428,17858.8l-1013,0l0,-3504.78l-1984,-0l0,6624l2262,-0l0.654,-933l731.94,0l2.406,-2186.22Z" style="fill:none;stroke:#ebeff3;stroke-width:100px;"/>
            <rect x="20361.8" y="6170" width="2905.94" height="6338.78" style="fill:#53657d;stroke:#ebeff3;stroke-width:100px;"/>
            <rect x="14415" y="6170" width="3146.84" height="6338.78" style="fill:#53657d;stroke:#ebeff3;stroke-width:100px;"/>
            <rect x="9557" y="11922" width="4858" height="2434.78" style="fill:#53657d;stroke:#ebeff3;stroke-width:100px;"/>
            <g>
                <path d="M33205.8,15220.4l-0,269.769l-269.77,0l0,269.77l-269.769,0l-0,269.77l-269.77,-0l-0,202.327l472.097,-0l-0,-269.77l269.77,0l-0,-269.769l269.769,-0l0,-269.77l269.77,0l-0,-202.327l-472.097,-0Z" style="fill:#c9d3df;fill-rule:nonzero;"/>
                <path d="M32609.5,14770.3c-54.595,0 -100.174,-46.079 -100.174,-100.173c0,-56.098 45.579,-100.174 100.174,-100.174c55.596,0 100.174,44.076 100.174,100.174c-0,54.094 -44.578,100.173 -100.174,100.173m180.813,695.206l-50.086,-219.38l-105.684,100.174l0,300.521l-100.174,-0l0,-375.652l105.684,-100.174l-30.553,-150.26c-64.612,75.13 -164.786,125.217 -275.478,125.217l0,-100.174c95.666,0 175.304,-50.087 215.874,-121.21l50.087,-79.137c20.035,-31.054 50.087,-50.087 84.647,-50.087c15.527,-0 25.044,4.007 40.57,4.007l259.951,110.191l0,236.41l-100.173,0l-0,-171.297l-89.656,-35.061l80.139,406.706l245.426,-50.087l20.035,100.173l-350.609,69.12Z" style="fill:#c9d3df;fill-rule:nonzero;"/>
            </g>
            <g>
                <path d="M11299.8,17686.4l-0,269.769l-269.77,0l0,269.77l-269.769,0l-0,269.77l-269.77,-0l-0,202.327l472.097,-0l-0,-269.77l269.77,0l-0,-269.769l269.769,-0l0,-269.77l269.77,0l-0,-202.327l-472.097,-0Z" style="fill:#c9d3df;fill-rule:nonzero;"/>
                <path d="M10703.5,17236.3c-54.595,0 -100.174,-46.079 -100.174,-100.173c0,-56.098 45.579,-100.174 100.174,-100.174c55.596,-0 100.174,44.076 100.174,100.174c-0,54.094 -44.578,100.173 -100.174,100.173m180.813,695.206l-50.086,-219.38l-105.684,100.174l0,300.521l-100.174,-0l0,-375.652l105.684,-100.174l-30.553,-150.26c-64.612,75.13 -164.786,125.217 -275.478,125.217l0,-100.174c95.666,0 175.304,-50.087 215.874,-121.21l50.087,-79.137c20.035,-31.054 50.087,-50.087 84.647,-50.087c15.527,-0 25.044,4.007 40.57,4.007l259.951,110.191l0,236.41l-100.173,0l-0,-171.297l-89.656,-35.061l80.139,406.706l245.426,-50.087l20.035,100.173l-350.609,69.12Z" style="fill:#c9d3df;fill-rule:nonzero;"/>
            </g>
            <path d="M16475.7,15903.8l-933.334,0c-73.333,0 -133.333,60 -133.333,133.334l0,933.333c0,73.333 60,133.333 133.333,133.333l933.334,0c73.333,0 133.333,-60 133.333,-133.333l0,-933.333c0,-73.334 -60,-133.334 -133.333,-133.334m-700,200c46,0 83.333,37.334 83.333,83.334c-0,46 -37.333,83.333 -83.333,83.333c-46,0 -83.334,-37.333 -83.334,-83.333c0,-46 37.334,-83.334 83.334,-83.334m166.666,533.334l-66.666,-0l-0,266.666l-200,0l-0,-266.666l-66.667,-0l-0,-166.667c-0,-73.333 60,-133.333 133.333,-133.333l66.667,-0c73.333,-0 133.333,60 133.333,133.333l0,166.667m300,200l-166.666,-266.667l333.333,0l-166.667,266.667m-166.666,-400l166.666,-266.667l166.667,266.667l-333.333,-0Z" style="fill:#c9d3df;fill-rule:nonzero;"/>
            <path d="M16475.7,13228.8l-933.334,0c-73.333,0 -133.333,60 -133.333,133.334l0,933.333c0,73.333 60,133.333 133.333,133.333l933.334,0c73.333,0 133.333,-60 133.333,-133.333l0,-933.333c0,-73.334 -60,-133.334 -133.333,-133.334m-700,200c46,0 83.333,37.334 83.333,83.334c-0,46 -37.333,83.333 -83.333,83.333c-46,0 -83.334,-37.333 -83.334,-83.333c0,-46 37.334,-83.334 83.334,-83.334m166.666,533.334l-66.666,-0l-0,266.666l-200,0l-0,-266.666l-66.667,-0l-0,-166.667c-0,-73.333 60,-133.333 133.333,-133.333l66.667,-0c73.333,-0 133.333,60 133.333,133.333l0,166.667m300,200l-166.666,-266.667l333.333,0l-166.667,266.667m-166.666,-400l166.666,-266.667l166.667,266.667l-333.333,-0Z" style="fill:#c9d3df;fill-rule:nonzero;"/>
            <rect x="23267.8" y="6170" width="8182.43" height="12290" style="fill:#53657d;stroke:#ebeff3;stroke-width:100px;"/>
        </g>
        <g id="outline">
            <path d="M361.34,361l33397.5,0l0,5913.15l11869.2,-0l0,27182.8l-38872,0l0,-9037l-6394.66,0l0,-24059Z" style="fill:none;stroke:#005ea6;stroke-width:400px;"/>
        </g>
        <g id="doors_acu">
            <rect id="ACU-16" x="15259.5" y="18673" width="337" height="1086" style="fill:#03bd5b;"/>
        </g>
    </g>
</svg>
