<svg width="680" height="1193" viewBox="0 0 680 1193" fill="none" xmlns="http://www.w3.org/2000/svg">
<path d="M25 914H191.5V1170M332.5 1170V1079M332.5 997.5V901M535.5 740H332.5V901M332.5 901H535.5M25 229.5H83.5M211.5 229.5H309.25M407 229.5H309.25M547 229.5H653.5M309.25 229.5V20M309.25 399.5V567" stroke="#4A4F55" stroke-width="4"/>
<path d="M535.5 737.5V1170H25V20H655V737.5V1170" stroke="#00C1D4" stroke-width="10"/>
<path opacity="0.7" fill-rule="evenodd" clip-rule="evenodd" d="M170.246 608.429L103.991 608.429L103.991 675.966C67.7264 675.784 38.3791 645.872 38.3791 608.987C38.3791 571.991 67.9007 541.998 104.32 542C140.553 542 169.948 571.691 170.246 608.431L170.246 608.429Z" fill="#FF610F"/>
<path d="M60.8973 615.331L62.7251 607.233L66.5233 610.922L66.5036 621.969L70.1323 621.976L70.1568 608.169L66.3587 604.48L67.452 598.959C68.6942 600.404 70.2257 601.564 71.9444 602.361C73.6632 603.158 75.5295 603.573 77.4191 603.58L77.4265 599.897C73.9821 599.892 71.0806 598.044 69.6336 595.465L67.8254 592.515C67.1055 591.411 66.0147 590.67 64.747 590.67C64.2016 590.67 63.8405 590.852 63.2951 590.852L53.8586 594.884L53.8439 603.538L57.4725 603.545L57.4823 597.286L60.7499 596.004L57.8189 610.912L48.9377 609.054L48.208 612.735L60.8997 615.336L60.8973 615.331ZM67.4667 589.752C69.464 589.755 71.0978 588.101 71.1002 586.076C71.1027 584.052 69.4763 582.391 67.4789 582.388C65.4816 582.386 63.8479 584.039 63.8454 586.064C63.8429 588.089 65.4742 589.75 67.4667 589.752Z" fill="white"/>
<path d="M100.511 610.739L88.3548 610.761L88.3693 618.567L76.8464 618.586L76.8585 626.392L65.3429 626.414L65.355 633.569L53.8394 633.588" stroke="white" stroke-width="0.802" stroke-linecap="square" stroke-linejoin="round"/>
<path d="M95.663 578.432L87.1659 587.076L93.549 587.064L93.5756 602.223L97.8302 602.216L97.8036 587.056L104.187 587.044L95.6606 578.429L95.663 578.432Z" fill="white"/>
<path opacity="0.7" d="M645.685 738H544.324V1123H645.685V738Z" fill="#FF610F"/>
<path d="M579.534 951.465L581.614 942.255L585.973 946.442V959H590.131V943.303L585.772 939.116L587.014 932.839C588.441 934.48 590.199 935.795 592.171 936.698C594.142 937.6 596.283 938.068 598.449 938.071V933.884C594.501 933.884 591.173 931.79 589.509 928.861L587.429 925.513C586.603 924.259 585.35 923.419 583.897 923.419C583.271 923.419 582.859 923.628 582.233 923.628L571.425 928.234V938.071H575.583V930.954L579.327 929.488L575.998 946.442L565.817 944.348L564.99 948.536L579.541 951.465H579.534ZM587.014 922.374C589.305 922.374 591.173 920.49 591.173 918.187C591.173 915.885 589.305 914 587.014 914C584.724 914 582.856 915.885 582.856 918.187C582.856 920.49 584.731 922.374 587.014 922.374Z" fill="white"/>
<path d="M626.003 945H611.658V954.258H598.064V963.513H584.481V972H570.894" stroke="white" stroke-width="0.631" stroke-linecap="square" stroke-linejoin="round"/>
<path d="M613.087 918.155L613.087 936L618.253 936L618.253 918.155L626.003 918.155L615.67 908L605.337 918.155L613.087 918.155Z" fill="white"/>
<path fill-rule="evenodd" clip-rule="evenodd" d="M211.5 211.882H83V222H38V32H300V222H211.5V211.882Z" fill="#51B881"/>
<path fill-rule="evenodd" clip-rule="evenodd" d="M547 211.882H406.5V222H319V32H643V222H547V211.882Z" fill="#51B881"/>
<path fill-rule="evenodd" clip-rule="evenodd" d="M347.118 1080L347.118 997.5L337 997.5L337 906L527 906L527 1161L337 1161L337 1080L347.118 1080Z" fill="#51B881"/>
<path d="M400.523 972.112L400.739 1093.41L463.638 1093.3L463.422 972L400.523 972.112Z" fill="#4B9F73"/>
<path d="M380.232 984.83L380.305 1026.1L393.01 1026.08L392.936 984.808L380.232 984.83Z" fill="#4B9F73"/>
<path d="M380.322 1040.13L380.395 1081.4L393.1 1081.37L393.027 1040.1L380.322 1040.13Z" fill="#4B9F73"/>
<path d="M471.061 984.046L471.134 1025.32L483.839 1025.29L483.766 984.023L471.061 984.046Z" fill="#4B9F73"/>
<path d="M471.151 1039.34L471.225 1080.61L483.93 1080.59L483.856 1039.32L471.151 1039.34Z" fill="#4B9F73"/>
<path d="M224.303 95.2915L103 95.5074L103.112 158.407L224.415 158.191L224.303 95.2915Z" fill="#4B9F73"/>
<path d="M211.584 75L170.313 75.0734L170.335 87.7783L211.607 87.7049L211.584 75Z" fill="#4B9F73"/>
<path d="M156.289 75.0904L115.018 75.1638L115.041 87.8687L156.312 87.7953L156.289 75.0904Z" fill="#4B9F73"/>
<path d="M212.369 165.829L171.098 165.903L171.12 178.608L212.392 178.534L212.369 165.829Z" fill="#4B9F73"/>
<path d="M157.077 165.92L115.805 165.993L115.828 178.698L157.099 178.625L157.077 165.92Z" fill="#4B9F73"/>
<path d="M544.303 95.2915L423 95.5074L423.112 158.407L544.415 158.191L544.303 95.2915Z" fill="#4B9F73"/>
<path d="M531.584 75L490.313 75.0734L490.335 87.7783L531.607 87.7049L531.584 75Z" fill="#4B9F73"/>
<path d="M476.289 75.0904L435.018 75.1638L435.041 87.8687L476.312 87.7953L476.289 75.0904Z" fill="#4B9F73"/>
<path d="M532.369 165.829L491.098 165.903L491.12 178.608L532.392 178.534L532.369 165.829Z" fill="#4B9F73"/>
<path d="M477.077 165.92L435.805 165.993L435.828 178.698L477.099 178.625L477.077 165.92Z" fill="#4B9F73"/>
<path d="M559.649 422.108L314.952 422.544L315.167 543.404L559.864 542.969L559.649 422.108Z" fill="#4B9F73"/>
<path d="M457.566 403L416.295 403.073L416.318 415.778L457.589 415.705L457.566 403Z" fill="#4B9F73"/>
<path d="M457.566 550L416.295 550.073L416.318 562.778L457.589 562.705L457.566 550Z" fill="#4B9F73"/>
<path d="M513.254 403L471.982 403.073L472.005 415.778L513.276 415.705L513.254 403Z" fill="#4B9F73"/>
<path d="M513.253 550L471.982 550.073L472.005 562.778L513.276 562.705L513.253 550Z" fill="#4B9F73"/>
<path d="M402.271 403.09L361 403.164L361.023 415.869L402.294 415.795L402.271 403.09Z" fill="#4B9F73"/>
<path d="M402.271 550.09L361 550.164L361.023 562.869L402.294 562.795L402.271 550.09Z" fill="#4B9F73"/>
<path d="M140 310.5H36.5C33.7386 310.5 31.5 312.739 31.5 315.5V348.5C31.5 351.261 33.7386 353.5 36.5 353.5H105.5C108.261 353.5 110.5 355.739 110.5 358.5V439C110.5 441.761 112.739 444 115.5 444H140C142.761 444 145 441.761 145 439V315.5C145 312.739 142.761 310.5 140 310.5Z" fill="#4B9F73"/>
<g filter="url(#filter0_d_207_229)">
<path d="M473.157 1114.02L383.684 1114.19C376.134 1114.2 370.025 1120.43 370.039 1128.11C370.052 1135.78 376.183 1141.99 383.733 1141.98L473.206 1141.81C480.755 1141.8 486.864 1135.57 486.851 1127.89C486.837 1120.22 480.706 1114.01 473.157 1114.02Z" fill="#11A6D8"/>
</g>
<path d="M387.605 1132.59L387.587 1122.41L389.74 1122.4L389.747 1126.89L389.882 1126.89L393.538 1122.4L396.118 1122.39L392.348 1126.96L396.181 1132.57L393.605 1132.58L390.809 1128.4L389.752 1129.69L389.757 1132.58L387.605 1132.59ZM399.395 1132.71C398.908 1132.71 398.473 1132.63 398.092 1132.46C397.711 1132.29 397.409 1132.04 397.186 1131.7C396.967 1131.36 396.856 1130.94 396.856 1130.44C396.855 1130.01 396.932 1129.66 397.087 1129.37C397.243 1129.08 397.454 1128.85 397.723 1128.67C397.991 1128.5 398.295 1128.36 398.637 1128.27C398.981 1128.18 399.342 1128.12 399.72 1128.08C400.164 1128.04 400.522 1127.99 400.794 1127.95C401.065 1127.91 401.263 1127.84 401.385 1127.76C401.507 1127.68 401.569 1127.56 401.568 1127.39L401.568 1127.36C401.568 1127.05 401.468 1126.81 401.269 1126.63C401.073 1126.46 400.794 1126.38 400.433 1126.38C400.052 1126.38 399.749 1126.46 399.524 1126.63C399.299 1126.8 399.15 1127.01 399.077 1127.26L397.118 1127.1C397.217 1126.64 397.412 1126.24 397.703 1125.9C397.994 1125.56 398.37 1125.29 398.83 1125.11C399.294 1124.92 399.83 1124.83 400.44 1124.83C400.865 1124.83 401.271 1124.88 401.659 1124.98C402.05 1125.08 402.396 1125.23 402.698 1125.44C403.004 1125.65 403.244 1125.91 403.421 1126.24C403.597 1126.57 403.685 1126.96 403.686 1127.41L403.695 1132.56L401.687 1132.56L401.685 1131.5L401.625 1131.5C401.503 1131.74 401.339 1131.95 401.134 1132.14C400.929 1132.32 400.682 1132.46 400.394 1132.56C400.106 1132.66 399.773 1132.71 399.395 1132.71ZM399.999 1131.25C400.311 1131.25 400.586 1131.19 400.824 1131.06C401.062 1130.94 401.249 1130.77 401.385 1130.56C401.52 1130.34 401.588 1130.1 401.587 1129.83L401.586 1129.02C401.52 1129.07 401.429 1129.11 401.313 1129.14C401.2 1129.18 401.073 1129.21 400.93 1129.24C400.788 1129.27 400.645 1129.29 400.503 1129.31C400.36 1129.33 400.231 1129.35 400.115 1129.37C399.867 1129.41 399.65 1129.46 399.464 1129.54C399.279 1129.62 399.135 1129.73 399.032 1129.87C398.93 1130 398.879 1130.17 398.879 1130.37C398.879 1130.65 398.984 1130.87 399.193 1131.03C399.406 1131.18 399.674 1131.25 399.999 1131.25ZM408.789 1132.7C408.017 1132.7 407.348 1132.54 406.784 1132.21C406.224 1131.88 405.79 1131.42 405.484 1130.83C405.178 1130.24 405.025 1129.55 405.023 1128.77C405.022 1127.98 405.173 1127.29 405.477 1126.7C405.781 1126.11 406.213 1125.64 406.772 1125.32C407.335 1124.98 408.003 1124.82 408.775 1124.81C409.547 1124.81 410.214 1124.98 410.775 1125.31C411.339 1125.64 411.774 1126.1 412.08 1126.69C412.385 1127.28 412.539 1127.97 412.54 1128.76C412.542 1129.54 412.391 1130.23 412.087 1130.82C411.783 1131.41 411.349 1131.87 410.787 1132.2C410.227 1132.53 409.561 1132.7 408.789 1132.7ZM408.796 1131.06C409.147 1131.06 409.44 1130.96 409.675 1130.76C409.91 1130.56 410.087 1130.28 410.206 1129.93C410.328 1129.58 410.389 1129.19 410.388 1128.74C410.387 1128.3 410.325 1127.9 410.202 1127.56C410.082 1127.21 409.904 1126.93 409.668 1126.73C409.433 1126.53 409.139 1126.43 408.788 1126.43C408.433 1126.43 408.135 1126.53 407.894 1126.74C407.655 1126.94 407.475 1127.21 407.353 1127.56C407.234 1127.91 407.175 1128.31 407.176 1128.75C407.177 1129.19 407.237 1129.59 407.357 1129.94C407.48 1130.29 407.662 1130.56 407.901 1130.76C408.143 1130.96 408.441 1131.06 408.796 1131.06ZM416.024 1122.36L416.042 1132.54L413.924 1132.54L413.907 1122.36L416.024 1122.36ZM417.739 1132.53L417.725 1124.9L419.843 1124.89L419.857 1132.53L417.739 1132.53ZM418.788 1123.91C418.473 1123.91 418.202 1123.81 417.977 1123.6C417.754 1123.39 417.643 1123.14 417.642 1122.84C417.642 1122.55 417.752 1122.3 417.974 1122.09C418.199 1121.88 418.469 1121.77 418.784 1121.77C419.099 1121.77 419.367 1121.87 419.59 1122.09C419.816 1122.29 419.929 1122.54 419.929 1122.84C419.93 1123.13 419.817 1123.38 419.592 1123.6C419.371 1123.81 419.102 1123.91 418.788 1123.91ZM423.663 1128.11L423.671 1132.52L421.553 1132.53L421.54 1124.89L423.558 1124.89L423.561 1126.24L423.65 1126.23C423.818 1125.79 424.101 1125.44 424.498 1125.18C424.896 1124.92 425.378 1124.79 425.944 1124.78C426.475 1124.78 426.937 1124.9 427.332 1125.13C427.727 1125.36 428.034 1125.69 428.254 1126.12C428.473 1126.55 428.583 1127.06 428.584 1127.65L428.593 1132.52L426.475 1132.52L426.467 1128.03C426.47 1127.57 426.35 1127.2 426.107 1126.94C425.865 1126.68 425.532 1126.54 425.107 1126.55C424.822 1126.55 424.571 1126.61 424.352 1126.73C424.137 1126.85 423.968 1127.03 423.846 1127.27C423.727 1127.5 423.666 1127.78 423.663 1128.11ZM433.542 1132.51L433.524 1122.32L437.541 1122.32C438.31 1122.32 438.967 1122.45 439.511 1122.73C440.058 1123 440.475 1123.38 440.761 1123.88C441.05 1124.38 441.195 1124.96 441.196 1125.64C441.198 1126.31 441.053 1126.89 440.762 1127.38C440.471 1127.87 440.049 1128.24 439.496 1128.5C438.946 1128.76 438.28 1128.89 437.498 1128.89L434.809 1128.89L434.806 1127.16L437.147 1127.16C437.558 1127.16 437.899 1127.1 438.171 1126.99C438.443 1126.88 438.644 1126.71 438.777 1126.48C438.912 1126.26 438.98 1125.98 438.979 1125.64C438.978 1125.3 438.91 1125.02 438.774 1124.79C438.641 1124.55 438.437 1124.38 438.161 1124.26C437.889 1124.14 437.546 1124.08 437.132 1124.08L435.68 1124.08L435.695 1132.5L433.542 1132.51ZM439.033 1127.86L441.571 1132.49L439.195 1132.5L436.711 1127.87L439.033 1127.86ZM446.017 1132.63C445.245 1132.63 444.577 1132.47 444.013 1132.14C443.452 1131.81 443.019 1131.35 442.713 1130.76C442.407 1130.17 442.253 1129.48 442.252 1128.7C442.251 1127.91 442.402 1127.22 442.706 1126.63C443.01 1126.04 443.441 1125.58 444.001 1125.25C444.564 1124.92 445.231 1124.75 446.004 1124.75C446.776 1124.75 447.442 1124.91 448.003 1125.24C448.567 1125.57 449.002 1126.03 449.308 1126.62C449.614 1127.21 449.768 1127.9 449.769 1128.69C449.77 1129.47 449.619 1130.16 449.315 1130.75C449.011 1131.34 448.578 1131.8 448.015 1132.14C447.455 1132.47 446.79 1132.63 446.017 1132.63ZM446.024 1130.99C446.376 1130.99 446.669 1130.89 446.904 1130.69C447.139 1130.49 447.316 1130.21 447.434 1129.87C447.556 1129.52 447.617 1129.12 447.616 1128.68C447.615 1128.23 447.553 1127.84 447.43 1127.49C447.31 1127.14 447.133 1126.87 446.897 1126.67C446.661 1126.46 446.368 1126.36 446.016 1126.36C445.662 1126.36 445.364 1126.47 445.122 1126.67C444.884 1126.87 444.704 1127.15 444.582 1127.5C444.463 1127.84 444.404 1128.24 444.405 1128.68C444.405 1129.13 444.466 1129.52 444.586 1129.87C444.709 1130.22 444.89 1130.49 445.129 1130.7C445.371 1130.89 445.67 1130.99 446.024 1130.99ZM454.603 1132.62C453.831 1132.62 453.163 1132.46 452.599 1132.13C452.038 1131.8 451.605 1131.34 451.299 1130.75C450.993 1130.16 450.839 1129.47 450.838 1128.69C450.836 1127.9 450.988 1127.21 451.292 1126.62C451.596 1126.02 452.027 1125.56 452.587 1125.23C453.15 1124.9 453.817 1124.73 454.59 1124.73C455.362 1124.73 456.028 1124.9 456.589 1125.23C457.153 1125.55 457.588 1126.01 457.894 1126.61C458.2 1127.2 458.354 1127.88 458.355 1128.67C458.356 1129.46 458.205 1130.14 457.901 1130.74C457.597 1131.33 457.164 1131.79 456.601 1132.12C456.041 1132.45 455.375 1132.62 454.603 1132.62ZM454.61 1130.98C454.962 1130.98 455.255 1130.88 455.49 1130.68C455.725 1130.47 455.902 1130.2 456.02 1129.85C456.142 1129.5 456.203 1129.11 456.202 1128.66C456.201 1128.22 456.139 1127.82 456.016 1127.47C455.896 1127.13 455.718 1126.85 455.483 1126.65C455.247 1126.45 454.954 1126.35 454.602 1126.35C454.248 1126.35 453.949 1126.45 453.708 1126.65C453.47 1126.86 453.289 1127.13 453.167 1127.48C453.049 1127.83 452.99 1128.22 452.991 1128.67C452.991 1129.11 453.052 1129.51 453.172 1129.86C453.295 1130.2 453.476 1130.48 453.715 1130.68C453.957 1130.88 454.256 1130.98 454.61 1130.98ZM459.739 1132.46L459.725 1124.82L461.744 1124.82L461.746 1126.17L461.836 1126.17C461.994 1125.72 462.258 1125.37 462.629 1125.11C463 1124.85 463.444 1124.72 463.961 1124.72C464.485 1124.72 464.931 1124.85 465.299 1125.11C465.667 1125.36 465.913 1125.72 466.037 1126.16L466.116 1126.16C466.271 1125.72 466.552 1125.37 466.959 1125.11C467.37 1124.84 467.855 1124.71 468.415 1124.71C469.128 1124.71 469.707 1124.93 470.152 1125.39C470.6 1125.84 470.825 1126.48 470.826 1127.3L470.835 1132.44L468.722 1132.44L468.714 1127.73C468.713 1127.3 468.6 1126.98 468.374 1126.77C468.149 1126.56 467.867 1126.45 467.529 1126.45C467.144 1126.46 466.844 1126.58 466.629 1126.82C466.414 1127.07 466.307 1127.39 466.308 1127.78L466.316 1132.45L464.263 1132.45L464.254 1127.69C464.254 1127.31 464.146 1127.02 463.93 1126.79C463.717 1126.57 463.437 1126.46 463.089 1126.46C462.854 1126.46 462.642 1126.52 462.453 1126.64C462.268 1126.76 462.12 1126.92 462.011 1127.14C461.902 1127.34 461.848 1127.59 461.849 1127.87L461.856 1132.46L459.739 1132.46Z" fill="white"/>
<g filter="url(#filter1_d_207_229)">
<path d="M224.633 40.0817L103.669 40.2436C96.12 40.2573 90.0109 46.489 90.0243 54.1626C90.0378 61.8362 96.1687 68.0459 103.718 68.0323L224.682 67.8704C232.231 67.8567 238.34 61.6248 238.327 53.9512C238.313 46.2776 232.183 40.0681 224.633 40.0817Z" fill="#11A6D8"/>
</g>
<path d="M121.748 52.0132L119.57 52.0161C119.53 51.7345 119.448 51.4843 119.325 51.2658C119.202 51.0439 119.044 50.8552 118.851 50.6996C118.659 50.5441 118.436 50.4251 118.184 50.3426C117.936 50.2601 117.665 50.219 117.374 50.2194C116.847 50.2201 116.388 50.3516 115.998 50.614C115.607 50.8731 115.305 51.2513 115.09 51.7488C114.876 52.2429 114.77 52.8429 114.771 53.5489C114.773 54.2747 114.882 54.8845 115.099 55.378C115.319 55.8716 115.624 56.244 116.016 56.4954C116.408 56.7467 116.86 56.8721 117.374 56.8714C117.662 56.871 117.929 56.8325 118.174 56.756C118.423 56.6794 118.643 56.5681 118.835 56.422C119.027 56.2726 119.185 56.0917 119.311 55.8794C119.44 55.6671 119.528 55.4251 119.578 55.1532L121.755 55.1602C121.7 55.6276 121.56 56.0786 121.336 56.513C121.115 56.9442 120.816 57.3307 120.438 57.6726C120.065 58.0112 119.618 58.2803 119.098 58.4798C118.581 58.6761 117.997 58.7747 117.344 58.7755C116.436 58.7768 115.623 58.5724 114.906 58.1624C114.193 57.7523 113.628 57.1582 113.212 56.3798C112.799 55.6015 112.591 54.6589 112.589 53.5518C112.586 52.4415 112.793 51.4966 113.209 50.7172C113.625 49.9378 114.19 49.3437 114.905 48.9351C115.62 48.5231 116.425 48.3166 117.32 48.3153C117.91 48.3145 118.457 48.3967 118.961 48.5617C119.468 48.7267 119.918 48.9681 120.31 49.2857C120.702 49.6001 121.021 49.9858 121.267 50.4428C121.517 50.8999 121.677 51.4233 121.748 52.0132ZM126.718 58.7728C125.945 58.7739 125.277 58.6107 124.713 58.2833C124.152 57.9527 123.719 57.4925 123.412 56.903C123.106 56.3101 122.952 55.6226 122.95 54.8404C122.948 54.0516 123.099 53.362 123.403 52.7716C123.706 52.1779 124.138 51.7166 124.697 51.3878C125.26 51.0556 125.927 50.8889 126.7 50.8879C127.472 50.8869 128.138 51.0517 128.699 51.3824C129.263 51.7097 129.699 52.1698 130.005 52.7627C130.311 53.3523 130.465 54.0414 130.467 54.8303C130.469 55.6125 130.318 56.3004 130.014 56.8941C129.711 57.4845 129.278 57.9457 128.715 58.2779C128.156 58.6068 127.49 58.7718 126.718 58.7728ZM126.724 57.1322C127.075 57.1317 127.368 57.0319 127.603 56.8327C127.838 56.6302 128.015 56.3549 128.133 56.0067C128.255 55.6585 128.315 55.2624 128.314 54.8183C128.313 54.3741 128.251 53.9781 128.128 53.6303C128.008 53.2824 127.83 53.0076 127.594 52.8057C127.358 52.6039 127.065 52.5032 126.713 52.5037C126.359 52.5041 126.06 52.6056 125.819 52.8081C125.581 53.0106 125.401 53.286 125.279 53.6341C125.16 53.9823 125.102 54.3785 125.103 54.8226C125.104 55.2667 125.164 55.6627 125.284 56.0106C125.408 56.3584 125.589 56.6333 125.828 56.8351C126.071 57.0336 126.369 57.1327 126.724 57.1322ZM135.897 50.9749L135.901 52.5658L131.302 52.572L131.298 50.9811L135.897 50.9749ZM132.338 49.1502L134.456 49.1473L134.473 56.2666C134.473 56.4622 134.503 56.6146 134.563 56.7239C134.623 56.8299 134.706 56.9043 134.812 56.9473C134.922 56.9902 135.048 57.0116 135.19 57.0114C135.29 57.0113 135.389 57.0028 135.488 56.9861C135.588 56.9661 135.664 56.9511 135.717 56.9411L136.054 58.5166C135.948 58.5499 135.799 58.5882 135.607 58.6316C135.414 58.6782 135.181 58.7067 134.906 58.717C134.395 58.7376 133.948 58.6703 133.563 58.515C133.181 58.3597 132.884 58.1182 132.671 57.7904C132.459 57.4625 132.353 57.0484 132.355 56.5479L132.338 49.1502ZM143.54 53.1422L141.601 53.2641C141.568 53.0984 141.496 52.9494 141.386 52.8169C141.277 52.6812 141.132 52.5737 140.953 52.4944C140.777 52.4117 140.567 52.3706 140.321 52.3709C139.993 52.3714 139.717 52.4414 139.492 52.5809C139.267 52.7171 139.154 52.8995 139.155 53.1282C139.155 53.3105 139.229 53.4645 139.375 53.5903C139.521 53.716 139.771 53.8168 140.126 53.8925L141.509 54.169C142.252 54.3205 142.806 54.565 143.171 54.9026C143.536 55.2402 143.72 55.6841 143.721 56.2342C143.722 56.7347 143.576 57.1741 143.281 57.5523C142.991 57.9305 142.59 58.2261 142.08 58.4389C141.574 58.6484 140.989 58.7536 140.326 58.7545C139.315 58.7558 138.509 58.5464 137.909 58.1263C137.311 57.7029 136.96 57.1267 136.856 56.3976L138.938 56.2854C139.002 56.5936 139.155 56.8287 139.397 56.9908C139.64 57.1496 139.95 57.2287 140.328 57.2282C140.699 57.2277 140.997 57.156 141.222 57.0132C141.45 56.867 141.566 56.6796 141.569 56.4509C141.565 56.2587 141.483 56.1014 141.324 55.979C141.165 55.8532 140.919 55.7574 140.588 55.6916L139.265 55.4299C138.518 55.2817 137.963 55.024 137.597 54.6566C137.235 54.2892 137.053 53.8204 137.052 53.2503C137.051 52.7598 137.183 52.3371 137.447 51.9821C137.715 51.6271 138.09 51.3531 138.574 51.1602C139.06 50.9673 139.63 50.8704 140.283 50.8696C141.248 50.8683 142.007 51.0711 142.562 51.478C143.119 51.8849 143.445 52.4396 143.54 53.1422ZM146.566 58.5969L144.471 50.9633L146.613 50.9604L147.808 56.0895L147.878 56.0894L149.099 50.9571L151.202 50.9543L152.467 56.0534L152.531 56.0533L153.683 50.9509L155.821 50.948L153.765 58.5872L151.523 58.5902L150.2 53.7894L150.105 53.7895L148.804 58.5939L146.566 58.5969ZM160.227 58.7276C159.455 58.7286 158.787 58.5655 158.223 58.2381C157.662 57.9074 157.228 57.4473 156.922 56.8578C156.616 56.2649 156.462 55.5774 156.46 54.7952C156.458 54.0063 156.609 53.3167 156.912 52.7264C157.216 52.1327 157.647 51.6714 158.207 51.3425C158.77 51.0103 159.437 50.8437 160.209 50.8427C160.982 50.8416 161.648 51.0064 162.209 51.3371C162.773 51.6645 163.208 52.1246 163.515 52.7175C163.821 53.307 163.975 53.9962 163.977 54.785C163.979 55.5672 163.828 56.2552 163.524 56.8488C163.221 57.4392 162.788 57.9005 162.225 58.2327C161.665 58.5616 161 58.7265 160.227 58.7276ZM160.234 57.0869C160.585 57.0865 160.878 56.9866 161.113 56.7875C161.348 56.585 161.524 56.3096 161.643 55.9615C161.765 55.6133 161.825 55.2171 161.824 54.773C161.823 54.3289 161.761 53.9329 161.637 53.585C161.517 53.2372 161.339 52.9623 161.104 52.7605C160.868 52.5586 160.574 52.4579 160.223 52.4584C159.868 52.4589 159.57 52.5604 159.329 52.7629C159.091 52.9654 158.911 53.2407 158.789 53.5889C158.67 53.9371 158.611 54.3332 158.612 54.7773C158.614 55.2215 158.674 55.6175 158.794 55.9653C158.918 56.3132 159.099 56.588 159.338 56.7899C159.58 56.9884 159.879 57.0874 160.234 57.0869ZM167.457 48.3868L167.481 58.5686L165.363 58.5715L165.339 48.3897L167.457 48.3868ZM171.991 58.6868C171.411 58.6876 170.886 58.5392 170.414 58.2415C169.946 57.9405 169.574 57.4986 169.298 56.9156C169.025 56.3293 168.887 55.6103 168.885 54.7585C168.883 53.8835 169.022 53.1558 169.303 52.5754C169.583 51.9917 169.956 51.5553 170.423 51.2664C170.893 50.9741 171.408 50.8275 171.968 50.8268C172.396 50.8262 172.752 50.8986 173.038 51.0441C173.326 51.1862 173.559 51.3649 173.735 51.5801C173.914 51.792 174.051 52.0006 174.144 52.2059L174.209 52.2059L174.2 48.3777L176.313 48.3749L176.336 58.5567L174.248 58.5595L174.245 57.3365L174.156 57.3366C174.057 57.5489 173.917 57.7595 173.735 57.9686C173.556 58.1743 173.323 58.3453 173.035 58.4816C172.75 58.6179 172.402 58.6863 171.991 58.6868ZM172.659 57.0006C173 57.0001 173.288 56.9069 173.523 56.721C173.761 56.5317 173.943 56.268 174.068 55.9298C174.197 55.5915 174.26 55.1954 174.259 54.7413C174.258 54.2872 174.194 53.8929 174.068 53.5583C173.941 53.2237 173.758 52.9655 173.519 52.7835C173.28 52.6015 172.99 52.5108 172.648 52.5112C172.3 52.5117 172.007 52.6066 171.769 52.7958C171.531 52.985 171.351 53.2471 171.229 53.582C171.107 53.917 171.047 54.3048 171.048 54.7456C171.049 55.1898 171.111 55.5824 171.234 55.9237C171.361 56.2616 171.542 56.5265 171.778 56.7184C172.017 56.907 172.311 57.001 172.659 57.0006ZM181.358 58.5499L181.334 48.3681L185.351 48.3627C186.12 48.3616 186.777 48.4983 187.321 48.7727C187.868 49.0437 188.285 49.4293 188.571 49.9294C188.861 50.4261 189.006 51.0109 189.008 51.6837C189.01 52.3599 188.865 52.9417 188.574 53.4294C188.284 53.9137 187.862 54.2854 187.309 54.5447C186.76 54.804 186.094 54.9341 185.312 54.9352L182.622 54.9388L182.618 53.2087L184.96 53.2055C185.371 53.205 185.712 53.1482 185.983 53.0351C186.255 52.9221 186.457 52.7528 186.589 52.5272C186.724 52.3016 186.791 52.0215 186.791 51.6867C186.79 51.3487 186.721 51.0637 186.585 50.8319C186.452 50.6001 186.247 50.4247 185.972 50.3057C185.7 50.1835 185.357 50.1226 184.943 50.1232L183.491 50.1251L183.51 58.547L181.358 58.5499ZM186.845 53.909L189.387 58.5391L187.01 58.5423L184.524 53.9121L186.845 53.909ZM193.833 58.6822C193.061 58.6832 192.392 58.5201 191.828 58.1927C191.267 57.862 190.834 57.4019 190.527 56.8124C190.221 56.2195 190.067 55.532 190.065 54.7498C190.063 53.961 190.214 53.2714 190.518 52.681C190.821 52.0873 191.253 51.626 191.812 51.2971C192.375 50.9649 193.042 50.7983 193.815 50.7973C194.587 50.7962 195.254 50.9611 195.814 51.2917C196.379 51.6191 196.814 52.0792 197.12 52.6721C197.426 53.2616 197.58 53.9508 197.582 54.7396C197.584 55.5218 197.433 56.2098 197.13 56.8035C196.826 57.3938 196.393 57.8551 195.83 58.1873C195.271 58.5162 194.605 58.6812 193.833 58.6822ZM193.839 57.0416C194.19 57.0411 194.483 56.9413 194.718 56.7421C194.953 56.5396 195.13 56.2643 195.248 55.9161C195.37 55.5679 195.431 55.1718 195.43 54.7276C195.429 54.2835 195.366 53.8875 195.243 53.5397C195.123 53.1918 194.945 52.917 194.709 52.7151C194.473 52.5132 194.18 52.4126 193.828 52.413C193.474 52.4135 193.176 52.515 192.934 52.7175C192.696 52.92 192.516 53.1953 192.394 53.5435C192.276 53.8917 192.217 54.2878 192.218 54.732C192.219 55.1761 192.28 55.5721 192.4 55.9199C192.523 56.2678 192.704 56.5426 192.943 56.7445C193.186 56.943 193.484 57.042 193.839 57.0416ZM202.419 58.6706C201.647 58.6717 200.978 58.5085 200.414 58.1811C199.853 57.8504 199.42 57.3903 199.113 56.8008C198.807 56.2079 198.653 55.5204 198.651 54.7382C198.649 53.9494 198.8 53.2598 199.104 52.6694C199.407 52.0757 199.839 51.6144 200.398 51.2855C200.961 50.9534 201.628 50.7867 202.401 50.7857C203.173 50.7846 203.839 50.9495 204.4 51.2801C204.965 51.6075 205.4 52.0676 205.706 52.6605C206.012 53.25 206.166 53.9392 206.168 54.728C206.17 55.5102 206.019 56.1982 205.716 56.7919C205.412 57.3822 204.979 57.8435 204.416 58.1757C203.857 58.5046 203.191 58.6696 202.419 58.6706ZM202.425 57.03C202.776 57.0295 203.069 56.9297 203.304 56.7305C203.539 56.528 203.716 56.2527 203.834 55.9045C203.956 55.5563 204.017 55.1602 204.016 54.716C204.014 54.2719 203.952 53.8759 203.829 53.5281C203.709 53.1802 203.531 52.9054 203.295 52.7035C203.059 52.5017 202.766 52.401 202.414 52.4014C202.06 52.4019 201.762 52.5034 201.52 52.7059C201.282 52.9084 201.102 53.1837 200.98 53.5319C200.862 53.8801 200.803 54.2762 200.804 54.7204C200.805 55.1645 200.865 55.5605 200.986 55.9083C201.109 56.2562 201.29 56.531 201.529 56.7329C201.772 56.9314 202.07 57.0305 202.425 57.03ZM207.554 58.5145L207.537 50.8782L209.555 50.8755L209.558 52.2228L209.648 52.2226C209.806 51.775 210.07 51.4216 210.441 51.1626C210.811 50.9036 211.255 50.7737 211.772 50.773C212.296 50.7723 212.742 50.9026 213.11 51.164C213.479 51.422 213.725 51.773 213.849 52.217L213.928 52.2169C214.083 51.7791 214.364 51.4291 214.771 51.1667C215.181 50.901 215.666 50.7678 216.227 50.767C216.939 50.7661 217.518 50.9923 217.963 51.4458C218.412 51.8959 218.637 52.5353 218.639 53.3639L218.651 58.4995L216.538 58.5024L216.527 53.7844C216.526 53.3601 216.412 53.0421 216.187 52.8303C215.961 52.6185 215.679 52.5128 215.341 52.5132C214.956 52.5138 214.657 52.6368 214.442 52.8824C214.227 53.1246 214.12 53.4446 214.121 53.8423L214.131 58.5056L212.078 58.5084L212.067 53.7456C212.066 53.3711 211.958 53.073 211.742 52.8512C211.529 52.6294 211.249 52.5188 210.901 52.5192C210.666 52.5196 210.454 52.5795 210.265 52.6991C210.08 52.8153 209.933 52.9796 209.824 53.1919C209.715 53.4008 209.661 53.6462 209.661 53.9279L209.672 58.5117L207.554 58.5145Z" fill="white"/>
<g filter="url(#filter2_d_207_229)">
<path d="M540.075 40.0817L419.111 40.2436C411.561 40.2573 405.452 46.489 405.466 54.1626C405.479 61.8362 411.61 68.0459 419.159 68.0323L540.123 67.8704C547.673 67.8567 553.782 61.6248 553.768 53.9512C553.755 46.2776 547.624 40.0681 540.075 40.0817Z" fill="#11A6D8"/>
</g>
<path d="M444.394 52.0035L442.217 52.0064C442.176 51.7247 442.095 51.4746 441.971 51.256C441.848 51.0341 441.69 50.8454 441.498 50.6899C441.305 50.5344 441.083 50.4154 440.831 50.3329C440.582 50.2503 440.312 50.2093 440.02 50.2097C439.493 50.2104 439.034 50.3419 438.644 50.6043C438.253 50.8633 437.951 51.2416 437.737 51.739C437.522 52.2332 437.416 52.8332 437.418 53.5392C437.419 54.265 437.529 54.8747 437.745 55.3683C437.965 55.8618 438.271 56.2343 438.662 56.4856C439.054 56.737 439.507 56.8623 440.021 56.8617C440.309 56.8613 440.576 56.8228 440.821 56.7462C441.069 56.6697 441.289 56.5583 441.481 56.4122C441.673 56.2628 441.832 56.082 441.957 55.8697C442.086 55.6574 442.175 55.4153 442.224 55.1435L444.402 55.1505C444.346 55.6179 444.207 56.0688 443.982 56.5033C443.761 56.9345 443.462 57.321 443.085 57.6629C442.711 58.0015 442.264 58.2706 441.744 58.4701C441.228 58.6664 440.643 58.7649 439.99 58.7658C439.082 58.767 438.27 58.5626 437.553 58.1526C436.839 57.7426 436.274 57.1484 435.858 56.3701C435.445 55.5918 435.238 54.6491 435.235 53.5421C435.233 52.4318 435.439 51.4869 435.855 50.7075C436.271 49.928 436.836 49.334 437.551 48.9254C438.266 48.5134 439.071 48.3068 439.966 48.3056C440.556 48.3048 441.103 48.3869 441.607 48.552C442.115 48.717 442.564 48.9584 442.956 49.276C443.348 49.5903 443.667 49.976 443.913 50.4331C444.163 50.8901 444.323 51.4136 444.394 52.0035ZM449.364 58.7631C448.592 58.7641 447.924 58.601 447.359 58.2736C446.799 57.9429 446.365 57.4828 446.059 56.8933C445.752 56.3004 445.598 55.6129 445.597 54.8307C445.595 54.0419 445.746 53.3523 446.049 52.7619C446.353 52.1682 446.784 51.7069 447.344 51.378C447.906 51.0458 448.574 50.8792 449.346 50.8782C450.118 50.8771 450.785 51.042 451.346 51.3726C451.91 51.7 452.345 52.1601 452.651 52.753C452.958 53.3425 453.112 54.0317 453.114 54.8205C453.115 55.6027 452.964 56.2907 452.661 56.8844C452.357 57.4747 451.924 57.936 451.362 58.2682C450.802 58.5971 450.136 58.7621 449.364 58.7631ZM449.37 57.1225C449.722 57.122 450.015 57.0222 450.25 56.823C450.484 56.6205 450.661 56.3452 450.78 55.997C450.901 55.6488 450.962 55.2527 450.961 54.8085C450.96 54.3644 450.898 53.9684 450.774 53.6206C450.654 53.2727 450.476 52.9979 450.24 52.796C450.005 52.5941 449.711 52.4935 449.36 52.4939C449.005 52.4944 448.707 52.5959 448.465 52.7984C448.227 53.0009 448.047 53.2762 447.925 53.6244C447.807 53.9726 447.748 54.3687 447.749 54.8129C447.75 55.257 447.811 55.653 447.931 56.0008C448.054 56.3487 448.236 56.6235 448.475 56.8254C448.717 57.0239 449.016 57.1229 449.37 57.1225ZM454.506 61.4706L454.482 50.9707L456.57 50.9679L456.573 52.2505L456.667 52.2504C456.76 52.0448 456.893 51.8358 457.069 51.6234C457.247 51.4078 457.479 51.2285 457.763 51.0856C458.051 50.9393 458.409 50.8659 458.837 50.8654C459.394 50.8646 459.908 51.0097 460.379 51.3008C460.85 51.5885 461.227 52.0238 461.51 52.6068C461.794 53.1864 461.936 53.9137 461.938 54.7887C461.94 55.6405 461.804 56.3599 461.53 56.947C461.26 57.5307 460.89 57.9736 460.42 58.2759C459.953 58.5748 459.43 58.7246 458.85 58.7254C458.439 58.726 458.089 58.6585 457.8 58.523C457.515 58.3875 457.281 58.2171 457.098 58.0119C456.915 57.8033 456.776 57.5931 456.679 57.3811L456.615 57.3811L456.624 61.4678L454.506 61.4706ZM456.564 54.786C456.565 55.2401 456.629 55.6361 456.755 55.974C456.882 56.3119 457.065 56.5751 457.304 56.7637C457.543 56.949 457.833 57.0414 458.175 57.041C458.52 57.0405 458.811 56.9457 459.049 56.7564C459.287 56.5639 459.467 56.2985 459.589 55.9602C459.714 55.6187 459.776 55.2258 459.775 54.7817C459.774 54.3409 459.712 53.9532 459.589 53.6186C459.465 53.284 459.284 53.0224 459.045 52.8338C458.806 52.6452 458.512 52.5512 458.164 52.5516C457.82 52.5521 457.528 52.6436 457.29 52.8263C457.055 53.0089 456.875 53.2676 456.75 53.6026C456.625 53.9375 456.563 54.332 456.564 54.786ZM463.365 61.4587L463.341 50.9587L465.429 50.9559L465.432 52.2386L465.527 52.2384C465.619 52.0328 465.753 51.8238 465.928 51.6115C466.106 51.3958 466.338 51.2165 466.623 51.0736C466.911 50.9274 467.269 50.854 467.696 50.8534C468.253 50.8526 468.767 50.9978 469.238 51.2888C469.71 51.5765 470.087 52.0119 470.37 52.5948C470.653 53.1745 470.795 53.9018 470.797 54.7768C470.799 55.6286 470.664 56.348 470.39 56.935C470.119 57.5187 469.749 57.9617 469.279 58.2639C468.813 58.5628 468.289 58.7127 467.709 58.7135C467.298 58.714 466.948 58.6466 466.66 58.5111C466.374 58.3755 466.14 58.2052 465.958 57.9999C465.775 57.7914 465.635 57.5811 465.539 57.3691L465.474 57.3692L465.483 61.4558L463.365 61.4587ZM465.423 54.7741C465.424 55.2282 465.488 55.6241 465.615 55.962C465.742 56.2999 465.924 56.5632 466.164 56.7518C466.403 56.9371 466.693 57.0295 467.034 57.029C467.379 57.0285 467.67 56.9337 467.909 56.7444C468.147 56.5519 468.327 56.2865 468.449 55.9483C468.574 55.6067 468.636 55.2139 468.635 54.7697C468.634 54.3289 468.572 53.9412 468.448 53.6066C468.325 53.2721 468.144 53.0105 467.904 52.8219C467.665 52.6333 467.372 52.5392 467.024 52.5397C466.679 52.5401 466.388 52.6317 466.149 52.8143C465.915 52.9969 465.735 53.2557 465.609 53.5906C465.484 53.9255 465.422 54.32 465.423 54.7741ZM475.699 58.7275C474.913 58.7286 474.237 58.5704 473.669 58.253C473.105 57.9323 472.67 57.4788 472.363 56.8926C472.057 56.303 471.903 55.6055 471.901 54.8001C471.899 54.0146 472.05 53.325 472.354 52.7313C472.657 52.1377 473.086 51.6747 473.638 51.3425C474.194 51.0103 474.847 50.8437 475.596 50.8427C476.1 50.8421 476.569 50.9226 477.003 51.0844C477.441 51.2429 477.823 51.4827 478.149 51.8038C478.477 52.1248 478.734 52.5288 478.917 53.0158C479.1 53.4995 479.193 54.0661 479.194 54.7157L479.196 55.2974L472.748 55.3061L472.745 53.9936L477.199 53.9876C477.198 53.6827 477.131 53.4126 476.998 53.1775C476.865 52.9423 476.681 52.7586 476.445 52.6264C476.213 52.4908 475.943 52.4232 475.634 52.4236C475.313 52.4241 475.028 52.499 474.78 52.6485C474.535 52.7947 474.343 52.9922 474.204 53.2409C474.066 53.4864 473.995 53.7599 473.993 54.0615L473.995 55.3094C473.996 55.6872 474.067 56.0136 474.206 56.2885C474.35 56.5634 474.551 56.7753 474.81 56.9241C475.068 57.0728 475.375 57.147 475.73 57.1465C475.965 57.1462 476.18 57.1128 476.376 57.0462C476.571 56.9797 476.738 56.88 476.877 56.7473C477.016 56.6145 477.122 56.4519 477.194 56.2596L479.153 56.3862C479.055 56.857 478.852 57.2683 478.545 57.62C478.241 57.9684 477.847 58.2407 477.363 58.4369C476.883 58.6298 476.328 58.7267 475.699 58.7275ZM480.585 58.5718L480.568 50.9354L482.621 50.9327L482.624 52.2651L482.704 52.265C482.842 51.7908 483.075 51.4325 483.402 51.1901C483.73 50.9444 484.107 50.8213 484.535 50.8207C484.641 50.8206 484.755 50.827 484.878 50.8401C485.001 50.8532 485.108 50.8713 485.201 50.8944L485.206 52.7736C485.106 52.744 484.968 52.7176 484.793 52.6947C484.617 52.6717 484.456 52.6603 484.31 52.6605C483.999 52.6609 483.721 52.7293 483.476 52.8655C483.234 52.9984 483.042 53.1842 482.9 53.4231C482.762 53.6619 482.693 53.9371 482.693 54.2486L482.703 58.5689L480.585 58.5718ZM489.594 58.5596L489.57 48.3778L493.587 48.3724C494.356 48.3714 495.013 48.508 495.557 48.7824C496.105 49.0534 496.522 49.439 496.808 49.9391C497.097 50.4359 497.243 51.0207 497.244 51.6935C497.246 52.3696 497.101 52.9515 496.811 53.4391C496.52 53.9234 496.098 54.2952 495.546 54.5544C494.996 54.8137 494.33 54.9439 493.548 54.9449L490.858 54.9485L490.854 53.2184L493.196 53.2153C493.607 53.2147 493.948 53.1579 494.22 53.0449C494.491 52.9318 494.693 52.7625 494.825 52.5369C494.96 52.3114 495.028 52.0312 495.027 51.6965C495.026 51.3584 494.958 51.0735 494.821 50.8416C494.688 50.6098 494.484 50.4344 494.208 50.3155C493.936 50.1932 493.593 50.1324 493.179 50.1329L491.727 50.1349L491.747 58.5567L489.594 58.5596ZM495.082 53.9187L497.623 58.5488L495.247 58.552L492.76 53.9218L495.082 53.9187ZM502.069 58.6919C501.297 58.693 500.629 58.5298 500.064 58.2025C499.504 57.8718 499.07 57.4117 498.764 56.8221C498.457 56.2292 498.303 55.5417 498.302 54.7595C498.3 53.9707 498.451 53.2811 498.754 52.6907C499.058 52.097 499.489 51.6358 500.049 51.3069C500.611 50.9747 501.279 50.8081 502.051 50.807C502.823 50.806 503.49 50.9708 504.051 51.3015C504.615 51.6288 505.05 52.0889 505.356 52.6818C505.663 53.2714 505.817 53.9605 505.819 54.7494C505.82 55.5316 505.67 56.2195 505.366 56.8132C505.062 57.4036 504.629 57.8648 504.067 58.197C503.507 58.5259 502.841 58.6909 502.069 58.6919ZM502.075 57.0513C502.427 57.0508 502.72 56.951 502.955 56.7518C503.189 56.5493 503.366 56.274 503.485 55.9258C503.606 55.5776 503.667 55.1815 503.666 54.7374C503.665 54.2932 503.603 53.8972 503.479 53.5494C503.359 53.2016 503.181 52.9267 502.945 52.7248C502.71 52.523 502.416 52.4223 502.065 52.4228C501.71 52.4232 501.412 52.5247 501.17 52.7272C500.932 52.9297 500.752 53.2051 500.63 53.5532C500.512 53.9014 500.453 54.2976 500.454 54.7417C500.455 55.1858 500.516 55.5818 500.636 55.9297C500.759 56.2775 500.941 56.5524 501.18 56.7542C501.422 56.9527 501.721 57.0518 502.075 57.0513ZM510.655 58.6803C509.883 58.6814 509.215 58.5182 508.65 58.1909C508.09 57.8602 507.656 57.4001 507.35 56.8105C507.043 56.2176 506.889 55.5301 506.887 54.7479C506.886 53.9591 507.037 53.2695 507.34 52.6791C507.644 52.0854 508.075 51.6242 508.635 51.2953C509.197 50.9631 509.865 50.7965 510.637 50.7954C511.409 50.7944 512.076 50.9592 512.637 51.2899C513.201 51.6172 513.636 52.0774 513.942 52.6702C514.249 53.2598 514.403 53.9489 514.405 54.7378C514.406 55.52 514.255 56.2079 513.952 56.8016C513.648 57.392 513.215 57.8533 512.653 58.1855C512.093 58.5143 511.427 58.6793 510.655 58.6803ZM510.661 57.0397C511.013 57.0392 511.306 56.9394 511.541 56.7402C511.775 56.5377 511.952 56.2624 512.071 55.9142C512.192 55.566 512.253 55.1699 512.252 54.7258C512.251 54.2816 512.189 53.8857 512.065 53.5378C511.945 53.19 511.767 52.9151 511.531 52.7132C511.295 52.5114 511.002 52.4107 510.651 52.4112C510.296 52.4116 509.998 52.5131 509.756 52.7156C509.518 52.9181 509.338 53.1935 509.216 53.5417C509.098 53.8898 509.039 54.286 509.04 54.7301C509.041 55.1742 509.102 55.5702 509.222 55.9181C509.345 56.2659 509.527 56.5408 509.766 56.7426C510.008 56.9412 510.307 57.0402 510.661 57.0397ZM515.79 58.5243L515.773 50.8879L517.791 50.8852L517.794 52.2325L517.884 52.2324C518.042 51.7847 518.306 51.4314 518.677 51.1723C519.047 50.9133 519.491 50.7835 520.008 50.7828C520.532 50.7821 520.978 50.9124 521.347 51.1737C521.715 51.4317 521.961 51.7827 522.085 52.2267L522.164 52.2266C522.319 51.7889 522.6 51.4388 523.007 51.1764C523.418 50.9107 523.903 50.7775 524.463 50.7767C525.176 50.7758 525.754 51.002 526.2 51.4555C526.648 51.9057 526.873 52.545 526.875 53.3736L526.887 58.5093L524.774 58.5121L524.763 53.7941C524.762 53.3699 524.649 53.0518 524.423 52.84C524.197 52.6282 523.915 52.5225 523.577 52.523C523.193 52.5235 522.893 52.6465 522.678 52.8921C522.463 53.1343 522.356 53.4543 522.357 53.852L522.368 58.5154L520.315 58.5181L520.304 53.7554C520.303 53.3809 520.194 53.0827 519.978 52.8609C519.766 52.6392 519.485 52.5285 519.137 52.529C518.902 52.5293 518.69 52.5892 518.501 52.7088C518.316 52.8251 518.169 52.9893 518.06 53.2016C517.951 53.4105 517.897 53.6559 517.898 53.9376L517.908 58.5214L515.79 58.5243Z" fill="white"/>
<rect x="59" y="827.393" width="177.579" height="100.915" rx="10" transform="rotate(-51.1995 59 827.393)" fill="#9F6835"/>
<rect x="73.0594" y="825.866" width="157" height="82" transform="rotate(-51.1995 73.0594 825.866)" fill="#4B9F73"/>
<circle cx="73.0594" cy="825.866" r="3" transform="rotate(-51.1995 73.0594 825.866)" fill="black"/>
<circle cx="109.767" cy="823.301" r="2" transform="rotate(-51.1995 109.767 823.301)" fill="#A60000"/>
<circle cx="153.598" cy="781.554" r="2" transform="rotate(-51.1995 153.598 781.554)" fill="#A60000"/>
<circle cx="138.833" cy="815.876" r="2" transform="rotate(-51.1995 138.833 815.876)" fill="#A60000"/>
<circle cx="139.534" cy="848.518" r="2" transform="rotate(-51.1995 139.534 848.518)" fill="#A60000"/>
<circle cx="118.265" cy="796.772" r="2" transform="rotate(-51.1995 118.265 796.772)" fill="#A60000"/>
<circle cx="153.872" cy="797.172" r="2" transform="rotate(-51.1995 153.872 797.172)" fill="#A60000"/>
<circle cx="166.683" cy="731.766" r="2" transform="rotate(-51.1995 166.683 731.766)" fill="#A60000"/>
<circle cx="136.965" cy="877.248" r="3" transform="rotate(-51.1995 136.965 877.248)" fill="black"/>
<circle cx="122.562" cy="764.298" r="3" transform="rotate(-51.1995 122.562 764.298)" fill="black"/>
<circle cx="186.467" cy="815.68" r="3" transform="rotate(-51.1995 186.467 815.68)" fill="black"/>
<circle cx="171.437" cy="703.51" r="3" transform="rotate(-51.1995 171.437 703.51)" fill="black"/>
<circle cx="235.343" cy="754.893" r="3" transform="rotate(-51.1995 235.343 754.893)" fill="black"/>
<path d="M222.108 761.205L146.918 841.495L146.553 841.154L221.013 760.18L222.108 761.205Z" fill="#B56E1B"/>
<path d="M206.013 749.001L153.887 845.866L153.447 845.629L204.692 748.29L206.013 749.001Z" fill="#B56E1B"/>
<defs>
<filter id="filter0_d_207_229" x="366.317" y="1110.3" width="124.256" height="35.3946" filterUnits="userSpaceOnUse" color-interpolation-filters="sRGB">
<feFlood flood-opacity="0" result="BackgroundImageFix"/>
<feColorMatrix in="SourceAlpha" type="matrix" values="0 0 0 0 0 0 0 0 0 0 0 0 0 0 0 0 0 0 127 0" result="hardAlpha"/>
<feOffset/>
<feGaussianBlur stdDeviation="1.861"/>
<feColorMatrix type="matrix" values="0 0 0 0 0 0 0 0 0 0 0 0 0 0 0 0 0 0 0.3 0"/>
<feBlend mode="normal" in2="BackgroundImageFix" result="effect1_dropShadow_207_229"/>
<feBlend mode="normal" in="SourceGraphic" in2="effect1_dropShadow_207_229" result="shape"/>
</filter>
<filter id="filter1_d_207_229" x="86.3023" y="36.3597" width="155.747" height="35.3946" filterUnits="userSpaceOnUse" color-interpolation-filters="sRGB">
<feFlood flood-opacity="0" result="BackgroundImageFix"/>
<feColorMatrix in="SourceAlpha" type="matrix" values="0 0 0 0 0 0 0 0 0 0 0 0 0 0 0 0 0 0 127 0" result="hardAlpha"/>
<feOffset/>
<feGaussianBlur stdDeviation="1.861"/>
<feColorMatrix type="matrix" values="0 0 0 0 0 0 0 0 0 0 0 0 0 0 0 0 0 0 0.3 0"/>
<feBlend mode="normal" in2="BackgroundImageFix" result="effect1_dropShadow_207_229"/>
<feBlend mode="normal" in="SourceGraphic" in2="effect1_dropShadow_207_229" result="shape"/>
</filter>
<filter id="filter2_d_207_229" x="401.744" y="36.3597" width="155.747" height="35.3946" filterUnits="userSpaceOnUse" color-interpolation-filters="sRGB">
<feFlood flood-opacity="0" result="BackgroundImageFix"/>
<feColorMatrix in="SourceAlpha" type="matrix" values="0 0 0 0 0 0 0 0 0 0 0 0 0 0 0 0 0 0 127 0" result="hardAlpha"/>
<feOffset/>
<feGaussianBlur stdDeviation="1.861"/>
<feColorMatrix type="matrix" values="0 0 0 0 0 0 0 0 0 0 0 0 0 0 0 0 0 0 0.3 0"/>
<feBlend mode="normal" in2="BackgroundImageFix" result="effect1_dropShadow_207_229"/>
<feBlend mode="normal" in="SourceGraphic" in2="effect1_dropShadow_207_229" result="shape"/>
</filter>
</defs>
</svg>
