<svg width="295" height="619" viewBox="0 0 295 619" fill="none" xmlns="http://www.w3.org/2000/svg">
<g clip-path="url(#clip0_182_199)">
<path opacity="0.7" fill-rule="evenodd" clip-rule="evenodd" d="M159.145 16.064V99.38H160.072V97.401H186.589V99.38H279.171V16.064H159.145Z" fill="#FF610F"/>
<path d="M229.75 62.595L228.794 58.387L226.788 60.3V66.038H224.875V58.865L226.881 56.952L226.309 54.083C225.653 54.8328 224.844 55.4339 223.937 55.8462C223.03 56.2585 222.045 56.4725 221.049 56.474V54.561C222.865 54.561 224.396 53.605 225.162 52.266L226.118 50.736C226.499 50.162 227.074 49.78 227.743 49.78C228.031 49.78 228.221 49.876 228.509 49.876L233.481 51.98V56.475H231.568V53.223L229.846 52.554L231.378 60.301L236.063 59.345L236.444 61.258L229.75 62.597V62.595ZM226.309 49.302C225.802 49.3007 225.316 49.0987 224.958 48.7402C224.599 48.3818 224.397 47.896 224.396 47.389C224.396 46.337 225.255 45.476 226.309 45.476C227.363 45.476 228.222 46.337 228.222 47.389C228.222 48.441 227.359 49.302 226.309 49.302Z" fill="white"/>
<path d="M236.316 64.668H229.805V68.78H223.634V72.893H217.466V76.662H211.298" stroke="white" stroke-width="1.04" stroke-linecap="square" stroke-linejoin="round"/>
<path opacity="0.7" d="M113.51 408.369H15.977V467.036H113.51V408.369Z" fill="#FF610F"/>
<path d="M69.922 439.229L68.966 435.021L66.96 436.934V442.672H65.047V435.499L67.053 433.586L66.481 430.717C65.8247 431.467 65.0161 432.068 64.109 432.48C63.202 432.892 62.2174 433.107 61.221 433.108V431.195C63.037 431.195 64.568 430.239 65.334 428.9L66.29 427.37C66.671 426.796 67.246 426.414 67.915 426.414C68.203 426.414 68.393 426.51 68.681 426.51L73.653 428.614V433.109H71.74V429.857L70.018 429.188L71.55 436.935L76.235 435.979L76.616 437.892L69.922 439.231V439.229ZM66.481 425.936C65.974 425.935 65.4882 425.733 65.1297 425.374C64.7713 425.016 64.5693 424.53 64.568 424.023C64.568 422.971 65.427 422.11 66.481 422.11C67.535 422.11 68.394 422.971 68.394 424.023C68.3921 424.53 68.19 425.015 67.8316 425.374C67.4733 425.732 66.9878 425.934 66.481 425.936Z" fill="white"/>
<path d="M76.488 441.301H69.977V445.413H63.806V449.526H57.638V453.295H51.47" stroke="white" stroke-width="1.04" stroke-linecap="square" stroke-linejoin="round"/>
<path d="M195.433 50.814L190.875 55.361H194.294V63.349H196.573V55.361H199.992L195.434 50.814H195.433ZM203.409 66.779V58.791H201.13V66.779H197.711L202.269 71.326L206.827 66.779H203.409Z" fill="white"/>
<path opacity="0.56" d="M279.171 559.391H181.799V602.714H279.171V559.391Z" fill="#4735CD"/>
<path d="M227.317 583.316C228.552 575.708 223.385 568.54 215.778 567.306C208.17 566.071 201.002 571.237 199.768 578.845C198.533 586.453 203.7 593.621 211.307 594.855C218.915 596.09 226.083 590.923 227.317 583.316Z" stroke="white" stroke-width="1.174" stroke-linecap="square" stroke-linejoin="round"/>
<path d="M215.087 591.369V585.199H218.171L215.554 577.353C215.419 576.943 215.158 576.586 214.808 576.333C214.459 576.079 214.038 575.943 213.606 575.943H213.488C212.604 575.943 211.816 576.509 211.54 577.353L208.918 585.199H212.002V591.369H215.087ZM213.544 574.916C214.09 574.916 214.613 574.699 214.999 574.314C215.384 573.928 215.601 573.405 215.601 572.859C215.601 572.313 215.384 571.79 214.999 571.404C214.613 571.019 214.09 570.802 213.544 570.802C212.998 570.802 212.475 571.019 212.089 571.404C211.704 571.79 211.487 572.313 211.487 572.859C211.487 573.405 211.704 573.928 212.089 574.314C212.475 574.699 212.998 574.916 213.544 574.916Z" fill="white"/>
<path d="M279.171 512.687H181.799V555.391H279.171V512.687Z" fill="#D8DADE"/>
<path d="M263.346 582.075C263.892 574.388 258.103 567.712 250.415 567.166C242.727 566.62 236.052 572.409 235.506 580.097C234.96 587.785 240.749 594.46 248.437 595.006C256.124 595.552 262.8 589.763 263.346 582.075Z" stroke="white" stroke-width="1.174" stroke-linecap="square" stroke-linejoin="round"/>
<path d="M247.369 591.369V583.656H245.827V578C245.827 576.869 246.752 575.943 247.883 575.943H250.968C252.099 575.943 253.024 576.869 253.024 578V583.656H251.482V591.369H247.368H247.369ZM249.426 574.916C249.972 574.916 250.495 574.699 250.881 574.314C251.266 573.928 251.483 573.405 251.483 572.859C251.483 572.313 251.266 571.79 250.881 571.404C250.495 571.019 249.972 570.802 249.426 570.802C248.88 570.802 248.357 571.019 247.971 571.404C247.586 571.79 247.369 572.313 247.369 572.859C247.369 573.405 247.586 573.928 247.971 574.314C248.357 574.699 248.88 574.916 249.426 574.916Z" fill="white"/>
<path d="M145.04 396.433V371.006H146.92V311.339H15.977V397.311H146.92V396.433H145.04Z" fill="#D8DADE"/>
<path d="M67.309 369.374H94.323V372.751H67.309V369.374ZM94.323 350.802H90.946V345.737H94.323V350.802ZM94.323 342.36H67.309V359.244C67.3087 360.131 67.4832 361.009 67.8225 361.829C68.1618 362.648 68.6592 363.393 69.2863 364.02C69.9134 364.647 70.658 365.144 71.4774 365.483C72.2968 365.823 73.1751 365.997 74.062 365.997H84.192C85.0789 365.997 85.9571 365.823 86.7766 365.483C87.596 365.144 88.3405 364.647 88.9677 364.02C89.5948 363.393 90.0922 362.648 90.4315 361.829C90.7708 361.009 90.9453 360.131 90.945 359.244V354.179H94.322C94.7655 354.179 95.2047 354.092 95.6145 353.922C96.0242 353.753 96.3966 353.504 96.7102 353.19C97.0238 352.877 97.2725 352.504 97.4422 352.094C97.6119 351.685 97.6991 351.246 97.699 350.802V345.737C97.7004 345.293 97.6141 344.853 97.4449 344.443C97.2757 344.033 97.027 343.66 96.7131 343.346C96.3992 343.032 96.0263 342.784 95.616 342.615C95.2056 342.446 94.7658 342.359 94.322 342.361L94.323 342.36Z" fill="#525A5C"/>
<path fill-rule="evenodd" clip-rule="evenodd" d="M141.139 501.089V477.544L15.977 477.418V602.714H147.654V501.089H141.139Z" fill="#51B881"/>
<path d="M71.2656 514.046L71.3564 565.055L97.8134 565.007L97.7226 513.998L71.2656 514.046Z" fill="#4B9F73"/>
<path d="M62.7295 519.392L62.7604 536.747L68.1044 536.737L68.0735 519.382L62.7295 519.392Z" fill="#4B9F73"/>
<path d="M62.7676 542.644L62.7985 559.999L68.1424 559.989L68.1116 542.634L62.7676 542.644Z" fill="#4B9F73"/>
<path d="M100.935 519.062L100.965 536.417L106.309 536.407L106.279 519.052L100.935 519.062Z" fill="#4B9F73"/>
<path d="M100.973 542.314L101.003 559.669L106.347 559.659L106.317 542.304L100.973 542.314Z" fill="#4B9F73"/>
<g filter="url(#filter0_d_182_199)">
<path d="M100.323 582.685L63.2947 582.751C60.1704 582.756 57.6422 585.294 57.6478 588.418C57.6534 591.542 60.1906 594.07 63.3149 594.065L100.343 593.999C103.467 593.993 105.995 591.456 105.99 588.332C105.984 585.208 103.447 582.679 100.323 582.685Z" fill="#11A6D8"/>
</g>
<path d="M65.5689 586.309L65.5673 585.376L69.9628 585.368L69.9644 586.301L68.3259 586.304L68.3337 590.723L67.2152 590.725L67.2074 586.306L65.5689 586.309ZM71.7844 588.396L71.7885 590.717L70.6752 590.719L70.6658 585.367L71.7477 585.365L71.7513 587.411L71.7983 587.411C71.8885 587.174 72.0345 586.988 72.2364 586.853C72.4382 586.717 72.6916 586.649 72.9965 586.648C73.2752 586.648 73.5184 586.708 73.7259 586.83C73.9352 586.95 74.0975 587.123 74.2129 587.349C74.33 587.574 74.388 587.843 74.3868 588.156L74.3913 590.712L73.278 590.714L73.2739 588.357C73.2752 588.109 73.2121 587.917 73.0847 587.78C72.959 587.642 72.7829 587.574 72.5565 587.574C72.4049 587.574 72.2708 587.607 72.1542 587.671C72.0393 587.736 71.9489 587.83 71.8829 587.954C71.8187 588.076 71.7858 588.224 71.7844 588.396ZM77.0968 590.786C76.6839 590.786 76.3284 590.703 76.0302 590.537C75.7337 590.368 75.505 590.13 75.3442 589.822C75.1834 589.512 75.1026 589.145 75.1019 588.722C75.1011 588.309 75.1806 587.947 75.3404 587.635C75.5001 587.322 75.7253 587.079 76.0159 586.904C76.3083 586.729 76.6514 586.642 77.0451 586.641C77.3099 586.641 77.5565 586.683 77.7849 586.768C78.015 586.851 78.2156 586.977 78.3866 587.146C78.5594 587.314 78.6939 587.527 78.7902 587.783C78.8864 588.037 78.9349 588.335 78.9355 588.676L78.936 588.982L75.5466 588.988L75.5454 588.298L77.8869 588.294C77.8866 588.134 77.8515 587.992 77.7816 587.868C77.7117 587.744 77.6148 587.648 77.491 587.578C77.3689 587.507 77.2269 587.472 77.0649 587.472C76.8959 587.472 76.7461 587.512 76.6156 587.59C76.4868 587.667 76.3859 587.771 76.313 587.902C76.24 588.031 76.2028 588.175 76.2014 588.333L76.2025 588.989C76.2029 589.188 76.2398 589.359 76.3132 589.504C76.3884 589.648 76.494 589.76 76.63 589.838C76.766 589.916 76.9272 589.955 77.1137 589.955C77.2373 589.954 77.3506 589.937 77.4533 589.902C77.556 589.867 77.6439 589.814 77.717 589.744C77.79 589.675 77.8456 589.589 77.8837 589.488L78.9135 589.554C78.8617 589.802 78.7549 590.018 78.5932 590.203C78.4333 590.386 78.2262 590.529 77.972 590.633C77.7196 590.734 77.4278 590.785 77.0968 590.786ZM81.3896 590.7L81.3802 585.348L83.5231 585.344C83.9168 585.343 84.2453 585.401 84.5086 585.517C84.7719 585.634 84.9699 585.795 85.1027 586.002C85.2355 586.208 85.3021 586.444 85.3025 586.713C85.3029 586.922 85.2614 587.106 85.1781 587.264C85.0947 587.421 84.98 587.55 84.8338 587.652C84.6894 587.751 84.524 587.822 84.3377 587.864L84.3378 587.917C84.5416 587.925 84.7325 587.982 84.9104 588.088C85.09 588.194 85.2357 588.343 85.3476 588.534C85.4594 588.724 85.5156 588.95 85.516 589.213C85.5165 589.497 85.4464 589.751 85.3057 589.974C85.1667 590.196 84.9606 590.371 84.6873 590.5C84.414 590.63 84.077 590.695 83.6763 590.696L81.3896 590.7ZM82.5196 589.773L83.4421 589.771C83.7574 589.77 83.9873 589.71 84.1316 589.589C84.276 589.467 84.348 589.305 84.3477 589.103C84.3474 588.955 84.3115 588.824 84.2398 588.711C84.1682 588.598 84.0661 588.509 83.9336 588.445C83.8028 588.381 83.6469 588.349 83.4657 588.349L82.5171 588.351L82.5196 589.773ZM82.5157 587.585L83.3546 587.584C83.5096 587.584 83.6472 587.556 83.7673 587.502C83.8892 587.446 83.9849 587.368 84.0544 587.266C84.1256 587.165 84.1611 587.044 84.1609 586.903C84.1605 586.71 84.0914 586.554 83.9536 586.436C83.8175 586.317 83.624 586.258 83.3731 586.259L82.5134 586.26L82.5157 587.585ZM87.3788 590.765C87.1227 590.765 86.8944 590.721 86.6938 590.633C86.4933 590.543 86.3346 590.41 86.2175 590.234C86.1022 590.056 86.0443 589.835 86.0439 589.57C86.0435 589.347 86.0841 589.16 86.1657 589.008C86.2473 588.857 86.3586 588.734 86.4996 588.642C86.6405 588.549 86.8007 588.479 86.98 588.432C87.1611 588.385 87.351 588.351 87.5496 588.332C87.783 588.307 87.9711 588.284 88.1139 588.263C88.2567 588.24 88.3603 588.207 88.4247 588.163C88.4891 588.119 88.5212 588.055 88.5211 587.969L88.521 587.954C88.5207 587.788 88.4683 587.66 88.3636 587.57C88.2606 587.479 88.1142 587.434 87.9243 587.435C87.7239 587.435 87.5646 587.48 87.4463 587.569C87.328 587.656 87.2498 587.766 87.2117 587.898L86.1819 587.817C86.2337 587.573 86.3362 587.362 86.4892 587.184C86.6422 587.004 86.8396 586.866 87.0816 586.77C87.3254 586.672 87.6075 586.622 87.9281 586.622C88.1511 586.621 88.3645 586.647 88.5685 586.699C88.7741 586.751 88.9563 586.832 89.1151 586.941C89.2756 587.051 89.4021 587.192 89.4948 587.364C89.5874 587.534 89.6339 587.739 89.6343 587.978L89.6391 590.685L88.5833 590.687L88.5824 590.13L88.551 590.13C88.4868 590.256 88.4007 590.367 88.2929 590.463C88.185 590.557 88.0554 590.631 87.9039 590.686C87.7524 590.738 87.5774 590.765 87.3788 590.765ZM87.6962 589.996C87.86 589.996 88.0045 589.963 88.1299 589.899C88.2552 589.832 88.3535 589.743 88.4247 589.632C88.4959 589.52 88.5314 589.394 88.5312 589.252L88.5304 588.826C88.4956 588.849 88.4477 588.87 88.3868 588.889C88.3276 588.907 88.2605 588.924 88.1857 588.939C88.1108 588.953 88.0359 588.967 87.961 588.979C87.8861 588.99 87.8182 588.999 87.7572 589.008C87.6266 589.028 87.5125 589.058 87.415 589.1C87.3175 589.142 87.2418 589.199 87.188 589.27C87.1341 589.34 87.1072 589.427 87.1074 589.532C87.1077 589.683 87.1628 589.799 87.2727 589.879C87.3843 589.957 87.5255 589.996 87.6962 589.996ZM91.612 588.361L91.6161 590.682L90.5028 590.684L90.4957 586.67L91.5567 586.668L91.558 587.376L91.605 587.376C91.6934 587.142 91.8421 586.957 92.0509 586.821C92.2597 586.683 92.5131 586.614 92.811 586.613C93.0897 586.613 93.3329 586.673 93.5404 586.795C93.748 586.917 93.9094 587.09 94.0248 587.317C94.1402 587.541 94.1981 587.809 94.1987 588.121L94.2032 590.677L93.0899 590.679L93.0858 588.322C93.0871 588.076 93.024 587.885 92.8966 587.747C92.7692 587.608 92.594 587.539 92.371 587.539C92.2212 587.539 92.0888 587.572 91.9739 587.637C91.8608 587.701 91.7721 587.795 91.7079 587.919C91.6454 588.041 91.6134 588.189 91.612 588.361ZM96.0873 589.519L96.0876 588.183L96.2496 588.183L97.5326 586.657L98.8105 586.655L97.0867 588.675L96.8228 588.676L96.0873 589.519ZM95.0806 590.676L95.0712 585.324L96.1844 585.322L96.1939 590.674L95.0806 590.676ZM97.5894 590.671L96.4051 588.925L97.1459 588.137L98.8934 590.669L97.5894 590.671Z" fill="white"/>
<path d="M288.154 6.98401H6.98401V611.694H288.154V6.98401Z" stroke="#11A7D9" stroke-width="9.967" stroke-miterlimit="10"/>
<path d="M153.102 602.714V500.686" stroke="#525A5C" stroke-width="3.998" stroke-miterlimit="10"/>
<path d="M279.171 506.861H181.799" stroke="#525A5C" stroke-width="3.998" stroke-miterlimit="10"/>
<path d="M153.102 506.861H157.461" stroke="#525A5C" stroke-width="3.998" stroke-miterlimit="10"/>
<path d="M153.102 476.348V471.989H15.977" stroke="#525A5C" stroke-width="3.998" stroke-miterlimit="10"/>
<path d="M153.102 257.237V371.006" stroke="#525A5C" stroke-width="3.998" stroke-miterlimit="10"/>
<path d="M15.977 403.371H153.102V396.433" stroke="#525A5C" stroke-width="3.998" stroke-miterlimit="10"/>
<path d="M153.102 16.064V230.064" stroke="#525A5C" stroke-width="3.998" stroke-miterlimit="10"/>
<path d="M153.102 105.469H160.004" stroke="#525A5C" stroke-width="3.998" stroke-miterlimit="10"/>
<path d="M186.521 105.469H279.171" stroke="#525A5C" stroke-width="3.998" stroke-miterlimit="10"/>
<path d="M279.17 105.242H241.574V142.838H279.17V105.242Z" fill="#525A5C"/>
<path d="M153.102 305.4H15.977" stroke="#525A5C" stroke-width="3.998" stroke-miterlimit="10"/>
</g>
<defs>
<filter id="filter0_d_182_199" x="53.9258" y="578.963" width="55.7859" height="18.8239" filterUnits="userSpaceOnUse" color-interpolation-filters="sRGB">
<feFlood flood-opacity="0" result="BackgroundImageFix"/>
<feColorMatrix in="SourceAlpha" type="matrix" values="0 0 0 0 0 0 0 0 0 0 0 0 0 0 0 0 0 0 127 0" result="hardAlpha"/>
<feOffset/>
<feGaussianBlur stdDeviation="1.861"/>
<feColorMatrix type="matrix" values="0 0 0 0 0 0 0 0 0 0 0 0 0 0 0 0 0 0 0.3 0"/>
<feBlend mode="normal" in2="BackgroundImageFix" result="effect1_dropShadow_182_199"/>
<feBlend mode="normal" in="SourceGraphic" in2="effect1_dropShadow_182_199" result="shape"/>
</filter>
<clipPath id="clip0_182_199">
<rect width="291.137" height="614.677" fill="white" transform="translate(2 2)"/>
</clipPath>
</defs>
</svg>
