<?xml version="1.0" encoding="UTF-8" standalone="no"?>
<!DOCTYPE svg PUBLIC "-//W3C//DTD SVG 1.1//EN" "http://www.w3.org/Graphics/SVG/1.1/DTD/svg11.dtd">
<svg width="100%" height="100%" viewBox="0 0 371 224" version="1.1" xmlns="http://www.w3.org/2000/svg"
     xml:space="preserve"
     style="fill-rule:evenodd;clip-rule:evenodd;stroke-linecap:round;stroke-linejoin:round;stroke-miterlimit:1.5;">
    <g id="FCU">
        <path
            d="M368.183,195.549L344.646,195.549L344.646,221.424L22.452,221.424L22.452,207.604L48.01,207.604L48.01,99.429L22.452,99.429L22.452,85.844L344.646,85.844L344.646,113.143L368.183,113.143"
            style="fill:rgb(148,154,173);fill-opacity:0.1;stroke:rgb(148,154,173);stroke-width:5px;"/>
      <g id="water_cold">
            <rect id="Resivour_C" x="149.397" y="1.296" width="97.734" height="62.829"
                  style="fill:rgb(0,129,213);stroke:rgb(148,154,173);stroke-width:2px;"/>
        <g>
                <path id="Pipe_C"
                      d="M131.562,39.566C127.691,40.476 124.879,43.855 124.695,47.836L124.695,189.126L107.393,189.126L107.393,25.999L158.705,25.999L159.482,25.963C164.006,25.332 167.483,21.129 167.083,16.809C166.748,13.196 163.829,9.984 160.251,9.315C159.571,9.188 159.394,9.203 158.705,9.172L98.979,9.172C94.462,9.38 90.779,12.964 90.565,17.585L90.565,197.539C90.774,202.057 94.358,205.739 98.979,205.953L133.108,205.953C137.615,205.745 141.312,202.079 141.522,197.539L141.522,56.25L158.705,56.25L159.482,56.214C166.078,55.294 169.597,46.381 164.373,41.618C163.222,40.569 161.783,39.852 160.251,39.566C159.571,39.439 159.394,39.454 158.705,39.422L133.108,39.422L132.332,39.458C132.075,39.494 131.819,39.53 131.562,39.566Z"
                      style="fill:rgb(0,129,213);stroke:rgb(148,154,173);stroke-width:2px;stroke-linecap:butt;stroke-miterlimit:1.41421;"/>
          <g id="Arrows_C">
                    <path
                        d="M133.099,122.651L125.467,112.779L125.467,124.618L133.099,134.49L140.732,124.618L140.732,112.779L133.099,122.651Z"
                        style="fill:white;fill-opacity:0.35;"/>
            <path
                d="M133.099,164.771L125.467,154.899L125.467,166.738L133.099,176.61L140.732,166.738L140.732,154.899L133.099,164.771Z"
                style="fill:white;fill-opacity:0.35;"/>
            <path
                d="M115.595,197.563L125.467,189.931L113.628,189.931L103.756,197.563L113.628,205.196L125.467,205.196L115.595,197.563Z"
                style="fill:white;fill-opacity:0.35;"/>
            <path
                d="M98.904,158.308L106.537,168.18L106.537,156.341L98.904,146.469L91.272,156.341L91.272,168.18L98.904,158.308Z"
                style="fill:white;fill-opacity:0.35;"/>
            <path
                d="M98.904,116.607L106.537,126.479L106.537,114.64L98.904,104.768L91.272,114.64L91.272,126.479L98.904,116.607Z"
                style="fill:white;fill-opacity:0.35;"/>
            <path
                d="M98.904,74.906L106.537,84.778L106.537,72.939L98.904,63.067L91.272,72.939L91.272,84.778L98.904,74.906Z"
                style="fill:white;fill-opacity:0.35;"/>
            <path
                d="M98.904,33.204L106.537,43.077L106.537,31.237L98.904,21.365L91.272,31.237L91.272,43.077L98.904,33.204Z"
                style="fill:white;fill-opacity:0.35;"/>
            <path
                d="M134.309,17.652L124.437,25.284L136.276,25.284L146.148,17.652L136.276,10.019L124.437,10.019L134.309,17.652Z"
                style="fill:white;fill-opacity:0.35;"/>
            <path
                d="M133.099,80.531L125.467,70.659L125.467,82.498L133.099,92.37L140.732,82.498L140.732,70.659L133.099,80.531Z"
                style="fill:white;fill-opacity:0.35;"/>
            <path
                d="M149.998,47.83L159.87,40.197L148.031,40.197L138.159,47.83L148.031,55.463L159.87,55.463L149.998,47.83Z"
                style="fill:white;fill-opacity:0.35;"/>
                </g>
            </g>
        </g>
      <g id="fan">
            <path
                d="M244.534,141.507C239.97,135.668 235.617,127.414 236.709,117.932C237.816,108.316 246.645,103.075 255.929,102.894C265.421,102.709 274.874,106.739 275.446,115.152C276.128,125.182 266.948,125.526 261.734,135.217C260.691,137.155 260.261,139.132 260.184,140.978C262.428,142.219 264.328,144.008 265.703,146.163C271.542,141.597 279.8,137.238 289.288,138.33C298.903,139.437 304.144,148.267 304.325,157.551C304.511,167.043 300.481,176.495 292.067,177.068C282.038,177.75 281.693,168.57 272.002,163.355C270.038,162.299 268.033,161.871 266.165,161.802C264.926,164.023 263.15,165.904 261.012,167.269C265.595,173.111 269.985,181.391 268.889,190.909C267.782,200.525 258.953,205.766 249.669,205.947C240.177,206.132 230.724,202.102 230.152,193.689C229.47,183.659 238.65,183.315 243.864,173.624C244.926,171.651 245.353,169.636 245.418,167.761C243.197,166.533 241.312,164.768 239.941,162.642C234.099,167.222 225.823,171.606 216.31,170.511C206.695,169.404 201.454,160.574 201.273,151.29C201.087,141.798 205.117,132.346 213.531,131.773C223.56,131.091 223.905,140.271 233.596,145.486C235.542,146.533 237.529,146.962 239.382,147.037C240.612,144.792 242.39,142.889 244.534,141.507ZM252.801,143.009C259.071,143.009 264.161,148.1 264.161,154.37C264.161,160.64 259.071,165.73 252.801,165.73C246.531,165.73 241.441,160.64 241.441,154.37C241.441,148.1 246.531,143.009 252.801,143.009Z"
                style="fill:rgb(148,154,173);"/>
        <circle cx="252.801" cy="154.37" r="6.829" style="fill:rgb(148,154,173);"/>
        </g>
      <rect id="Filter" x="19.427" y="105.512" width="22.545" height="96.008" style="fill:rgb(3,189,91);"/>
      <g transform="matrix(6.12323e-17,-1,0.716264,4.38585e-17,-3814.69,1580.44)">
            <text x="1383.9px" y="5343.56px"
                  style="font-family:'0Arame-Regular', '0Arame';font-weight:500;font-size:24.778px;fill:rgb(148,154,173);">Fil<tspan
                x="1415.93px " y="5343.56px ">t</tspan>er</text>
        </g>
    </g>
</svg>
