<svg xmlns="http://www.w3.org/2000/svg" viewBox="0 0 790.839 620.744"><defs><filter id="drop-shadow-1" filterUnits="userSpaceOnUse"><feOffset/><feGaussianBlur result="blur" stdDeviation="1.861"/><feFlood flood-color="#000" flood-opacity=".3"/><feComposite in2="blur" operator="in"/><feComposite in="SourceGraphic"/></filter><filter id="drop-shadow-2" filterUnits="userSpaceOnUse"><feOffset/><feGaussianBlur result="blur-2" stdDeviation="1.974"/><feFlood flood-color="#000" flood-opacity=".3"/><feComposite in2="blur-2" operator="in"/><feComposite in="SourceGraphic"/></filter><filter id="drop-shadow-3" filterUnits="userSpaceOnUse"><feOffset/><feGaussianBlur result="blur-3" stdDeviation="1.996"/><feFlood flood-color="#000" flood-opacity=".3"/><feComposite in2="blur-3" operator="in"/><feComposite in="SourceGraphic"/></filter><filter id="drop-shadow-4" filterUnits="userSpaceOnUse"><feOffset/><feGaussianBlur result="blur-4" stdDeviation="2.246"/><feFlood flood-color="#000" flood-opacity=".3"/><feComposite in2="blur-4" operator="in"/><feComposite in="SourceGraphic"/></filter><filter id="drop-shadow-5" filterUnits="userSpaceOnUse"><feOffset/><feGaussianBlur result="blur-5" stdDeviation="1.842"/><feFlood flood-color="#000" flood-opacity=".3"/><feComposite in2="blur-5" operator="in"/><feComposite in="SourceGraphic"/></filter><filter id="drop-shadow-6" filterUnits="userSpaceOnUse"><feOffset/><feGaussianBlur result="blur-6" stdDeviation="1.842"/><feFlood flood-color="#000" flood-opacity=".3"/><feComposite in2="blur-6" operator="in"/><feComposite in="SourceGraphic"/></filter><filter id="drop-shadow-7" filterUnits="userSpaceOnUse"><feOffset/><feGaussianBlur result="blur-7" stdDeviation="2.382"/><feFlood flood-color="#000" flood-opacity=".3"/><feComposite in2="blur-7" operator="in"/><feComposite in="SourceGraphic"/></filter><filter id="drop-shadow-8" filterUnits="userSpaceOnUse"><feOffset/><feGaussianBlur result="blur-8" stdDeviation="2.233"/><feFlood flood-color="#000" flood-opacity=".3"/><feComposite in2="blur-8" operator="in"/><feComposite in="SourceGraphic"/></filter><filter id="drop-shadow-9" filterUnits="userSpaceOnUse"><feOffset/><feGaussianBlur result="blur-9" stdDeviation="1.707"/><feFlood flood-color="#000" flood-opacity=".3"/><feComposite in2="blur-9" operator="in"/><feComposite in="SourceGraphic"/></filter><filter id="drop-shadow-10" filterUnits="userSpaceOnUse"><feOffset/><feGaussianBlur result="blur-10" stdDeviation="2.02"/><feFlood flood-color="#000" flood-opacity=".3"/><feComposite in2="blur-10" operator="in"/><feComposite in="SourceGraphic"/></filter><filter id="drop-shadow-11" filterUnits="userSpaceOnUse"><feOffset/><feGaussianBlur result="blur-11" stdDeviation="2.061"/><feFlood flood-color="#000" flood-opacity=".3"/><feComposite in2="blur-11" operator="in"/><feComposite in="SourceGraphic"/></filter><filter id="drop-shadow-12" filterUnits="userSpaceOnUse"><feOffset/><feGaussianBlur result="blur-12" stdDeviation="1.542"/><feFlood flood-color="#000" flood-opacity=".3"/><feComposite in2="blur-12" operator="in"/><feComposite in="SourceGraphic"/></filter></defs><g id="Layer_10" data-name="Layer 10"><path d="M232.042 349.37v-27.385h-27.478c.074-14.989 12.244-27.119 27.251-27.119 15.052 0 27.255 12.202 27.254 27.255 0 14.976-12.08 27.126-27.028 27.249Z" style="fill:#ff610f;opacity:.7;fill-rule:evenodd"/><rect x="189.928" y="36.487" width="104.233" height="83.252" style="fill:#ff610f;opacity:.7"/><rect x="718.324" y="412.215" width="55.472" height="191.433" style="fill:#ff610f;opacity:.7"/><rect x="17.017" y="191.783" width="28.261" height="105.5" style="fill:#ff610f;opacity:.7"/><rect x="17.056" y="410.312" width="110.106" height="21.064" style="fill:#ff610f;opacity:.7"/><text transform="translate(730.115 517.902)" style="font-family:OpenSans-Semibold,'Open Sans';font-weight:600;fill:#fff;font-size:17px"><tspan x="0" y="0">Fi</tspan><tspan x="13.788" y="0" style="letter-spacing:-.019em">r</tspan><tspan x="20.794" y="0" style="letter-spacing:.26em">e</tspan><tspan x=".158" y="20.4">Exit</tspan></text><path d="m747.303 492.516-1.185-5.215-2.486 2.37v7.111h-2.37v-8.889l2.486-2.37-.709-3.555a8.681 8.681 0 0 1-6.518 2.963v-2.37c2.25 0 4.148-1.185 5.097-2.844l1.185-1.896c.472-.711 1.185-1.185 2.014-1.185.356 0 .593.119.949.119l6.162 2.607v5.57h-2.37v-4.03l-2.134-.83 1.898 9.6 5.806-1.185.472 2.37-8.296 1.659Zm-4.264-16.474c-1.305 0-2.37-1.067-2.37-2.37s1.065-2.37 2.37-2.37 2.37 1.067 2.37 2.37a2.378 2.378 0 0 1-2.37 2.37Z" style="fill:#fff"/><rect x="17.056" y="443.378" width="110.106" height="160.27" style="fill:#4735cc;opacity:.56"/><path d="M83.017 273.466h27.014v3.377H83.017v-3.377Zm27.014-18.572h-3.377v-5.065h3.377v5.065Zm0-8.442H83.017v16.884a6.751 6.751 0 0 0 6.753 6.753H99.9a6.751 6.751 0 0 0 6.753-6.753v-5.065h3.377a3.376 3.376 0 0 0 3.377-3.377v-5.065a3.365 3.365 0 0 0-3.377-3.376Z" style="fill:#525a5c"/><rect x="154.945" y="335.667" width="39.391" height="12.227" transform="rotate(-157.151 174.64 341.78)" style="fill:#d9d9d9"/><path d="m35.757 247.379-.581-2.556-1.218 1.162v3.485h-1.162v-4.356l1.218-1.162-.347-1.742a4.254 4.254 0 0 1-3.195 1.452V242.5c1.103 0 2.033-.581 2.498-1.394l.581-.929c.231-.348.581-.581.987-.581.175 0 .29.058.465.058l3.02 1.278v2.73h-1.162v-1.975l-1.046-.407.93 4.705 2.845-.581.231 1.162-4.066.813Zm-2.09-8.073c-.64 0-1.162-.523-1.162-1.162s.522-1.162 1.162-1.162 1.162.523 1.162 1.162-.524 1.162-1.162 1.162Z" style="fill:#fff"/><polyline points="39.745 248.637 35.79 248.637 35.79 251.135 32.042 251.135 32.042 253.632 28.297 253.632 28.297 255.922 24.551 255.922" style="stroke-width:.631px;stroke:#fff;stroke-linecap:square;stroke-linejoin:round;fill:none"/><path d="m79.417 421.188-.518-2.279-1.086 1.036v3.107h-1.036v-3.884l1.086-1.036-.31-1.554a3.793 3.793 0 0 1-2.848 1.295v-1.036c.983 0 1.813-.518 2.227-1.243l.518-.829c.206-.311.518-.518.88-.518.156 0 .259.052.415.052l2.693 1.139v2.434h-1.036v-1.761l-.933-.363.829 4.195 2.537-.518.206 1.036-3.625.725Zm-1.863-7.199c-.57 0-1.036-.466-1.036-1.036s.465-1.036 1.036-1.036 1.036.466 1.036 1.036a1.04 1.04 0 0 1-1.036 1.036Z" style="fill:#fff"/><polyline points="82.973 422.31 79.447 422.31 79.447 424.537 76.106 424.537 76.106 426.764 72.766 426.764 72.766 428.806 69.426 428.806" style="stroke:#fff;stroke-linecap:square;stroke-linejoin:round;stroke-width:.563px;fill:none"/><path d="m66.957 416.526-2.468 2.462h1.851v4.326h1.234v-4.326h1.851l-2.468-2.462ZM249.333 320.437l-.744-3.247-1.546 1.479.008 4.43-1.477.003-.01-5.537 1.546-1.479-.445-2.214a5.409 5.409 0 0 1-4.057 1.853l-.003-1.477c1.402-.002 2.583-.743 3.172-1.777l.736-1.183c.293-.443.737-.74 1.253-.74.222 0 .369.073.591.073l3.841 1.617.006 3.47-1.477.003-.004-2.51-1.33-.514 1.193 5.978 3.615-.745.297 1.476-5.166 1.043Zm-2.674-10.257c-.813.001-1.478-.662-1.479-1.474s.661-1.478 1.474-1.479 1.478.662 1.479 1.474-.663 1.478-1.474 1.479Z" style="fill:#fff"/><polyline points="254.405 322.027 249.379 322.036 249.385 325.211 244.621 325.219 244.626 328.394 239.865 328.403 239.87 331.313 235.109 331.321" style="stroke-width:.802px;stroke:#fff;stroke-linecap:square;stroke-linejoin:round;fill:none"/><path d="m235.115 316.904 3.513-3.516-2.639.005-.011-6.166-1.759.003.011 6.166-2.639.005 3.525 3.504ZM25.243 244.447v-4.852h-1.384v4.852h-2.076l2.768 2.761 2.768-2.761h-2.076ZM254.381 79.639l-.956-4.208-2.006 1.913v5.738h-1.913v-7.173l2.006-1.913-.572-2.869a7.004 7.004 0 0 1-5.26 2.391v-1.913c1.816 0 3.347-.956 4.113-2.295l.956-1.53c.381-.574.956-.956 1.625-.956.288 0 .478.096.766.096l4.972 2.104v4.495h-1.913v-3.252l-1.722-.669 1.532 7.747 4.685-.956.381 1.913-6.694 1.339Zm-3.441-13.293c-1.053 0-1.913-.861-1.913-1.913s.859-1.913 1.913-1.913 1.913.861 1.913 1.913a1.92 1.92 0 0 1-1.913 1.913Z" style="fill:#fff"/><polyline points="260.947 81.711 254.437 81.711 254.437 85.823 248.265 85.823 248.265 89.936 242.097 89.936 242.097 93.706 235.93 93.706" style="stroke-width:1.04px;stroke:#fff;stroke-linecap:square;stroke-linejoin:round;fill:none"/><path d="m220.064 67.857-4.558 4.547h3.419v7.988h2.279v-7.988h3.419l-4.558-4.547Zm7.976 15.965v-7.988h-2.279v7.988h-3.419l4.558 4.547 4.558-4.547h-3.419Z" style="fill:#fff"/><rect x="512.654" y="415.648" width="76.904" height="22" style="fill:#d9d9d9"/></g><g id="Rooms"><polygon points="329.338 487.837 305.793 487.837 305.793 481.323 260.233 481.323 260.233 603.648 330.863 603.648 330.863 481.323 329.338 481.323 329.338 487.837" style="fill:#51b881;fill-rule:evenodd"/><polygon points="387.095 487.837 363.55 487.837 363.55 481.323 342.839 481.323 342.839 603.648 413.968 603.648 413.968 481.323 387.095 481.323 387.095 487.837" style="fill:#51b881;fill-rule:evenodd"/><polygon points="245.241 487.837 221.696 487.837 221.696 481.323 138.541 481.323 138.541 603.648 248.242 603.648 248.242 481.323 245.241 481.323 245.241 487.837" style="fill:#51b881;fill-rule:evenodd"/><rect x="352.899" y="529.257" width="51.009" height="26.457" transform="rotate(-90.102 378.4 542.485)" style="fill:#4b9f73"/><rect x="350.605" y="528.352" width="17.355" height="5.344" transform="rotate(-90.102 359.278 531.024)" style="fill:#4b9f73"/><rect x="350.642" y="551.604" width="17.355" height="5.344" transform="rotate(-90.102 359.316 554.276)" style="fill:#4b9f73"/><rect x="388.81" y="528.022" width="17.355" height="5.344" transform="rotate(-90.102 397.484 530.694)" style="fill:#4b9f73"/><rect x="388.847" y="551.275" width="17.355" height="5.344" transform="rotate(-90.102 397.521 553.947)" style="fill:#4b9f73"/><rect x="270.796" y="529.257" width="51.009" height="26.457" transform="rotate(-90.102 296.297 542.485)" style="fill:#4b9f73"/><rect x="268.502" y="528.352" width="17.355" height="5.344" transform="rotate(-90.102 277.176 531.023)" style="fill:#4b9f73"/><rect x="268.539" y="551.604" width="17.355" height="5.344" transform="rotate(-90.102 277.214 554.275)" style="fill:#4b9f73"/><rect x="306.707" y="528.022" width="17.355" height="5.344" transform="rotate(-90.102 315.38 530.694)" style="fill:#4b9f73"/><rect x="306.745" y="551.275" width="17.355" height="5.344" transform="rotate(-90.102 315.418 553.946)" style="fill:#4b9f73"/><rect x="152.194" y="529.257" width="51.009" height="26.457" transform="rotate(-90.102 177.695 542.484)" style="fill:#4b9f73"/><rect x="149.899" y="528.352" width="17.355" height="5.344" transform="rotate(-90.102 158.574 531.023)" style="fill:#4b9f73"/><rect x="149.937" y="551.604" width="17.355" height="5.344" transform="rotate(-90.102 158.612 554.275)" style="fill:#4b9f73"/><rect x="188.104" y="528.022" width="17.355" height="5.344" transform="rotate(-90.102 196.779 530.693)" style="fill:#4b9f73"/><rect x="188.142" y="551.275" width="17.355" height="5.344" transform="rotate(-90.102 196.816 553.945)" style="fill:#4b9f73"/><g id="label_R.406"><rect x="169.219" y="585.75" width="48.342" height="11.314" rx="5.657" ry="5.657" transform="rotate(-.102 192.709 588.858)" style="fill:#11a6d8;filter:url(#drop-shadow-1)"/><g style="isolation:isolate"><text transform="rotate(-.101 337123.732 -98810.43)" style="font-size:7.359px;font-family:OpenSans-Semibold,'Open Sans';font-weight:600;fill:#fff"><tspan x="0" y="0">Teal Room</tspan></text></g></g><g id="label_R.406-2" data-name="label_R.406"><rect x="268.352" y="585.75" width="54.391" height="11.314" rx="5.657" ry="5.657" style="filter:url(#drop-shadow-2);fill:#11a6d8"/><g style="isolation:isolate"><text transform="translate(273.372 594.08)" style="font-size:7.359px;font-family:OpenSans-Semibold,'Open Sans';font-weight:600;fill:#fff"><tspan x="0" y="0">Green Room</tspan></text></g></g><g id="label_R.406-3" data-name="label_R.406"><rect x="350.782" y="585.75" width="55.587" height="11.314" rx="5.657" ry="5.657" style="filter:url(#drop-shadow-3);fill:#11a6d8"/><g style="isolation:isolate"><text transform="translate(355.65 594.061)" style="font-size:7.359px;font-family:OpenSans-Semibold,'Open Sans';font-weight:600;fill:#fff"><tspan x="0" y="0">Yellow Room</tspan></text></g></g><g id="label_R.406-4" data-name="label_R.406"><rect x="434.003" y="431.572" width="39.792" height="20.011" rx="6.163" ry="6.163" style="filter:url(#drop-shadow-4);fill:#f16235"/><g style="isolation:isolate"><text transform="translate(441.106 439.879)" style="font-size:7.359px;font-family:OpenSans-Semibold,'Open Sans';font-weight:600;fill:#fff"><tspan x="0" y="0">Project</tspan><tspan x="2.147" y="8.83">Room</tspan></text></g></g><g id="label_R.406-5" data-name="label_R.406"><rect x="416.297" y="294.912" width="47.353" height="11.314" rx="5.657" ry="5.657" style="filter:url(#drop-shadow-5);fill:#f16235"/><g style="isolation:isolate"><text transform="translate(421.888 303.222)" style="font-size:7.359px;font-family:OpenSans-Semibold,'Open Sans';font-weight:600;fill:#fff"><tspan x="0" y="0">Workshop</tspan></text></g></g><g id="label_R.406-6" data-name="label_R.406"><rect x="175.141" y="394.19" width="47.353" height="11.314" rx="5.657" ry="5.657" transform="rotate(-.102 197.934 397.877)" style="filter:url(#drop-shadow-6);fill:#f16235"/><g style="isolation:isolate"><text transform="rotate(-.101 228455.563 -102509.605)" style="font-size:7.359px;font-family:OpenSans-Semibold,'Open Sans';font-weight:600;fill:#fff"><tspan x="0" y="0">Reception</tspan></text></g></g><g id="label_R.406-7" data-name="label_R.406"><rect x="159.635" y="228.217" width="42.253" height="21.199" rx="6.4" ry="6.4" transform="rotate(-.102 180.102 237.77)" style="fill:#f16235;filter:url(#drop-shadow-7)"/><g style="isolation:isolate"><text transform="rotate(-.101 134286.674 -94665.928)" style="font-size:7.359px;font-family:OpenSans-Semibold,'Open Sans';font-weight:600;fill:#fff"><tspan x="0" y="0">Comms</tspan><tspan x="3.042" y="8.83">Room</tspan></text></g></g><g id="label_R.406-8" data-name="label_R.406"><rect x="220.353" y="235.532" width="37.176" height="21.173" rx="5.999" ry="5.999" transform="rotate(-.102 237.953 245.123)" style="filter:url(#drop-shadow-8);fill:#f16235"/><g style="isolation:isolate"><text transform="rotate(-.101 138463.446 -128608.028)" style="font-size:7.359px;font-family:OpenSans-Semibold,'Open Sans';font-weight:600;fill:#fff"><tspan x="0" y="0">Secure</tspan><tspan x="2.583" y="8.83">Store</tspan></text></g></g><g id="label_R.406-9" data-name="label_R.406"><rect x="291.675" y="267.064" width="40.67" height="11.314" rx="5.657" ry="5.657" transform="rotate(-.102 310.391 271.589)" style="filter:url(#drop-shadow-9);fill:#f16235"/><g style="isolation:isolate"><text transform="rotate(-.101 156394.34 -168029.894)" style="font-size:7.359px;font-family:OpenSans-Semibold,'Open Sans';font-weight:600;fill:#fff"><tspan x="0" y="0">Goods in</tspan></text></g></g><g id="label_R.406-10" data-name="label_R.406"><rect x="599.113" y="191.409" width="56.933" height="11.314" rx="5.657" ry="5.657" style="filter:url(#drop-shadow-10);fill:#f16235"/><g style="isolation:isolate"><text transform="translate(607.428 199.718)" style="font-size:7.359px;font-family:OpenSans-Semibold,'Open Sans';font-weight:600;fill:#fff"><tspan x="0" y="0">Warehouse</tspan></text></g></g><g id="label_R.406-11" data-name="label_R.406"><rect x="62.908" y="59.075" width="59.294" height="11.314" rx="5.657" ry="5.657" style="filter:url(#drop-shadow-11);fill:#f16235"/><g style="isolation:isolate"><text transform="translate(70.985 67.385)" style="font-size:7.359px;font-family:OpenSans-Semibold,'Open Sans';font-weight:600;fill:#fff"><tspan x="0" y="0">Loading Bay</tspan></text></g></g><g id="label_R.406-12" data-name="label_R.406"><rect x="577.063" y="513.802" width="33.162" height="11.314" rx="5.657" ry="5.657" style="filter:url(#drop-shadow-12);fill:#f16235"/><g style="isolation:isolate"><text transform="translate(587.22 522.111)" style="font-size:7.359px;font-family:OpenSans-Semibold,'Open Sans';font-weight:600;fill:#fff"><tspan x="0" y="0">Lab</tspan></text></g></g><circle cx="59.116" cy="528.903" r="13.955" transform="rotate(-80.783 59.114 528.9)" style="stroke-width:1.174px;stroke:#fff;stroke-linecap:square;stroke-linejoin:round;fill:none"/><path d="M60.659 539.186v-6.17h3.084l-2.617-7.846a2.051 2.051 0 0 0-1.948-1.41h-.118c-.884 0-1.672.566-1.948 1.41l-2.622 7.846h3.084v6.17h3.086Zm-1.543-16.453a2.057 2.057 0 1 0 0-4.114 2.057 2.057 0 0 0 0 4.114" style="fill:#fff"/><circle cx="94.998" cy="528.903" r="13.955" transform="rotate(-85.935 94.998 528.903)" style="stroke-width:1.174px;stroke:#fff;stroke-linecap:square;stroke-linejoin:round;fill:none"/><path d="M92.941 539.186v-7.713h-1.542v-5.656c0-1.131.925-2.057 2.056-2.057h3.085c1.131 0 2.056.926 2.056 2.057v5.656h-1.542v7.713H92.94Zm2.057-16.453a2.057 2.057 0 1 0 0-4.114 2.057 2.057 0 0 0 0 4.114" style="fill:#fff"/></g><g id="Walls"><polyline points="8.017 404.405 8.017 612.727 782.822 612.727 782.822 27.53 281.572 27.53 281.572 8.017 8.017 8.017 8.017 336.84" style="fill-rule:evenodd;stroke-miterlimit:10;fill:none;stroke:#11a6d8;stroke-width:10px"/><line x1="419.944" y1="456.362" x2="419.944" y2="596.704" style="stroke-width:3.998px;stroke:#525a5c;stroke-miterlimit:10;fill:none"/><polyline points="589.558 413.94 419.944 413.94 419.944 432.817" style="stroke-width:3.998px;stroke:#525a5c;stroke-miterlimit:10;fill:none"/><polyline points="713.633 603.648 713.633 413.94 636.648 413.94" style="stroke-width:3.998px;stroke:#525a5c;stroke-miterlimit:10;fill:none"/><polyline points="387.095 475.239 419.944 475.239 419.944 603.648" style="stroke-width:3.998px;stroke:#525a5c;stroke-miterlimit:10;fill:none"/><line x1="329.222" y1="475.239" x2="363.55" y2="475.239" style="stroke-width:3.998px;stroke:#525a5c;stroke-miterlimit:10;fill:none"/><line x1="245.241" y1="475.239" x2="305.793" y2="475.239" style="stroke-width:3.998px;stroke:#525a5c;stroke-miterlimit:10;fill:none"/><polyline points="133.067 603.648 133.067 475.239 221.696 475.239" style="stroke-width:3.998px;stroke:#525a5c;stroke-miterlimit:10;fill:none"/><line x1="510.939" y1="580.103" x2="510.939" y2="413.94" style="stroke-width:3.998px;stroke:#525a5c;stroke-miterlimit:10;fill:none"/><line x1="336.851" y1="603.648" x2="336.851" y2="475.239" style="stroke-width:3.998px;stroke:#525a5c;stroke-miterlimit:10;fill:none"/><line x1="254.302" y1="603.648" x2="254.302" y2="475.239" style="stroke-width:3.998px;stroke:#525a5c;stroke-miterlimit:10;fill:none"/><line x1="133.067" y1="468.155" x2="133.067" y2="475.239" style="stroke-width:3.998px;stroke:#525a5c;stroke-miterlimit:10;fill:none"/><polyline points="124.349 404.405 133.067 404.405 133.067 445.271" style="stroke-width:3.998px;stroke:#525a5c;stroke-miterlimit:10;fill:none"/><line x1="17.056" y1="404.405" x2="100.919" y2="404.405" style="stroke-width:3.998px;stroke:#525a5c;stroke-miterlimit:10;fill:none"/><line x1="17.056" y1="437.37" x2="133.067" y2="437.37" style="stroke-width:3.998px;stroke:#525a5c;stroke-miterlimit:10;fill:none"/><line x1="344.958" y1="413.94" x2="419.944" y2="413.94" style="stroke-width:3.998px;stroke:#525a5c;stroke-miterlimit:10;fill:none"/><polyline points="151.593 284.532 268.469 284.532 268.469 413.94 321.413 413.94" style="stroke-width:3.998px;stroke:#525a5c;stroke-miterlimit:10;fill:none"/><line x1="268.469" y1="260.524" x2="268.469" y2="284.532" style="stroke:#525a5c;stroke-width:4.08px;stroke-miterlimit:10;fill:none"/><polyline points="209.436 284.532 209.436 207.705 268.469 207.705 268.469 236.979" style="stroke:#525a5c;stroke-width:4.08px;stroke-miterlimit:10;fill:none"/><line x1="100.919" y1="336.84" x2="17.056" y2="336.84" style="stroke:#525a5c;stroke-width:4.08px;stroke-miterlimit:10;fill:none"/><polyline points="140.072 186.454 151.593 186.454 151.593 336.84 124.349 336.84" style="stroke:#525a5c;stroke-width:4.08px;stroke-miterlimit:10;fill:none"/><line x1="42.812" y1="186.454" x2="116.527" y2="186.454" style="stroke:#525a5c;stroke-width:4.08px;stroke-miterlimit:10;fill:none"/><polyline points="51.336 186.454 51.336 303.603 17.056 303.603" style="stroke:#525a5c;stroke-width:4.08px;stroke-miterlimit:10;fill:none"/><line x1="160.389" y1="186.454" x2="151.593" y2="186.454" style="stroke:#525a5c;stroke-width:4.08px;stroke-miterlimit:10;fill:none"/><polyline points="209.436 207.705 209.436 186.454 183.934 186.454" style="stroke:#525a5c;stroke-width:4.08px;stroke-miterlimit:10;fill:none"/><rect x="426.94" y="337.658" width="8.106" height="160.671" transform="rotate(-90 430.995 417.994)" style="fill:#525a5c"/><polyline points="411.268 186.454 361.661 186.454 361.661 413.94" style="stroke-width:3.998px;stroke:#525a5c;stroke-miterlimit:10;fill:none"/><polyline points="510.939 358.85 510.939 186.454 458.358 186.454" style="stroke-width:3.998px;stroke:#525a5c;stroke-miterlimit:10;fill:none"/><line x1="510.939" y1="413.94" x2="510.939" y2="382.395" style="stroke-width:3.998px;stroke:#525a5c;stroke-miterlimit:10;fill:none"/><line x1="361.661" y1="186.454" x2="294.16" y2="186.454" style="stroke-width:3.998px;stroke:#525a5c;stroke-miterlimit:10;fill:none"/><line x1="268.469" y1="309.372" x2="283.453" y2="309.372" style="stroke-width:3.998px;stroke:#525a5c;stroke-miterlimit:10;fill:none"/><line x1="329.222" y1="309.372" x2="361.661" y2="309.372" style="stroke-width:3.998px;stroke:#525a5c;stroke-miterlimit:10;fill:none"/><line x1="70.584" y1="125.792" x2="17.056" y2="125.792" style="stroke:#525a5c;stroke-width:4.08px;stroke-miterlimit:10;fill:none"/><line x1="148.617" y1="125.792" x2="117.674" y2="125.792" style="stroke:#525a5c;stroke-width:4.08px;stroke-miterlimit:10;fill:none"/><polyline points="300.151 117.255 300.151 125.792 172.162 125.792" style="stroke:#525a5c;stroke-width:4.08px;stroke-miterlimit:10;fill:none"/><line x1="300.151" y1="36.568" x2="300.151" y2="88.903" style="stroke:#525a5c;stroke-width:4.08px;stroke-miterlimit:10;fill:none"/><polyline points="183.934 41.187 183.934 31.346 272.508 31.346" style="stroke:#525a5c;stroke-width:4.08px;stroke-miterlimit:10;fill:none"/><line x1="183.934" y1="125.792" x2="183.934" y2="64.732" style="stroke:#525a5c;stroke-width:4.08px;stroke-miterlimit:10;fill:none"/><line x1="268.469" y1="207.705" x2="268.469" y2="184.638" style="stroke:#525a5c;stroke-width:4.08px;stroke-miterlimit:10;fill:none"/><rect x="230.481" y="169.684" width="16.972" height="46.88" transform="rotate(-90 238.967 193.124)" style="fill:#525a5c"/><path d="M239.347 182.025c6.13-.011 11.108 4.949 11.119 11.08.011 6.129-4.949 11.107-11.08 11.118s-11.108-4.949-11.119-11.078c-.011-6.13 4.951-11.108 11.08-11.119Z" style="fill:#525a5c"/><path d="M239.349 183.261c5.439-.01 9.871 4.407 9.881 9.846s-4.407 9.87-9.846 9.88-9.872-4.407-9.881-9.845 4.407-9.872 9.846-9.881m-.002-1.236c-6.129.011-11.091 4.989-11.08 11.119s4.99 11.089 11.119 11.078 11.09-4.989 11.08-11.118-4.989-11.091-11.119-11.08Z" style="fill:#fff"/><text transform="rotate(-.101 112202.898 -131433.563)" style="font-family:FontAwesome5Pro-Solid,'Font Awesome 5 Pro';font-size:12px;fill:#fff"><tspan x="0" y="0"></tspan></text></g></svg>