<svg width="982" height="771" viewBox="0 0 982 771" fill="none" xmlns="http://www.w3.org/2000/svg">
<g id="floor0-lights">
<g id="Group 1">
<g id="Lights-Single-Circle-134:280">
<rect x="122.5" y="358.5" width="17" height="17" rx="8.5" fill="#2A3138"/>
<rect x="122.5" y="358.5" width="17" height="17" rx="8.5" stroke="#FBBF24"/>
<ellipse id="light-widget" cx="131" cy="367" rx="6" ry="6" transform="rotate(-90 131 367)" fill="#4A4F55" stroke="#4A4F55" stroke-width="0.559238" stroke-linejoin="round"/>
</g>
<g id="Lights-Single-Circle-134:301">
<rect x="122.5" y="282.5" width="17" height="17" rx="8.5" fill="#2A3138"/>
<rect x="122.5" y="282.5" width="17" height="17" rx="8.5" stroke="#FBBF24"/>
<ellipse id="light-widget_2" cx="131" cy="291" rx="6" ry="6" transform="rotate(-90 131 291)" fill="#4A4F55" stroke="#4A4F55" stroke-width="0.559238" stroke-linejoin="round"/>
</g>
</g>
<g id="Lights-Single-Circle-134:343">
<rect x="213.5" y="281.5" width="17" height="17" rx="8.5" fill="#2A3138"/>
<rect x="213.5" y="281.5" width="17" height="17" rx="8.5" stroke="#FBBF24"/>
<ellipse id="light-widget_3" cx="222" cy="290" rx="6" ry="6" transform="rotate(-90 222 290)" fill="#4A4F55" stroke="#4A4F55" stroke-width="0.559238" stroke-linejoin="round"/>
</g>
<g id="Lights-Single-Circle-134:364">
<rect x="286.5" y="295.5" width="17" height="17" rx="8.5" fill="#2A3138"/>
<rect x="286.5" y="295.5" width="17" height="17" rx="8.5" stroke="#FBBF24"/>
<ellipse id="light-widget_4" cx="295" cy="304" rx="6" ry="6" transform="rotate(-90 295 304)" fill="#4A4F55" stroke="#4A4F55" stroke-width="0.559238" stroke-linejoin="round"/>
</g>
<g id="Group 11">
<g id="Lights-Single-Circle-134:637">
<rect x="842.5" y="557.5" width="17" height="17" rx="8.5" fill="#2A3138"/>
<rect x="842.5" y="557.5" width="17" height="17" rx="8.5" stroke="#FBBF24"/>
<ellipse id="light-widget_5" cx="851" cy="566" rx="6" ry="6" transform="rotate(-90 851 566)" fill="#4A4F55" stroke="#4A4F55" stroke-width="0.559238" stroke-linejoin="round"/>
</g>
<g id="Lights-Single-Circle-134:679">
<rect x="842.5" y="626.5" width="17" height="17" rx="8.5" fill="#2A3138"/>
<rect x="842.5" y="626.5" width="17" height="17" rx="8.5" stroke="#FBBF24"/>
<ellipse id="light-widget_6" cx="851" cy="635" rx="6" ry="6" transform="rotate(-90 851 635)" fill="#4A4F55" stroke="#4A4F55" stroke-width="0.559238" stroke-linejoin="round"/>
</g>
<g id="Lights-Single-Circle-134:721">
<rect x="842.5" y="692.5" width="17" height="17" rx="8.5" fill="#2A3138"/>
<rect x="842.5" y="692.5" width="17" height="17" rx="8.5" stroke="#FBBF24"/>
<ellipse id="light-widget_7" cx="851" cy="701" rx="6" ry="6" transform="rotate(-90 851 701)" fill="#4A4F55" stroke="#4A4F55" stroke-width="0.559238" stroke-linejoin="round"/>
</g>
</g>
<g id="Group 3">
<g id="Lights-Single-Circle-134:1120">
<rect x="380.5" y="307.5" width="17" height="17" rx="8.5" fill="#2A3138"/>
<rect x="380.5" y="307.5" width="17" height="17" rx="8.5" stroke="#FBBF24"/>
<ellipse id="light-widget_8" cx="389" cy="316" rx="6" ry="6" transform="rotate(-90 389 316)" fill="#4A4F55" stroke="#4A4F55" stroke-width="0.559238" stroke-linejoin="round"/>
</g>
<g id="Lights-Single-Circle-134:1141">
<rect x="379.5" y="376.5" width="17" height="17" rx="8.5" fill="#2A3138"/>
<rect x="379.5" y="376.5" width="17" height="17" rx="8.5" stroke="#FBBF24"/>
<ellipse id="light-widget_9" cx="388" cy="385" rx="6" ry="6" transform="rotate(-90 388 385)" fill="#4A4F55" stroke="#4A4F55" stroke-width="0.559238" stroke-linejoin="round"/>
</g>
<g id="Lights-Single-Circle-134:1162">
<rect x="378.5" y="443.5" width="17" height="17" rx="8.5" fill="#2A3138"/>
<rect x="378.5" y="443.5" width="17" height="17" rx="8.5" stroke="#FBBF24"/>
<ellipse id="light-widget_10" cx="387" cy="452" rx="6" ry="6" transform="rotate(-90 387 452)" fill="#4A4F55" stroke="#4A4F55" stroke-width="0.559238" stroke-linejoin="round"/>
</g>
</g>
<g id="Group 2">
<g id="Lights-Single-Circle-134:511">
<rect x="575.5" y="292.5" width="17" height="17" rx="8.5" fill="#2A3138"/>
<rect x="575.5" y="292.5" width="17" height="17" rx="8.5" stroke="#FBBF24"/>
<ellipse id="light-widget_11" cx="584" cy="301" rx="6" ry="6" transform="rotate(-90 584 301)" fill="#4A4F55" stroke="#4A4F55" stroke-width="0.559238" stroke-linejoin="round"/>
</g>
<g id="Lights-Single-Circle-134:553">
<rect x="575.5" y="362.5" width="17" height="17" rx="8.5" fill="#2A3138"/>
<rect x="575.5" y="362.5" width="17" height="17" rx="8.5" stroke="#FBBF24"/>
<ellipse id="light-widget_12" cx="584" cy="371" rx="6" ry="6" transform="rotate(-90 584 371)" fill="#4A4F55" stroke="#4A4F55" stroke-width="0.559238" stroke-linejoin="round"/>
</g>
<g id="Lights-Single-Circle-134:595">
<rect x="575.5" y="428.5" width="17" height="17" rx="8.5" fill="#2A3138"/>
<rect x="575.5" y="428.5" width="17" height="17" rx="8.5" stroke="#FBBF24"/>
<ellipse id="light-widget_13" cx="584" cy="437" rx="6" ry="6" transform="rotate(-90 584 437)" fill="#4A4F55" stroke="#4A4F55" stroke-width="0.559238" stroke-linejoin="round"/>
</g>
<g id="Lights-Single-Circle-134:512">
<rect x="500.5" y="292.5" width="17" height="17" rx="8.5" fill="#2A3138"/>
<rect x="500.5" y="292.5" width="17" height="17" rx="8.5" stroke="#FBBF24"/>
<ellipse id="light-widget_14" cx="509" cy="301" rx="6" ry="6" transform="rotate(-90 509 301)" fill="#4A4F55" stroke="#4A4F55" stroke-width="0.559238" stroke-linejoin="round"/>
</g>
<g id="Lights-Single-Circle-134:554">
<rect x="500.5" y="362.5" width="17" height="17" rx="8.5" fill="#2A3138"/>
<rect x="500.5" y="362.5" width="17" height="17" rx="8.5" stroke="#FBBF24"/>
<ellipse id="light-widget_15" cx="509" cy="371" rx="6" ry="6" transform="rotate(-90 509 371)" fill="#4A4F55" stroke="#4A4F55" stroke-width="0.559238" stroke-linejoin="round"/>
</g>
<g id="Lights-Single-Circle-134:596">
<rect x="500.5" y="428.5" width="17" height="17" rx="8.5" fill="#2A3138"/>
<rect x="500.5" y="428.5" width="17" height="17" rx="8.5" stroke="#FBBF24"/>
<ellipse id="light-widget_16" cx="509" cy="437" rx="6" ry="6" transform="rotate(-90 509 437)" fill="#4A4F55" stroke="#4A4F55" stroke-width="0.559238" stroke-linejoin="round"/>
</g>
</g>
<g id="Group 5">
<g id="Lights-Single-Circle-134:889">
<rect x="465.5" y="546.5" width="17" height="17" rx="8.5" fill="#2A3138"/>
<rect x="465.5" y="546.5" width="17" height="17" rx="8.5" stroke="#FBBF24"/>
<ellipse id="light-widget_17" cx="474" cy="555" rx="6" ry="6" transform="rotate(-90 474 555)" fill="#4A4F55" stroke="#4A4F55" stroke-width="0.559238" stroke-linejoin="round"/>
</g>
<g id="Lights-Single-Circle-134:952">
<rect x="344.5" y="546.5" width="17" height="17" rx="8.5" fill="#2A3138"/>
<rect x="344.5" y="546.5" width="17" height="17" rx="8.5" stroke="#FBBF24"/>
<ellipse id="light-widget_18" cx="353" cy="555" rx="6" ry="6" transform="rotate(-90 353 555)" fill="#4A4F55" stroke="#4A4F55" stroke-width="0.559238" stroke-linejoin="round"/>
</g>
<g id="Lights-Single-Circle-134:1015">
<rect x="223.5" y="546.5" width="17" height="17" rx="8.5" fill="#2A3138"/>
<rect x="223.5" y="546.5" width="17" height="17" rx="8.5" stroke="#FBBF24"/>
<ellipse id="light-widget_19" cx="232" cy="555" rx="6" ry="6" transform="rotate(-90 232 555)" fill="#4A4F55" stroke="#4A4F55" stroke-width="0.559238" stroke-linejoin="round"/>
</g>
</g>
<g id="Group 10">
<g id="Lights-Single-Circle-134:638">
<rect x="767.5" y="557.5" width="17" height="17" rx="8.5" fill="#2A3138"/>
<rect x="767.5" y="557.5" width="17" height="17" rx="8.5" stroke="#FBBF24"/>
<ellipse id="light-widget_20" cx="776" cy="566" rx="6" ry="6" transform="rotate(-90 776 566)" fill="#4A4F55" stroke="#4A4F55" stroke-width="0.559238" stroke-linejoin="round"/>
</g>
<g id="Lights-Single-Circle-134:763">
<rect x="692.5" y="557.5" width="17" height="17" rx="8.5" fill="#2A3138"/>
<rect x="692.5" y="557.5" width="17" height="17" rx="8.5" stroke="#FBBF24"/>
<ellipse id="light-widget_21" cx="701" cy="566" rx="6" ry="6" transform="rotate(-90 701 566)" fill="#4A4F55" stroke="#4A4F55" stroke-width="0.559238" stroke-linejoin="round"/>
</g>
<g id="Lights-Single-Circle-134:680">
<rect x="767.5" y="626.5" width="17" height="17" rx="8.5" fill="#2A3138"/>
<rect x="767.5" y="626.5" width="17" height="17" rx="8.5" stroke="#FBBF24"/>
<ellipse id="light-widget_22" cx="776" cy="635" rx="6" ry="6" transform="rotate(-90 776 635)" fill="#4A4F55" stroke="#4A4F55" stroke-width="0.559238" stroke-linejoin="round"/>
</g>
<g id="Lights-Single-Circle-134:764">
<rect x="692.5" y="626.5" width="17" height="17" rx="8.5" fill="#2A3138"/>
<rect x="692.5" y="626.5" width="17" height="17" rx="8.5" stroke="#FBBF24"/>
<ellipse id="light-widget_23" cx="701" cy="635" rx="6" ry="6" transform="rotate(-90 701 635)" fill="#4A4F55" stroke="#4A4F55" stroke-width="0.559238" stroke-linejoin="round"/>
</g>
<g id="Lights-Single-Circle-134:722">
<rect x="767.5" y="692.5" width="17" height="17" rx="8.5" fill="#2A3138"/>
<rect x="767.5" y="692.5" width="17" height="17" rx="8.5" stroke="#FBBF24"/>
<ellipse id="light-widget_24" cx="776" cy="701" rx="6" ry="6" transform="rotate(-90 776 701)" fill="#4A4F55" stroke="#4A4F55" stroke-width="0.559238" stroke-linejoin="round"/>
</g>
<g id="Lights-Single-Circle-134:765">
<rect x="692.5" y="692.5" width="17" height="17" rx="8.5" fill="#2A3138"/>
<rect x="692.5" y="692.5" width="17" height="17" rx="8.5" stroke="#FBBF24"/>
<ellipse id="light-widget_25" cx="701" cy="701" rx="6" ry="6" transform="rotate(-90 701 701)" fill="#4A4F55" stroke="#4A4F55" stroke-width="0.559238" stroke-linejoin="round"/>
</g>
</g>
<g id="Group 9">
<g id="Lights-Single-Circle-134:826">
<rect x="569.5" y="556.5" width="17" height="17" rx="8.5" fill="#2A3138"/>
<rect x="569.5" y="556.5" width="17" height="17" rx="8.5" stroke="#FBBF24"/>
<ellipse id="light-widget_26" cx="578" cy="565" rx="6" ry="6" transform="rotate(-90 578 565)" fill="#4A4F55" stroke="#4A4F55" stroke-width="0.559238" stroke-linejoin="round"/>
</g>
<g id="Lights-Single-Circle-134:827">
<rect x="569.5" y="625.5" width="17" height="17" rx="8.5" fill="#2A3138"/>
<rect x="569.5" y="625.5" width="17" height="17" rx="8.5" stroke="#FBBF24"/>
<ellipse id="light-widget_27" cx="578" cy="634" rx="6" ry="6" transform="rotate(-90 578 634)" fill="#4A4F55" stroke="#4A4F55" stroke-width="0.559238" stroke-linejoin="round"/>
</g>
<g id="Lights-Single-Circle-134:828">
<rect x="569.5" y="691.5" width="17" height="17" rx="8.5" fill="#2A3138"/>
<rect x="569.5" y="691.5" width="17" height="17" rx="8.5" stroke="#FBBF24"/>
<ellipse id="light-widget_28" cx="578" cy="700" rx="6" ry="6" transform="rotate(-90 578 700)" fill="#4A4F55" stroke="#4A4F55" stroke-width="0.559238" stroke-linejoin="round"/>
</g>
</g>
<g id="Group 8">
<g id="Lights-Single-Circle-134:890">
<rect x="465.5" y="626.5" width="17" height="17" rx="8.5" fill="#2A3138"/>
<rect x="465.5" y="626.5" width="17" height="17" rx="8.5" stroke="#FBBF24"/>
<ellipse id="light-widget_29" cx="474" cy="635" rx="6" ry="6" transform="rotate(-90 474 635)" fill="#4A4F55" stroke="#4A4F55" stroke-width="0.559238" stroke-linejoin="round"/>
</g>
<g id="Lights-Single-Circle-134:891">
<rect x="465.5" y="692.5" width="17" height="17" rx="8.5" fill="#2A3138"/>
<rect x="465.5" y="692.5" width="17" height="17" rx="8.5" stroke="#FBBF24"/>
<ellipse id="light-widget_30" cx="474" cy="701" rx="6" ry="6" transform="rotate(-90 474 701)" fill="#4A4F55" stroke="#4A4F55" stroke-width="0.559238" stroke-linejoin="round"/>
</g>
</g>
<g id="Group 7">
<g id="Lights-Single-Circle--134:953">
<rect x="360.5" y="626.5" width="17" height="17" rx="8.5" fill="#2A3138"/>
<rect x="360.5" y="626.5" width="17" height="17" rx="8.5" stroke="#FBBF24"/>
<ellipse id="light-widget_31" cx="369" cy="635" rx="6" ry="6" transform="rotate(-90 369 635)" fill="#4A4F55" stroke="#4A4F55" stroke-width="0.559238" stroke-linejoin="round"/>
</g>
<g id="Lights-Single-Circle-134:954">
<rect x="360.5" y="692.5" width="17" height="17" rx="8.5" fill="#2A3138"/>
<rect x="360.5" y="692.5" width="17" height="17" rx="8.5" stroke="#FBBF24"/>
<ellipse id="light-widget_32" cx="369" cy="701" rx="6" ry="6" transform="rotate(-90 369 701)" fill="#4A4F55" stroke="#4A4F55" stroke-width="0.559238" stroke-linejoin="round"/>
</g>
</g>
<g id="Group 6">
<g id="Lights-Single-Circle-134:1016">
<rect x="265.5" y="626.5" width="17" height="17" rx="8.5" fill="#2A3138"/>
<rect x="265.5" y="626.5" width="17" height="17" rx="8.5" stroke="#FBBF24"/>
<ellipse id="light-widget_33" cx="274" cy="635" rx="6" ry="6" transform="rotate(-90 274 635)" fill="#4A4F55" stroke="#4A4F55" stroke-width="0.559238" stroke-linejoin="round"/>
</g>
<g id="Lights-Single-Circle-134:1078">
<rect x="199.5" y="626.5" width="17" height="17" rx="8.5" fill="#2A3138"/>
<rect x="199.5" y="626.5" width="17" height="17" rx="8.5" stroke="#FBBF24"/>
<ellipse id="light-widget_34" cx="208" cy="635" rx="6" ry="6" transform="rotate(-90 208 635)" fill="#4A4F55" stroke="#4A4F55" stroke-width="0.559238" stroke-linejoin="round"/>
</g>
<g id="Lights-Single-Circle-134:1017">
<rect x="265.5" y="692.5" width="17" height="17" rx="8.5" fill="#2A3138"/>
<rect x="265.5" y="692.5" width="17" height="17" rx="8.5" stroke="#FBBF24"/>
<ellipse id="light-widget_35" cx="274" cy="701" rx="6" ry="6" transform="rotate(-90 274 701)" fill="#4A4F55" stroke="#4A4F55" stroke-width="0.559238" stroke-linejoin="round"/>
</g>
<g id="Lights-Single-Circle-134:1079">
<rect x="199.5" y="692.5" width="17" height="17" rx="8.5" fill="#2A3138"/>
<rect x="199.5" y="692.5" width="17" height="17" rx="8.5" stroke="#FBBF24"/>
<ellipse id="light-widget_36" cx="208" cy="701" rx="6" ry="6" transform="rotate(-90 208 701)" fill="#4A4F55" stroke="#4A4F55" stroke-width="0.559238" stroke-linejoin="round"/>
</g>
</g>
<g id="Group 4">
<g id="Lights-Single-Circle-134:385">
<rect x="283.5" y="393.5" width="17" height="17" rx="8.5" fill="#2A3138"/>
<rect x="283.5" y="393.5" width="17" height="17" rx="8.5" stroke="#FBBF24"/>
<ellipse id="light-widget_37" cx="292" cy="402" rx="6" ry="6" transform="rotate(-90 292 402)" fill="#4A4F55" stroke="#4A4F55" stroke-width="0.559238" stroke-linejoin="round"/>
</g>
<g id="Lights-Single-Circle-134:427">
<rect x="283.5" y="452.5" width="17" height="17" rx="8.5" fill="#2A3138"/>
<rect x="283.5" y="452.5" width="17" height="17" rx="8.5" stroke="#FBBF24"/>
<ellipse id="light-widget_38" cx="292" cy="461" rx="6" ry="6" transform="rotate(-90 292 461)" fill="#4A4F55" stroke="#4A4F55" stroke-width="0.559238" stroke-linejoin="round"/>
</g>
<g id="Lights-Single-Circle-134:406">
<rect x="223.5" y="393.5" width="17" height="17" rx="8.5" fill="#2A3138"/>
<rect x="223.5" y="393.5" width="17" height="17" rx="8.5" stroke="#FBBF24"/>
<ellipse id="light-widget_39" cx="232" cy="402" rx="6" ry="6" transform="rotate(-90 232 402)" fill="#4A4F55" stroke="#4A4F55" stroke-width="0.559238" stroke-linejoin="round"/>
</g>
<g id="Lights-Single-Circle-134:428">
<rect x="223.5" y="452.5" width="17" height="17" rx="8.5" fill="#2A3138"/>
<rect x="223.5" y="452.5" width="17" height="17" rx="8.5" stroke="#FBBF24"/>
<ellipse id="light-widget_40" cx="232" cy="461" rx="6" ry="6" transform="rotate(-90 232 461)" fill="#4A4F55" stroke="#4A4F55" stroke-width="0.559238" stroke-linejoin="round"/>
</g>
</g>
<g id="Group 12">
<g id="Lights-Single-Circle-134:469">
<rect x="122.5" y="453.5" width="17" height="17" rx="8.5" fill="#2A3138"/>
<rect x="122.5" y="453.5" width="17" height="17" rx="8.5" stroke="#FBBF24"/>
<ellipse id="light-widget_41" cx="131" cy="462" rx="6" ry="6" transform="rotate(-90 131 462)" fill="#4A4F55" stroke="#4A4F55" stroke-width="0.559238" stroke-linejoin="round"/>
</g>
<g id="Lights-Single-Circle-134:470">
<rect x="53.5" y="453.5" width="17" height="17" rx="8.5" fill="#2A3138"/>
<rect x="53.5" y="453.5" width="17" height="17" rx="8.5" stroke="#FBBF24"/>
<ellipse id="light-widget_42" cx="62" cy="462" rx="6" ry="6" transform="rotate(-90 62 462)" fill="#4A4F55" stroke="#4A4F55" stroke-width="0.559238" stroke-linejoin="round"/>
</g>
</g>
<g id="Lights-Strip">
<path id="Line 3" d="M617 294C617 292.895 616.105 292 615 292C613.895 292 613 292.895 613 294L617 294ZM617 443L617 294L613 294L613 443L617 443Z" fill="#FBBF24"/>
<circle id="Ellipse 6" cx="615" cy="443" r="7.5" fill="#2A3138" stroke="#FBBF24"/>
<ellipse id="light-widget_43" cx="615" cy="443" rx="6" ry="6" transform="rotate(-90 615 443)" fill="#4A4F55" stroke="#4A4F55" stroke-width="0.559238" stroke-linejoin="round"/>
</g>
<g id="Group 14">
<g id="Lights-Strip_2">
<path id="Line 3_2" d="M157.611 58C158.715 58 159.611 57.1046 159.611 56C159.611 54.8954 158.715 54 157.611 54L157.611 58ZM77.5575 58L157.611 58L157.611 54L77.5575 54L77.5575 58Z" fill="#FBBF24"/>
<circle id="Ellipse 6_2" cx="76" cy="56" r="7.5" fill="#2A3138" stroke="#FBBF24"/>
<ellipse id="light-widget_44" cx="76" cy="56" rx="6" ry="6" transform="rotate(-90 76 56)" fill="#4A4F55" stroke="#4A4F55" stroke-width="0.559238" stroke-linejoin="round"/>
</g>
<g id="Lights-Strip_3">
<path id="Line 3_3" d="M157.611 110C158.715 110 159.611 109.105 159.611 108C159.611 106.895 158.715 106 157.611 106L157.611 110ZM77.5575 110L157.611 110L157.611 106L77.5575 106L77.5575 110Z" fill="#FBBF24"/>
<circle id="Ellipse 6_3" cx="76" cy="108" r="7.5" fill="#2A3138" stroke="#FBBF24"/>
<ellipse id="light-widget_45" cx="76" cy="108" rx="6" ry="6" transform="rotate(-90 76 108)" fill="#4A4F55" stroke="#4A4F55" stroke-width="0.559238" stroke-linejoin="round"/>
</g>
</g>
<g id="Group 13">
<g id="Lights-Strip_4">
<path id="Line 3_4" d="M734 101C734 99.8954 733.105 99 732 99C730.895 99 730 99.8954 730 101L734 101ZM734 250L734 101L730 101L730 250L734 250Z" fill="#FBBF24"/>
<circle id="Ellipse 6_4" cx="732" cy="250" r="7.5" fill="#2A3138" stroke="#FBBF24"/>
<ellipse id="light-widget_46" cx="732" cy="250" rx="6" ry="6" transform="rotate(-90 732 250)" fill="#4A4F55" stroke="#4A4F55" stroke-width="0.559238" stroke-linejoin="round"/>
</g>
<g id="Lights-Strip_5">
<path id="Line 3_5" d="M734 318C734 316.895 733.105 316 732 316C730.895 316 730 316.895 730 318L734 318ZM734 467L734 318L730 318L730 467L734 467Z" fill="#FBBF24"/>
<circle id="Ellipse 6_5" cx="732" cy="467" r="7.5" fill="#2A3138" stroke="#FBBF24"/>
<ellipse id="light-widget_47" cx="732" cy="467" rx="6" ry="6" transform="rotate(-90 732 467)" fill="#4A4F55" stroke="#4A4F55" stroke-width="0.559238" stroke-linejoin="round"/>
</g>
<g id="Lights-Strip_6">
<path id="Line 3_6" d="M612.611 106C613.715 106 614.611 105.105 614.611 104C614.611 102.895 613.715 102 612.611 102L612.611 106ZM532.558 106L612.611 106L612.611 102L532.558 102L532.558 106Z" fill="#FBBF24"/>
<circle id="Ellipse 6_6" cx="531" cy="104" r="7.5" fill="#2A3138" stroke="#FBBF24"/>
<ellipse id="light-widget_48" cx="531" cy="104" rx="6" ry="6" transform="rotate(-90 531 104)" fill="#4A4F55" stroke="#4A4F55" stroke-width="0.559238" stroke-linejoin="round"/>
</g>
<g id="Lights-Strip_7">
<path id="Line 3_7" d="M612.611 158C613.715 158 614.611 157.105 614.611 156C614.611 154.895 613.715 154 612.611 154L612.611 158ZM532.558 158L612.611 158L612.611 154L532.558 154L532.558 158Z" fill="#FBBF24"/>
<circle id="Ellipse 6_7" cx="531" cy="156" r="7.5" fill="#2A3138" stroke="#FBBF24"/>
<ellipse id="light-widget_49" cx="531" cy="156" rx="6" ry="6" transform="rotate(-90 531 156)" fill="#4A4F55" stroke="#4A4F55" stroke-width="0.559238" stroke-linejoin="round"/>
</g>
<g id="Lights-Strip_8">
<path id="Line 3_8" d="M808 101C808 99.8954 807.105 99 806 99C804.895 99 804 99.8954 804 101L808 101ZM808 250L808 101L804 101L804 250L808 250Z" fill="#FBBF24"/>
<circle id="Ellipse 6_8" cx="806" cy="250" r="7.5" fill="#2A3138" stroke="#FBBF24"/>
<ellipse id="light-widget_50" cx="806" cy="250" rx="6" ry="6" transform="rotate(-90 806 250)" fill="#4A4F55" stroke="#4A4F55" stroke-width="0.559238" stroke-linejoin="round"/>
</g>
<g id="Lights-Strip_9">
<path id="Line 3_9" d="M808 318C808 316.895 807.105 316 806 316C804.895 316 804 316.895 804 318L808 318ZM808 467L808 318L804 318L804 467L808 467Z" fill="#FBBF24"/>
<circle id="Ellipse 6_9" cx="806" cy="467" r="7.5" fill="#2A3138" stroke="#FBBF24"/>
<ellipse id="light-widget_51" cx="806" cy="467" rx="6" ry="6" transform="rotate(-90 806 467)" fill="#4A4F55" stroke="#4A4F55" stroke-width="0.559238" stroke-linejoin="round"/>
</g>
<g id="Lights-Strip_10">
<path id="Line 3_10" d="M882 101C882 99.8954 881.105 99 880 99C878.895 99 878 99.8954 878 101L882 101ZM882 250L882 101L878 101L878 250L882 250Z" fill="#FBBF24"/>
<circle id="Ellipse 6_10" cx="880" cy="250" r="7.5" fill="#2A3138" stroke="#FBBF24"/>
<ellipse id="light-widget_52" cx="880" cy="250" rx="6" ry="6" transform="rotate(-90 880 250)" fill="#4A4F55" stroke="#4A4F55" stroke-width="0.559238" stroke-linejoin="round"/>
</g>
<g id="Lights-Strip_11">
<path id="Line 3_11" d="M882 318C882 316.895 881.105 316 880 316C878.895 316 878 316.895 878 318L882 318ZM882 467L882 318L878 318L878 467L882 467Z" fill="#FBBF24"/>
<circle id="Ellipse 6_11" cx="880" cy="467" r="7.5" fill="#2A3138" stroke="#FBBF24"/>
<ellipse id="light-widget_53" cx="880" cy="467" rx="6" ry="6" transform="rotate(-90 880 467)" fill="#4A4F55" stroke="#4A4F55" stroke-width="0.559238" stroke-linejoin="round"/>
</g>
</g>
</g>
</svg>
