<svg width="982" height="771" viewBox="0 0 982 771" fill="none" xmlns="http://www.w3.org/2000/svg">
<g id="BMS">
<path id="FCU-L00-02" d="M206 740.5H273C275.485 740.5 277.5 742.515 277.5 745V749.5H201.5V745C201.5 742.515 203.515 740.5 206 740.5Z" fill="#39A727" stroke="#32600E"/>
<path id="FCU-L00-01" d="M322.5 481L322.5 448C322.5 445.515 324.515 443.5 327 443.5L331.5 443.5L331.5 485.5L327 485.5C324.515 485.5 322.5 483.485 322.5 481Z" fill="#39A727" stroke="#32600E"/>
<path id="FCU-L00-03" d="M347 740.5H386C388.485 740.5 390.5 742.515 390.5 745V749.5H342.5V745C342.5 742.515 344.515 740.5 347 740.5Z" fill="#39A727" stroke="#32600E"/>
<path id="FCU-L00-04" d="M452 740.5H491C493.485 740.5 495.5 742.515 495.5 745V749.5H447.5V745C447.5 742.515 449.515 740.5 452 740.5Z" fill="#39A727" stroke="#32600E"/>
<path id="Pipes" d="M413 51V216.5C413 219.261 415.239 221.5 418 221.5H644C646.761 221.5 649 223.739 649 226.5V528M238.5 749.5V749.5C238.5 751.709 240.291 753.5 242.5 753.5H366M366 753.5V749.5M366 753.5H473M332 464H332.5C335.261 464 337.5 466.239 337.5 469V523C337.5 525.761 339.739 528 342.5 528H649M649 528V748.5C649 751.261 646.761 753.5 644 753.5H473M473 750V753.5" stroke="#215189" stroke-width="3"/>
</g>
</svg>
