<svg width="982" height="771" viewBox="0 0 982 771" fill="none" xmlns="http://www.w3.org/2000/svg">
<g id="floor0-lights">
<g id="LTF-L00-17">
<rect id="Rectangle 28" x="161.5" y="51.5" width="7" height="88" transform="rotate(90 161.5 51.5)" fill="#D9D9D9" stroke="#6E6E6E"/>
<rect id="Rectangle 29" x="161.5" y="103.5" width="7" height="88" transform="rotate(90 161.5 103.5)" fill="#D9D9D9" stroke="#6E6E6E"/>
</g>
<g id="LTF-L00-16">
<rect id="Rectangle 20" x="212.5" y="281.5" width="19" height="19" rx="4.5" fill="#DBD53A" stroke="#B0932D"/>
</g>
<g id="LTF-L00-15">
<rect id="Rectangle 17" x="379.5" y="375.5" width="19" height="19" rx="4.5" fill="#DBD53A" stroke="#B0932D"/>
<rect id="Rectangle 19" x="379.5" y="306.5" width="19" height="19" rx="4.5" fill="#DBD53A" stroke="#B0932D"/>
<rect id="Rectangle 18" x="379.5" y="442.5" width="19" height="19" rx="4.5" fill="#DBD53A" stroke="#B0932D"/>
</g>
<g id="LTF-L00-14">
<rect id="Rectangle 20_2" x="286.5" y="295.5" width="19" height="19" rx="4.5" fill="#DBD53A" stroke="#B0932D"/>
</g>
<g id="LTF-L00-13">
<rect id="Rect" x="613.5" y="294.5" width="7" height="152" fill="#D9D9D9" stroke="#6E6E6E"/>
</g>
<g id="LTF-L00-12">
<rect id="Rectangle 17_2" x="499.5" y="360.5" width="19" height="19" rx="4.5" fill="#DBD53A" stroke="#B0932D"/>
<rect id="Rectangle 19_2" x="499.5" y="291.5" width="19" height="19" rx="4.5" fill="#DBD53A" stroke="#B0932D"/>
<rect id="Rectangle 18_2" x="499.5" y="427.5" width="19" height="19" rx="4.5" fill="#DBD53A" stroke="#B0932D"/>
<rect id="Rectangle 17_3" x="575.5" y="360.5" width="19" height="19" rx="4.5" fill="#DBD53A" stroke="#B0932D"/>
<rect id="Rectangle 19_3" x="575.5" y="291.5" width="19" height="19" rx="4.5" fill="#DBD53A" stroke="#B0932D"/>
<rect id="Rectangle 18_3" x="575.5" y="427.5" width="19" height="19" rx="4.5" fill="#DBD53A" stroke="#B0932D"/>
</g>
<g id="LTF-L00-11">
<rect id="Rectangle 20_3" x="730.5" y="315.5" width="7" height="152" fill="#D9D9D9" stroke="#6E6E6E"/>
<rect id="Rectangle 23" x="730.5" y="98.5" width="7" height="152" fill="#D9D9D9" stroke="#6E6E6E"/>
<rect id="Rectangle 26" x="616.5" y="99.5" width="7" height="88" transform="rotate(90 616.5 99.5)" fill="#D9D9D9" stroke="#6E6E6E"/>
<rect id="Rectangle 27" x="616.5" y="151.5" width="7" height="88" transform="rotate(90 616.5 151.5)" fill="#D9D9D9" stroke="#6E6E6E"/>
<rect id="Rectangle 21" x="804.5" y="316.5" width="7" height="152" fill="#D9D9D9" stroke="#6E6E6E"/>
<rect id="Rectangle 24" x="804.5" y="99.5" width="7" height="152" fill="#D9D9D9" stroke="#6E6E6E"/>
<rect id="Rectangle 22" x="878.5" y="316.5" width="7" height="152" fill="#D9D9D9" stroke="#6E6E6E"/>
<rect id="Rectangle 25" x="878.5" y="99.5" width="7" height="152" fill="#D9D9D9" stroke="#6E6E6E"/>
</g>
<g id="LTF-L00-10">
<rect id="Rectangle 17_4" x="843.5" y="625.5" width="19" height="19" rx="4.5" fill="#DBD53A" stroke="#B0932D"/>
<rect id="Rectangle 19_4" x="843.5" y="556.5" width="19" height="19" rx="4.5" fill="#DBD53A" stroke="#B0932D"/>
<rect id="Rectangle 18_4" x="843.5" y="692.5" width="19" height="19" rx="4.5" fill="#DBD53A" stroke="#B0932D"/>
</g>
<g id="LTF-L00-09">
<rect id="Rectangle 17_5" x="691.5" y="625.5" width="19" height="19" rx="4.5" fill="#DBD53A" stroke="#B0932D"/>
<rect id="Rectangle 19_5" x="691.5" y="556.5" width="19" height="19" rx="4.5" fill="#DBD53A" stroke="#B0932D"/>
<rect id="Rectangle 18_5" x="691.5" y="692.5" width="19" height="19" rx="4.5" fill="#DBD53A" stroke="#B0932D"/>
<rect id="Rectangle 17_6" x="767.5" y="625.5" width="19" height="19" rx="4.5" fill="#DBD53A" stroke="#B0932D"/>
<rect id="Rectangle 19_6" x="767.5" y="556.5" width="19" height="19" rx="4.5" fill="#DBD53A" stroke="#B0932D"/>
<rect id="Rectangle 18_6" x="767.5" y="692.5" width="19" height="19" rx="4.5" fill="#DBD53A" stroke="#B0932D"/>
</g>
<g id="LTF-L00-08">
<rect id="Rectangle 17_7" x="569.5" y="624.5" width="19" height="19" rx="4.5" fill="#DBD53A" stroke="#B0932D"/>
<rect id="Rectangle 19_7" x="569.5" y="555.5" width="19" height="19" rx="4.5" fill="#DBD53A" stroke="#B0932D"/>
<rect id="Rectangle 18_7" x="569.5" y="691.5" width="19" height="19" rx="4.5" fill="#DBD53A" stroke="#B0932D"/>
</g>
<g id="LTF-L00-07">
<rect id="Rectangle 17_8" x="464.5" y="624.5" width="19" height="19" rx="4.5" fill="#DBD53A" stroke="#B0932D"/>
<rect id="Rectangle 18_8" x="464.5" y="691.5" width="19" height="19" rx="4.5" fill="#DBD53A" stroke="#B0932D"/>
</g>
<g id="LTF-L00-06">
<rect id="Rectangle 15" x="359.5" y="624.5" width="19" height="19" rx="4.5" fill="#DBD53A" stroke="#B0932D"/>
<rect id="Rectangle 16" x="359.5" y="691.5" width="19" height="19" rx="4.5" fill="#DBD53A" stroke="#B0932D"/>
</g>
<g id="LTF-L00-05">
<rect id="Rectangle 11" x="199.5" y="624.5" width="19" height="19" rx="4.5" fill="#DBD53A" stroke="#B0932D"/>
<rect id="Rectangle 13" x="199.5" y="691.5" width="19" height="19" rx="4.5" fill="#DBD53A" stroke="#B0932D"/>
<rect id="Rectangle 12" x="266.5" y="624.5" width="19" height="19" rx="4.5" fill="#DBD53A" stroke="#B0932D"/>
<rect id="Rectangle 14" x="266.5" y="691.5" width="19" height="19" rx="4.5" fill="#DBD53A" stroke="#B0932D"/>
</g>
<g id="LTF-L00-04">
<rect id="Rectangle 8" x="121.5" y="357.5" width="19" height="19" rx="4.5" fill="#DBD53A" stroke="#B0932D"/>
<rect id="Rectangle 9" x="121.5" y="281.5" width="19" height="19" rx="4.5" fill="#DBD53A" stroke="#B0932D"/>
</g>
<g id="LTF-L00-03">
<rect id="Rectangle 8_2" x="222.5" y="545.5" width="19" height="19" rx="4.5" fill="#DBD53A" stroke="#B0932D"/>
<rect id="Rectangle 9_2" x="343.5" y="545.5" width="19" height="19" rx="4.5" fill="#DBD53A" stroke="#B0932D"/>
<rect id="Rectangle 10" x="464.5" y="545.5" width="19" height="19" rx="4.5" fill="#DBD53A" stroke="#B0932D"/>
</g>
<g id="LTF-L00-02">
<rect id="Rectangle 1" x="222.5" y="392.5" width="19" height="19" rx="4.5" fill="#DBD53A" stroke="#B0932D"/>
<rect id="Rectangle 4" x="282.5" y="392.5" width="19" height="19" rx="4.5" fill="#DBD53A" stroke="#B0932D"/>
<rect id="Rectangle 3" x="222.5" y="452.5" width="19" height="19" rx="4.5" fill="#DBD53A" stroke="#B0932D"/>
<rect id="Rectangle 5" x="282.5" y="452.5" width="19" height="19" rx="4.5" fill="#DBD53A" stroke="#B0932D"/>
</g>
<g id="LTF-L00-01">
<rect id="Rectangle 6" x="53.5" y="452.5" width="19" height="19" rx="4.5" fill="#DBD53A" stroke="#B0932D"/>
<rect id="Rectangle 7" x="121.5" y="452.5" width="19" height="19" rx="4.5" fill="#DBD53A" stroke="#B0932D"/>
</g>
</g>
</svg>
