<svg xmlns="http://www.w3.org/2000/svg" viewBox="0 0 291.137 614.677"><defs><filter id="drop-shadow-1" filterUnits="userSpaceOnUse"><feOffset/><feGaussianBlur result="blur" stdDeviation="1.861"/><feFlood flood-color="#000" flood-opacity=".3"/><feComposite in2="blur" operator="in"/><feComposite in="SourceGraphic"/></filter></defs><g id="Layer_10" data-name="Layer 10"><polygon points="157.145 14.064 157.145 97.38 158.072 97.38 158.072 95.401 184.589 95.401 184.589 97.38 277.171 97.38 277.171 14.064 157.145 14.064" style="fill:#ff610f;opacity:.7;fill-rule:evenodd"/><path d="m227.75 60.595-.956-4.208-2.006 1.913v5.738h-1.913v-7.173l2.006-1.913-.572-2.869a7.004 7.004 0 0 1-5.26 2.391v-1.913c1.816 0 3.347-.956 4.113-2.295l.956-1.53c.381-.574.956-.956 1.625-.956.288 0 .478.096.766.096l4.972 2.104v4.495h-1.913v-3.252l-1.722-.669 1.532 7.747 4.685-.956.381 1.913-6.694 1.339Zm-3.441-13.293a1.918 1.918 0 0 1-1.913-1.913c0-1.052.859-1.913 1.913-1.913s1.913.861 1.913 1.913-.863 1.913-1.913 1.913Z" style="fill:#fff"/><polyline points="234.316 62.668 227.805 62.668 227.805 66.78 221.634 66.78 221.634 70.893 215.466 70.893 215.466 74.662 209.298 74.662" style="stroke-width:1.04px;stroke:#fff;stroke-linecap:square;stroke-linejoin:round;fill:none"/><rect x="13.977" y="406.369" width="97.533" height="58.667" style="fill:#ff610f;opacity:.7"/><path d="m67.922 437.229-.956-4.208-2.006 1.913v5.738h-1.913v-7.173l2.006-1.913-.572-2.869a7.004 7.004 0 0 1-5.26 2.391v-1.913c1.816 0 3.347-.956 4.113-2.295l.956-1.53c.381-.574.956-.956 1.625-.956.288 0 .478.096.766.096l4.972 2.104v4.495H69.74v-3.252l-1.722-.669 1.532 7.747 4.685-.956.381 1.913-6.694 1.339Zm-3.441-13.293a1.918 1.918 0 0 1-1.913-1.913c0-1.052.859-1.913 1.913-1.913s1.913.861 1.913 1.913a1.92 1.92 0 0 1-1.913 1.913Z" style="fill:#fff"/><polyline points="74.488 439.301 67.977 439.301 67.977 443.413 61.806 443.413 61.806 447.526 55.638 447.526 55.638 451.295 49.47 451.295" style="stroke-width:1.04px;stroke:#fff;stroke-linecap:square;stroke-linejoin:round;fill:none"/><path d="m193.433 48.814-4.558 4.547h3.419v7.988h2.279v-7.988h3.419l-4.558-4.547Zm7.976 15.965v-7.988h-2.279v7.988h-3.419l4.558 4.547 4.558-4.547h-3.419Z" style="fill:#fff"/></g><g id="Rooms"><rect x="179.799" y="557.391" width="97.372" height="43.323" style="fill:#4735cd;opacity:.56"/><circle cx="211.544" cy="579.086" r="13.955" transform="rotate(-80.783 211.54 579.084)" style="stroke:#fff;stroke-linecap:square;stroke-linejoin:round;stroke-width:1.174px;fill:none"/><path d="M213.087 589.369v-6.17h3.084l-2.617-7.846a2.051 2.051 0 0 0-1.948-1.41h-.118c-.884 0-1.672.566-1.948 1.41l-2.622 7.846h3.084v6.17h3.086Zm-1.543-16.453a2.057 2.057 0 1 0 0-4.114 2.057 2.057 0 0 0 0 4.114" style="fill:#fff"/><rect x="179.799" y="510.687" width="97.372" height="42.704" style="fill:#d8dade"/><circle cx="247.426" cy="579.086" r="13.955" transform="rotate(-85.935 247.426 579.086)" style="stroke:#fff;stroke-linecap:square;stroke-linejoin:round;stroke-width:1.174px;fill:none"/><path d="M245.369 589.369v-7.713h-1.542V576c0-1.131.925-2.057 2.056-2.057h3.085c1.131 0 2.056.926 2.056 2.057v5.656h-1.542v7.713h-4.114Zm2.057-16.453a2.057 2.057 0 1 0 0-4.114 2.057 2.057 0 0 0 0 4.114" style="fill:#fff"/><polygon points="143.04 394.433 143.04 369.006 144.92 369.006 144.92 309.339 13.977 309.339 13.977 395.311 144.92 395.311 144.92 394.433 143.04 394.433" style="fill:#d8dade"/><path d="M65.309 367.374h27.014v3.377H65.309v-3.377Zm27.014-18.572h-3.377v-5.065h3.377v5.065Zm0-8.442H65.309v16.884a6.751 6.751 0 0 0 6.753 6.753h10.13a6.751 6.751 0 0 0 6.753-6.753v-5.065h3.377a3.376 3.376 0 0 0 3.377-3.377v-5.065a3.365 3.365 0 0 0-3.377-3.376Z" style="fill:#525a5c"/><g id="you-are-here" class="you-are-here"><g id="text"><path d="m133.206 433.317.816-1.611h.894l-1.298 2.39v1.523h-.825v-1.496l-1.298-2.417h.899l.811 1.611ZM137.795 434.118c0 .487-.128.868-.385 1.143s-.615.413-1.074.413c-.287 0-.54-.063-.76-.189s-.388-.306-.506-.542-.176-.511-.176-.825c0-.489.127-.869.383-1.14s.614-.407 1.076-.407c.287 0 .541.062.76.187.22.125.388.304.506.538a1.8 1.8 0 0 1 .177.821Zm-2.069 0c0 .297.048.52.146.672.097.152.255.227.475.227.218 0 .374-.075.47-.226.095-.151.143-.375.143-.673 0-.296-.048-.518-.145-.666s-.254-.222-.473-.222-.375.074-.471.221c-.096.147-.144.37-.144.668ZM140.589 435.619l-.11-.383h-.043c-.087.139-.211.246-.372.322s-.343.114-.549.114c-.352 0-.617-.094-.795-.283s-.268-.459-.268-.812v-1.951h.816v1.748c0 .216.039.378.116.486.076.108.199.162.367.162.228 0 .393-.076.495-.229s.153-.406.153-.759v-1.408h.816v2.992h-.627ZM145.882 435.619l-.158-.407h-.021c-.138.173-.279.293-.424.36s-.335.101-.569.101c-.287 0-.513-.082-.679-.246-.165-.164-.248-.398-.248-.701 0-.317.111-.552.334-.702.222-.151.557-.234 1.005-.25l.519-.017v-.131c0-.303-.155-.455-.466-.455-.239 0-.52.072-.843.217l-.27-.551c.344-.18.727-.27 1.146-.27.401 0 .709.087.923.262.215.175.321.441.321.798v1.994h-.57Zm-.241-1.387-.316.011c-.237.007-.414.05-.53.128-.116.079-.174.198-.174.359 0 .23.132.345.396.345.189 0 .34-.054.454-.163s.17-.254.17-.434v-.246ZM148.962 432.571c.111 0 .203.008.276.024l-.061.765a.931.931 0 0 0-.241-.027c-.26 0-.463.067-.608.201-.145.134-.218.321-.218.562v1.523h-.817v-2.992h.618l.121.503h.04c.093-.168.218-.303.376-.405s.33-.154.515-.154ZM151.032 435.673c-.482 0-.859-.133-1.13-.399-.271-.266-.406-.642-.406-1.129 0-.501.125-.889.376-1.163s.597-.411 1.04-.411c.423 0 .752.121.988.361.235.241.353.573.353.998v.396h-1.93c.009.232.078.413.206.544.128.13.309.195.541.195.18 0 .35-.019.511-.056.16-.038.328-.097.503-.179v.632a1.939 1.939 0 0 1-.458.159c-.162.035-.36.052-.594.052Zm-.115-2.522a.517.517 0 0 0-.407.165c-.098.109-.155.265-.169.467h1.145c-.004-.202-.056-.357-.158-.467a.534.534 0 0 0-.412-.165ZM138.736 441.101h-.816v-1.748c0-.432-.16-.648-.482-.648-.228 0-.393.077-.496.233-.102.155-.152.407-.152.755v1.408h-.817v-4.165h.817v.848c0 .066-.007.221-.019.466l-.019.241h.043c.182-.292.471-.439.867-.439.351 0 .618.095.8.284.182.189.273.46.273.814v1.951ZM140.93 441.155c-.482 0-.859-.133-1.13-.399-.271-.266-.406-.642-.406-1.129 0-.501.125-.889.376-1.163s.597-.411 1.04-.411c.423 0 .752.121.988.361.235.241.353.573.353.998v.396h-1.93c.009.232.078.413.206.544.128.13.309.195.541.195.18 0 .35-.019.511-.056.16-.038.328-.097.503-.179v.632a1.939 1.939 0 0 1-.458.159c-.162.035-.36.052-.594.052Zm-.115-2.522a.517.517 0 0 0-.407.165c-.098.109-.155.265-.169.467h1.145c-.004-.202-.056-.357-.158-.467a.534.534 0 0 0-.412-.165ZM144.484 438.052c.111 0 .203.008.276.024l-.061.765a.931.931 0 0 0-.241-.027c-.26 0-.463.067-.608.201-.145.134-.218.321-.218.562v1.523h-.817v-2.992h.618l.121.503h.04c.093-.168.218-.303.376-.405s.33-.154.515-.154ZM146.554 441.155c-.482 0-.859-.133-1.13-.399-.271-.266-.406-.642-.406-1.129 0-.501.125-.889.376-1.163s.597-.411 1.04-.411c.423 0 .752.121.988.361.235.241.353.573.353.998v.396h-1.93c.009.232.078.413.206.544.128.13.309.195.541.195.18 0 .35-.019.511-.056.16-.038.328-.097.503-.179v.632a1.939 1.939 0 0 1-.458.159c-.162.035-.36.052-.594.052Zm-.115-2.522a.517.517 0 0 0-.407.165c-.098.109-.155.265-.169.467h1.145c-.004-.202-.056-.357-.158-.467a.534.534 0 0 0-.412-.165Z" style="fill:#525a5c"/></g><g id="arrow"><polygon points="138.175 423.061 135.861 421.561 138.449 420.61 138.175 423.061" style="fill-rule:evenodd;fill:#525a5c"/><path d="M137.821 421.37c.033 0 .067.004.1.012 3.93.982 4.54 5.001 4.62 8.803a.411.411 0 0 1-.402.42h-.009a.411.411 0 0 1-.411-.402c-.105-5.015-1.263-7.34-3.997-8.024a.41.41 0 0 1 .099-.809Z" style="fill:#525a5c"/></g><g id="dot"><circle cx="127.308" cy="420.409" r="5.242" style="fill:#b01aa4"/><path d="M127.274 415.167H127.172l-.034.002h-.033l-.034.003-.033.002-.033.002-.033.002-.033.002-.033.002-.033.002-.033.003-.033.003-.033.003-.033.003-.033.004-.033.004-.033.004-.033.004-.033.004-.033.005-.032.005-.033.005-.032.005-.032.005-.032.006-.032.006-.032.006-.032.006-.032.007-.032.007-.032.007-.032.007-.032.007-.032.007-.032.008-.032.008-.032.008-.031.008-.031.008-.031.008-.031.009-.031.009-.031.009-.031.009-.031.009-.031.01-.031.01-.03.01-.031.01-.03.01-.03.011-.03.011-.03.011-.03.011-.03.011-.03.012-.03.012-.03.012-.03.012-.029.012-.03.012-.029.012-.029.013-.029.013-.029.013-.029.013-.029.013-.029.014-.029.014-.029.014-.029.014-.029.014-.028.014-.028.015-.028.015-.028.015-.028.015-.028.015-.028.015-.028.016-.027.016-.027.016-.027.016-.027.016-.027.016-.027.016-.027.017-.027.017-.027.017-.026.017-.027.017-.026.018-.026.018-.026.018-.026.018-.026.018-.026.018-.025.018-.025.019-.025.019-.025.019-.025.019-.025.019-.025.019-.025.019-.025.019-.025.02-.024.02-.024.02-.024.02-.024.02-.024.021-.024.021-.024.021-.024.021-.024.021-.023.021-.023.021-.023.021-.023.021-.023.022-.023.022-.022.022-.022.022-.022.022-.022.022-.022.022-.022.023-.022.022-.022.023-.021.023-.021.023-.021.023-.021.023-.021.024-.021.024-.021.024-.021.024-.021.024-.02.024-.02.024-.02.024-.02.024-.02.025-.019.025-.019.025-.019.025-.019.025-.019.025-.019.025-.019.025-.018.025-.018.026-.018.026-.018.026-.018.026-.018.026-.018.026-.017.026-.017.027-.017.027-.017.027-.017.027-.017.027-.016.027-.016.027-.016.027-.016.027-.016.027-.016.028-.016.027-.015.028-.015.028-.015.028-.015.028-.015.028-.015.028-.014.028-.014.029-.014.029-.014.029-.014.029-.014.029-.013.029-.013.029-.013.029-.013.029-.013.029-.013.029-.012.03-.012.03-.012.03-.012.03-.012.03-.011.03-.012.03-.011.03-.011.03-.011.03-.011.03-.01.03-.01.03-.01.03-.01.031-.01.031-.01.031-.009.031-.009.031-.009.031-.009.031-.009.031-.008.031-.008.031-.008.032-.008.032-.007.032-.007.032-.007.032-.007.032-.007.032-.007.032-.006.032-.006.032-.006.032-.006.032-.005.032-.005.032-.005.032-.005.033-.005.033-.005.033-.004.033-.004.033-.004.033-.004.033-.004.033-.004.033-.003.033-.003.033-.003.033-.003.033-.002.033-.002.033-.002.033-.002.033v.033l-.003.034v.034l-.002.033v.034l-.001.034V420.546l.002.034v.034l.003.033v.033l.003.033.002.033.002.033.002.033.003.033.003.033.003.033.003.033.004.033.004.033.004.033.004.033.004.033.004.033.005.033.005.033.005.032.005.032.005.033.005.032.006.032.006.032.006.032.006.032.007.032.007.032.007.032.007.032.007.032.007.032.008.032.008.032.008.031.008.032.009.031.009.031.009.031.009.031.009.031.01.031.01.031.01.031.01.031.01.03.01.03.011.03.011.03.011.03.011.03.012.03.011.03.012.03.012.03.012.03.012.03.012.029.013.029.013.029.013.029.013.029.013.029.013.029.014.029.014.029.014.029.014.029.014.029.014.028.015.028.015.028.015.028.015.028.015.028.015.028.016.028.016.027.016.027.016.027.016.027.016.027.016.027.017.027.017.027.017.027.017.027.017.026.017.026.018.026.018.026.018.026.018.026.018.026.018.025.018.026.019.025.019.025.019.025.019.025.019.025.019.025.019.025.02.025.02.024.02.024.02.024.02.024.021.024.021.024.021.024.021.024.021.024.021.023.021.023.021.023.021.023.022.023.022.023.022.022.022.022.022.022.022.022.022.022.022.022.023.022.023.022.023.022.023.021.023.021.023.021.024.021.024.021.024.021.024.021.024.02.024.02.024.02.024.02.024.02.025.02.025.019.025.019.025.019.025.019.025.019.025.019.025.019.025.018.025.018.026.018.026.018.026.018.026.018.026.018.026.017.027.017.026.017.027.017.027.017.027.017.027.016.027.016.027.016.027.016.027.016.027.016.028.015.028.015.028.015.028.015.028.015.028.015.028.015.028.015.029.014.029.014.029.014.029.014.029.013.029.013.029.013.029.013.029.013.029.013.029.013.03.012.029.012.03.012.03.012.03.012.03.012.03.011.03.011.03.011.03.011.03.01.03.01.031.01.03.01.031.01.031.01.031.01.031.009.031.009.031.009.031.009.031.008.031.008.031.008.032.008.032.008.032.008.032.007.032.007.032.007.032.007.032.007.032.006.032.006.032.006.032.006.032.005.032.005.032.005.033.005.032.005.033.005.033.004.033.004.033.004.033.004.033.004.033.004.033.003.033.003.033.003.033.003.033.002.033.002.033.002.033.002.033.002h.034l.033.002h.034l.034.002H127.444l.034-.002h.033l.034-.002.033-.002.033-.002.033-.002.033-.002.033-.002.033-.003.033-.003.033-.003.033-.003.033-.004.033-.004.033-.004.033-.004.033-.004.033-.004.033-.005.032-.005.033-.005.032-.005.032-.005.032-.005.032-.006.032-.006.032-.006.032-.006.032-.007.032-.007.032-.007.032-.007.032-.007.032-.008.032-.008.032-.008.031-.008.031-.008.031-.008.031-.009.031-.009.031-.009.031-.009.031-.01.031-.01.031-.01.031-.01.03-.01.03-.01.03-.01.03-.011.03-.011.03-.011.03-.011.03-.012.03-.012.03-.012.03-.012.029-.012.03-.012.029-.013.029-.013.029-.013.029-.013.029-.013.029-.013.029-.013.029-.014.029-.014.029-.014.028-.014.028-.015.028-.015.028-.015.028-.015.028-.015.028-.015.028-.015.028-.015.027-.016.027-.016.027-.016.027-.016.027-.016.027-.016.027-.017.027-.017.027-.017.026-.017.027-.017.026-.017.026-.018.026-.018.026-.018.026-.018.026-.018.025-.018.025-.018.025-.019.025-.019.025-.019.025-.019.025-.019.025-.019.025-.019.025-.02.024-.02.024-.02.024-.02.024-.02.024-.02.024-.021.024-.021.024-.021.024-.021.023-.021.023-.021.023-.021.023-.022.023-.022.023-.022.022-.022.022-.022.022-.022.022-.022.022-.022.022-.022.022-.023.022-.023.021-.023.021-.023.021-.023.021-.023.021-.024.021-.024.021-.024.021-.024.021-.024.02-.024.02-.024.02-.024.02-.024.02-.025.019-.025.019-.025.019-.025.019-.025.019-.025.019-.025.019-.025.018-.026.018-.025.018-.026.018-.026.018-.026.018-.026.018-.026.017-.026.017-.026.017-.027.017-.027.017-.027.017-.027.016-.027.016-.027.016-.027.016-.027.016-.027.016-.027.016-.028.015-.028.015-.028.015-.028.015-.028.015-.028.015-.028.014-.028.014-.029.014-.029.014-.029.014-.029.014-.029.013-.029.013-.029.013-.029.013-.029.013-.029.013-.029.012-.029.012-.03.012-.03.012-.03.012-.03.011-.03.012-.03.011-.03.011-.03.011-.03.011-.03.01-.03.01-.03.01-.031.01-.031.01-.031.01-.031.009-.031.009-.031.009-.031.009-.031.009-.031.008-.032.008-.031.008-.032.008-.032.007-.032.007-.032.007-.032.007-.032.007-.032.007-.032.006-.032.006-.032.006-.032.006-.032.005-.032.005-.033.005-.032.005-.032.005-.033.005-.033.004-.033.004-.033.004-.033.004-.033.004-.033.004-.033.003-.033.003-.033.003-.033.003-.033.002-.033.002-.033.002-.033.002-.033v-.033l.003-.033v-.034l.002-.034v-.034l.001-.034v-.17l-.001-.034v-.033l-.002-.034v-.034l-.003-.033-.002-.033-.002-.033-.002-.033-.002-.033-.003-.033-.003-.033-.003-.033-.003-.033-.004-.033-.004-.033-.004-.033-.004-.033-.004-.033-.004-.033-.005-.033-.005-.033-.005-.033-.005-.032-.005-.032-.005-.032-.006-.032-.006-.032-.006-.032-.006-.032-.007-.032-.007-.032-.007-.032-.007-.032-.007-.032-.007-.032-.008-.032-.008-.032-.008-.031-.008-.031-.009-.031-.009-.031-.009-.031-.009-.031-.009-.031-.01-.031-.01-.031-.01-.031-.01-.03-.01-.03-.01-.03-.011-.03-.011-.03-.011-.03-.011-.03-.012-.03-.011-.03-.012-.03-.012-.03-.012-.03-.012-.03-.012-.03-.013-.029-.013-.029-.013-.029-.013-.029-.013-.029-.013-.029-.014-.029-.014-.029-.014-.029-.014-.029-.014-.029-.014-.028-.015-.028-.015-.028-.015-.028-.015-.028-.015-.028-.015-.028-.016-.027-.016-.028-.016-.027-.016-.027-.016-.027-.016-.027-.016-.027-.017-.027-.017-.027-.017-.027-.017-.027-.017-.027-.017-.026-.018-.026-.018-.026-.018-.026-.018-.026-.018-.026-.018-.026-.018-.025-.019-.025-.019-.025-.019-.025-.019-.025-.019-.025-.019-.025-.019-.025-.02-.025-.02-.024-.02-.024-.02-.024-.02-.024-.021-.024-.021-.024-.021-.024-.021-.024-.021-.024-.021-.023-.021-.023-.021-.023-.021-.023-.022-.023-.022-.022-.022-.023-.022-.022-.022-.022-.022-.022-.022-.022-.022-.022-.023-.022-.023-.022-.023-.021-.023-.021-.023-.021-.023-.021-.024-.021-.024-.021-.024-.021-.024-.021-.024-.021-.024-.02-.024-.02-.024-.02-.024-.02-.025-.02-.025-.019-.025-.019-.025-.019-.025-.019-.025-.019-.025-.019-.025-.019-.025-.019-.025-.018-.026-.018-.026-.018-.026-.018-.026-.018-.026-.018-.026-.018-.027-.017-.026-.017-.027-.017-.027-.017-.027-.017-.027-.016-.027-.016-.027-.016-.027-.016-.027-.016-.027-.016-.028-.016-.028-.015-.028-.015-.028-.015-.028-.015-.028-.015-.028-.015-.028-.014-.028-.014-.029-.014-.029-.014-.029-.014-.029-.014-.029-.013-.029-.013-.029-.013-.029-.013-.029-.013-.029-.012-.03-.012-.029-.012-.03-.012-.03-.012-.03-.012-.03-.012-.03-.011-.03-.011-.03-.011-.03-.011-.03-.011-.03-.01-.03-.01-.031-.01-.031-.01-.031-.01-.031-.009-.031-.009-.031-.009-.031-.009-.031-.009-.031-.008-.031-.008-.031-.008-.032-.008-.032-.008-.032-.008-.032-.007-.032-.007-.032-.007-.032-.007-.032-.007-.032-.007-.032-.006-.032-.006-.032-.006-.032-.006-.032-.005-.032-.005-.033-.005-.032-.005-.033-.005-.033-.004-.033-.004-.033-.004-.033-.004-.033-.004-.033-.003-.033-.003-.033-.003-.033-.003-.033-.002-.033-.002-.033-.002-.033-.002-.033-.002-.033-.002h-.034l-.033-.003h-.034l-.034-.002h-.136Zm.083-2.357h.049l.048.001h.049l.049.002.048.002.049.002.049.002.048.002.048.003.049.003.049.004.047.004.049.004.048.004.047.005.048.005.048.005.048.006.048.006.047.006.047.006.048.007.047.007.047.007.047.008.047.008.047.008.047.008.047.009.047.009.047.01.046.009.047.01.046.01.046.011.046.011.046.011.046.012.046.012.045.012.046.012.046.012.046.013.045.013.045.013.045.014.045.014.044.014.045.015.045.015.044.015.044.015.044.015.044.016.043.016.044.016.044.017.043.017.043.017.043.017.043.017.043.018.043.018.042.018.043.019.042.019.042.019.042.019.042.019.042.019.042.02.041.02.041.02.042.021.041.021.041.021.041.021.041.021.041.022.04.022.04.022.04.023.04.022.04.023.04.024.039.023.039.024.039.024.039.024.039.024.039.024.038.025.038.025.038.025.038.025.038.026.038.026.037.026.037.026.037.027.037.027.036.027.037.027.037.028.036.027.036.028.036.028.036.028.036.029.035.029.036.029.035.029.035.029.035.03.035.03.034.03.034.03.034.03.034.03.033.031.034.031.033.031.033.031.033.032.032.031.033.032.033.032.032.032.032.032.032.033.032.033.031.033.031.033.031.033.031.034.03.034.03.034.03.035.03.034.03.035.03.035.029.035.029.035.029.036.029.035.028.036.029.036.028.036.028.036.028.036.027.036.027.037.027.037.027.037.027.037.026.037.026.037.026.038.026.038.025.038.025.038.025.038.025.039.025.039.024.039.024.039.024.039.024.039.024.039.023.039.023.04.023.04.022.04.022.04.022.041.022.041.021.041.021.041.021.041.021.042.021.041.02.041.02.042.02.042.019.041.019.042.019.042.019.042.019.043.018.042.018.042.018.043.018.043.017.043.017.043.017.044.017.044.016.043.016.044.016.044.016.044.015.044.015.045.015.044.014.044.015.045.014.045.014.045.013.045.013.045.013.045.013.045.012.045.012.046.012.046.012.045.011.046.011.046.01.045.011.046.01.047.01.046.01.047.009.046.009.046.009.047.008.047.008.047.008.047.008.047.007.047.007.047.007.047.006.048.006.048.006.048.005.047.005.048.005.048.005.048.004.048.004.048.004.049.004.048.003.048.003.049.003.049.002.048.002.049.002.049.002.048v.049l.002.049v.243l-.002.049v.048l-.003.049-.002.049-.002.048-.003.049-.003.048-.003.048-.004.048-.004.049-.004.048-.004.048-.005.048-.005.048-.005.048-.005.047-.006.048-.006.048-.006.048-.007.047-.007.047-.007.048-.008.047-.008.047-.008.047-.008.047-.009.047-.009.046-.009.046-.01.047-.01.046-.01.047-.011.046-.011.045-.011.046-.011.046-.012.046-.012.045-.012.046-.012.045-.013.045-.013.045-.013.045-.013.045-.014.044-.014.045-.015.045-.014.044-.015.044-.015.044-.015.044-.016.044-.016.044-.016.044-.016.043-.017.044-.017.043-.017.043-.018.043-.018.042-.018.043-.018.042-.018.043-.019.043-.019.042-.019.042-.019.042-.019.041-.02.042-.02.042-.02.041-.021.041-.021.041-.021.041-.022.041-.022.041-.022.041-.022.041-.022.04-.022.039-.023.04-.023.04-.023.04-.024.039-.024.039-.024.039-.024.039-.025.039-.024.039-.025.038-.025.038-.025.038-.025.038-.026.038-.026.038-.026.037-.026.037-.027.038-.027.037-.027.037-.027.037-.027.036-.028.036-.028.036-.029.036-.028.036-.028.035-.029.036-.029.035-.029.035-.029.035-.029.034-.03.035-.03.035-.03.034-.03.033-.031.034-.031.034-.031.033-.031.033-.031.033-.032.034-.032.032-.032.032-.032.033-.032.032-.033.032-.033.032-.033.031-.033.032-.033.031-.034.031-.033.03-.033.03-.035.031-.034.03-.034.03-.035.03-.035.029-.035.029-.035.029-.035.029-.036.029-.035.028-.036.028-.036.028-.036.027-.037.028-.036.027-.036.027-.037.027-.037.027-.037.027-.038.026-.038.026-.037.026-.038.025-.039.026-.038.025-.038.025-.038.025-.039.024-.039.025-.038.024-.039.024-.04.024-.039.024-.039.023-.039.023-.04.023-.04.022-.04.022-.04.022-.041.022-.041.022-.041.021-.041.021-.041.021-.042.021-.042.021-.041.02-.041.02-.042.02-.042.019-.042.019-.042.019-.042.019-.042.018-.042.018-.043.018-.042.018-.043.018-.043.017-.043.017-.044.017-.044.016-.043.016-.044.016-.044.016-.044.015-.044.015-.045.015-.044.015-.045.014-.045.014-.044.014-.044.013-.045.013-.045.013-.046.013-.046.013-.046.012-.045.012-.046.012-.046.011-.046.011-.046.011-.047.01-.046.01-.046.01-.047.01-.047.009-.047.009-.047.009-.047.008-.047.008-.047.008-.047.007-.047.007-.047.007-.047.007-.048.007-.048.006-.048.006-.047.005-.048.005-.048.005-.048.005-.048.004-.048.004-.049.004-.048.004-.048.003-.049.003-.049.003-.048.002-.048.002-.049.002h-.049l-.048.002h-.049l-.049.001H127.208l-.049-.001h-.048l-.049-.002-.049-.002-.048-.002-.048-.002-.049-.003-.049-.003-.048-.003-.048-.004-.049-.004-.048-.004-.048-.004-.048-.005-.048-.005-.048-.005-.047-.005-.048-.006-.048-.006-.048-.007-.047-.007-.047-.007-.047-.007-.047-.007-.047-.008-.047-.008-.047-.008-.047-.009-.047-.009-.047-.009-.047-.01-.046-.01-.046-.01-.047-.01-.046-.011-.046-.011-.046-.011-.046-.012-.046-.012-.046-.012-.046-.013-.045-.013-.045-.013-.046-.013-.044-.013-.045-.014-.045-.014-.044-.014-.044-.015-.045-.015-.044-.015-.044-.015-.044-.016-.044-.016-.043-.016-.044-.016-.044-.017-.043-.017-.043-.017-.043-.018-.042-.018-.043-.018-.042-.018-.042-.018-.043-.019-.042-.019-.042-.019-.042-.019-.042-.02-.041-.02-.041-.02-.042-.021-.041-.021-.041-.021-.041-.021-.04-.021-.041-.022-.041-.022-.04-.022-.04-.022-.04-.022-.04-.023-.039-.023-.039-.023-.04-.024-.039-.024-.039-.024-.039-.024-.039-.024-.039-.024-.039-.025-.038-.025-.038-.025-.038-.026-.037-.025-.038-.026-.038-.026-.038-.026-.037-.027-.037-.027-.037-.027-.036-.027-.036-.027-.037-.028-.036-.028-.036-.028-.036-.029-.035-.028-.035-.029-.035-.029-.035-.029-.035-.029-.035-.03-.035-.03-.033-.029-.035-.03-.035-.031-.033-.03-.033-.03-.033-.031-.033-.031-.033-.032-.033-.031-.033-.032-.033-.032-.032-.032-.032-.033-.032-.032-.032-.033-.032-.033-.031-.033-.031-.033-.031-.033-.031-.034-.031-.034-.03-.033-.03-.034-.03-.035-.03-.035-.029-.034-.029-.035-.029-.035-.029-.035-.029-.036-.029-.036-.028-.035-.028-.036-.028-.036-.028-.036-.027-.036-.027-.037-.027-.037-.027-.037-.027-.038-.026-.037-.026-.037-.026-.038-.026-.038-.025-.038-.025-.038-.025-.038-.025-.038-.024-.039-.025-.039-.024-.039-.024-.039-.024-.039-.024-.039-.023-.04-.023-.04-.022-.039-.023-.04-.022-.04-.022-.041-.021-.04-.022-.041-.022-.041-.021-.041-.021-.041-.02-.041-.021-.042-.02-.042-.02-.042-.02-.042-.019-.042-.019-.042-.019-.042-.019-.042-.018-.042-.018-.043-.018-.043-.018-.042-.018-.043-.017-.043-.017-.043-.017-.044-.016-.043-.016-.044-.016-.044-.015-.044-.015-.044-.015-.044-.015-.044-.015-.045-.014-.044-.014-.045-.014-.045-.013-.045-.013-.045-.013-.045-.013-.045-.013-.046-.012-.045-.012-.046-.012-.046-.011-.046-.011-.046-.011-.046-.01-.046-.01-.047-.01-.047-.01-.046-.009-.047-.009-.047-.009-.046-.008-.047-.008-.047-.008-.047-.008-.048-.007-.047-.007-.047-.007-.047-.007-.048-.006-.048-.006-.047-.006-.048-.005-.048-.005-.048-.005-.048-.004-.048-.004-.048-.004-.049-.004-.048-.003-.049-.003-.048-.003-.048-.002-.049-.002-.048-.002-.048-.002-.049v-.049l-.002-.048v-.244l.002-.049.002-.049.002-.048.002-.048.002-.049.003-.048.003-.048.003-.049.004-.048.004-.049.004-.048.004-.048.005-.048.005-.048.005-.048.006-.048.006-.047.006-.048.007-.048.007-.047.007-.047.007-.047.008-.047.008-.047.008-.047.008-.047.009-.046.009-.047.009-.047.01-.046.01-.046.01-.047.01-.046.011-.046.011-.046.011-.046.012-.045.012-.046.012-.045.013-.046.013-.045.013-.045.013-.045.013-.045.014-.045.014-.044.014-.044.015-.045.015-.044.015-.044.015-.044.015-.044.016-.044.016-.044.016-.043.017-.044.017-.044.017-.043.017-.043.018-.043.018-.043.018-.043.018-.042.019-.042.019-.043.019-.042.019-.042.02-.042.02-.042.02-.042.021-.041.02-.041.021-.041.021-.041.021-.041.022-.041.022-.04.022-.041.022-.04.023-.04.022-.039.023-.04.023-.039.024-.039.024-.039.024-.039.024-.039.024-.039.025-.039.025-.039.025-.038.025-.038.025-.038.026-.038.026-.038.026-.037.026-.037.027-.037.027-.037.027-.037.027-.037.027-.036.028-.036.028-.037.028-.035.028-.036.029-.036.029-.035.029-.036.029-.035.029-.035.03-.035.03-.035.03-.034.03-.035.03-.034.03-.034.031-.034.031-.033.031-.033.031-.033.031-.032.032-.033.032-.033.032-.032.033-.032.033-.032.032-.031.033-.032.033-.031.033-.032.034-.031.033-.031.034-.03.034-.03.035-.03.033-.029.034-.03.035-.03.035-.029.035-.029.036-.029.035-.028.036-.029.036-.029.036-.028.036-.028.036-.027.037-.028.037-.027.036-.027.037-.027.037-.027.037-.026.037-.026.038-.026.038-.026.037-.025.038-.025.038-.025.039-.025.039-.025.038-.024.039-.024.039-.024.039-.024.039-.023.04-.024.04-.023.04-.022.04-.023.04-.022.04-.022.041-.022.041-.022.04-.021.041-.021.041-.021.041-.021.041-.02.042-.02.042-.02.042-.019.042-.019.042-.019.042-.019.042-.019.042-.019.042-.018.043-.018.043-.018.043-.017.043-.017.043-.017.043-.017.044-.016.044-.016.043-.016.044-.016.044-.015.044-.015.044-.015.045-.015.045-.014.044-.014.045-.014.045-.013.045-.013.045-.013.045-.013.046-.012.046-.012.046-.012.046-.012.046-.012.046-.011.046-.011.046-.011.046-.01.047-.01.046-.01.047-.01.047-.009.047-.009.047-.008.047-.008.047-.008.047-.008.047-.007.048-.007.047-.007.047-.006.047-.006.048-.006.048-.006.048-.005.048-.005.047-.005.048-.004.049-.004.047-.004.049-.004.049-.003.048-.003.048-.002.049-.002.049-.002.048-.002h.049l.049-.002h.048l.049-.001h.097Z" style="fill:#d992d4;fill-rule:evenodd"/></g></g><polygon points="139.139 499.089 139.139 475.544 13.977 475.418 13.977 600.714 145.654 600.714 145.654 499.089 139.139 499.089" style="fill:#51b881;fill-rule:evenodd"/><rect x="57.035" y="524.303" width="51.009" height="26.457" transform="rotate(-90.102 82.537 537.529)" style="fill:#4b9f73"/><rect x="54.741" y="523.398" width="17.355" height="5.344" transform="rotate(-90.102 63.415 526.068)" style="fill:#4b9f73"/><rect x="54.779" y="546.65" width="17.355" height="5.344" transform="rotate(-90.102 63.453 549.32)" style="fill:#4b9f73"/><rect x="92.946" y="523.068" width="17.355" height="5.344" transform="rotate(-90.102 101.62 525.738)" style="fill:#4b9f73"/><rect x="92.984" y="546.32" width="17.355" height="5.344" transform="rotate(-90.102 101.658 548.99)" style="fill:#4b9f73"/><g id="label_R.406"><rect x="55.643" y="580.719" width="48.342" height="11.314" rx="5.657" ry="5.657" transform="rotate(-.102 79.245 583.701)" style="fill:#11a6d8;filter:url(#drop-shadow-1)"/><g style="isolation:isolate"><text transform="rotate(-.101 334211.758 -35623.66)" style="font-family:OpenSans-Semibold,'Open Sans';font-size:7.359px;font-weight:600;fill:#fff"><tspan x="0" y="0">The Bank</tspan></text></g></g></g><g id="Walls"><rect x="4.984" y="4.984" width="281.17" height="604.71" style="fill:none;stroke-miterlimit:10;stroke:#11a7d9;stroke-width:9.967px"/><line x1="151.102" y1="600.714" x2="151.102" y2="498.686" style="stroke:#525a5c;stroke-width:3.998px;fill:none;stroke-miterlimit:10"/><line x1="277.171" y1="504.861" x2="179.799" y2="504.861" style="stroke:#525a5c;stroke-width:3.998px;fill:none;stroke-miterlimit:10"/><line x1="151.102" y1="504.861" x2="155.461" y2="504.861" style="stroke:#525a5c;stroke-width:3.998px;fill:none;stroke-miterlimit:10"/><polyline points="151.102 474.348 151.102 469.989 13.977 469.989" style="stroke:#525a5c;stroke-width:3.998px;fill:none;stroke-miterlimit:10"/><line x1="151.102" y1="255.237" x2="151.102" y2="369.006" style="stroke:#525a5c;stroke-width:3.998px;fill:none;stroke-miterlimit:10"/><polyline points="13.977 401.371 151.102 401.371 151.102 394.433" style="stroke:#525a5c;stroke-width:3.998px;fill:none;stroke-miterlimit:10"/><line x1="151.102" y1="14.064" x2="151.102" y2="228.064" style="stroke:#525a5c;stroke-width:3.998px;fill:none;stroke-miterlimit:10"/><line x1="151.102" y1="103.469" x2="158.004" y2="103.469" style="stroke:#525a5c;stroke-width:3.998px;fill:none;stroke-miterlimit:10"/><line x1="184.521" y1="103.469" x2="277.171" y2="103.469" style="stroke:#525a5c;stroke-width:3.998px;fill:none;stroke-miterlimit:10"/><rect x="239.574" y="103.242" width="37.596" height="37.596" style="fill:#525a5c"/><line x1="151.102" y1="303.4" x2="13.977" y2="303.4" style="stroke:#525a5c;stroke-width:3.998px;fill:none;stroke-miterlimit:10"/></g></svg>