<svg width="42" height="24" viewBox="0 0 42 24" fill="none"
    xmlns="http://www.w3.org/2000/svg">
    <path d="M22.2409 8.18177C20.6755 3.73359 16.4373 0.54541 11.4545 0.54541C5.13545 0.54541 0 5.68086 0 12C0 18.319 5.13545 23.4545 11.4545 23.4545C16.4373 23.4545 20.6755 20.2663 22.2409 15.8181H30.5455V23.4545H38.1818V15.8181H42V8.18177H22.2409ZM11.4545 15.8181C9.35455 15.8181 7.63636 14.1 7.63636 12C7.63636 9.89995 9.35455 8.18177 11.4545 8.18177C13.5545 8.18177 15.2727 9.89995 15.2727 12C15.2727 14.1 13.5545 15.8181 11.4545 15.8181Z" fill="white"/>
</svg>
