<svg width="40" height="28" viewBox="0 0 40 28" fill="none"
    xmlns="http://www.w3.org/2000/svg">
    <path d="M4.25 3.5H35.75V0H4.25C2.325 0 0.75 1.575 0.75 3.5V24.5C0.75 26.425 2.325 28 4.25 28H11.25V24.5H4.25V3.5ZM21.75 14H14.75V17.115C13.6825 18.0775 13 19.4425 13 21C13 22.5575 13.6825 23.9225 14.75 24.885V28H21.75V24.885C22.8175 23.9225 23.5 22.54 23.5 21C23.5 19.46 22.8175 18.0775 21.75 17.115V14ZM18.25 23.625C16.7975 23.625 15.625 22.4525 15.625 21C15.625 19.5475 16.7975 18.375 18.25 18.375C19.7025 18.375 20.875 19.5475 20.875 21C20.875 22.4525 19.7025 23.625 18.25 23.625ZM37.5 7H27C26.125 7 25.25 7.875 25.25 8.75V26.25C25.25 27.125 26.125 28 27 28H37.5C38.375 28 39.25 27.125 39.25 26.25V8.75C39.25 7.875 38.375 7 37.5 7ZM35.75 24.5H28.75V10.5H35.75V24.5Z" fill="white"/>
</svg>
