<svg width="36" height="35" viewBox="0 0 36 35" fill="none"
    xmlns="http://www.w3.org/2000/svg">
    <path d="M10.265 3.14L7.7625 0.6375C3.5625 3.84 0.797498 8.775 0.552498 14.375H4.0525C4.315 9.7375 6.695 5.6775 10.265 3.14ZM31.9475 14.375H35.4475C35.185 8.775 32.42 3.84 28.2375 0.6375L25.7525 3.14C29.2875 5.6775 31.685 9.7375 31.9475 14.375ZM28.5 15.25C28.5 9.8775 25.63 5.38 20.625 4.19V3C20.625 1.5475 19.4525 0.375 18 0.375C16.5475 0.375 15.375 1.5475 15.375 3V4.19C10.3525 5.38 7.5 9.86 7.5 15.25V24L4 27.5V29.25H32V27.5L28.5 24V15.25ZM18 34.5C18.245 34.5 18.4725 34.4825 18.7 34.43C19.8375 34.185 20.765 33.415 21.22 32.365C21.395 31.945 21.4825 31.49 21.4825 31H14.4825C14.5 32.925 16.0575 34.5 18 34.5Z" fill="white"/>
</svg>
