<svg width="34" height="34" viewBox="0 0 34 34" fill="none"
    xmlns="http://www.w3.org/2000/svg">
    <path d="M29.495 18.6449C29.565 18.1199 29.6 17.5775 29.6 17C29.6 16.44 29.565 15.88 29.4775 15.355L33.03 12.59C33.345 12.345 33.4325 11.8725 33.24 11.5225L29.88 5.71245C29.67 5.32745 29.2325 5.20495 28.8475 5.32745L24.665 7.00745C23.79 6.34245 22.8625 5.78245 21.83 5.36245L21.2 0.917451C21.13 0.497451 20.78 0.199951 20.36 0.199951H13.64C13.22 0.199951 12.8875 0.497451 12.8175 0.917451L12.1875 5.36245C11.155 5.78245 10.21 6.35995 9.3525 7.00745L5.17 5.32745C4.785 5.18745 4.3475 5.32745 4.1375 5.71245L0.795001 11.5225C0.585001 11.89 0.655001 12.345 1.005 12.59L4.5575 15.355C4.47 15.88 4.4 16.4575 4.4 17C4.4 17.5425 4.435 18.1199 4.5225 18.6449L0.970001 21.41C0.655001 21.655 0.567501 22.1275 0.760001 22.4775L4.12 28.2875C4.33 28.6725 4.7675 28.795 5.1525 28.6725L9.335 26.9925C10.21 27.6574 11.1375 28.2175 12.17 28.6375L12.8 33.0825C12.8875 33.5025 13.22 33.8 13.64 33.8H20.36C20.78 33.8 21.13 33.5025 21.1825 33.0825L21.8125 28.6375C22.845 28.2175 23.79 27.6574 24.6475 26.9925L28.83 28.6725C29.215 28.8125 29.6525 28.6725 29.8625 28.2875L33.2225 22.4775C33.4325 22.0925 33.345 21.655 33.0125 21.41L29.495 18.6449ZM17 23.3C13.535 23.3 10.7 20.465 10.7 17C10.7 13.535 13.535 10.7 17 10.7C20.465 10.7 23.3 13.535 23.3 17C23.3 20.465 20.465 23.3 17 23.3Z" fill="white"/>
</svg>
