<svg xmlns="http://www.w3.org/2000/svg" xmlns:xlink="http://www.w3.org/1999/xlink" xmlns:lucid="lucid" width="881.14" height="781.98"><g transform="translate(-321 -163.296714583136)" lucid:page-tab-id="kjag0bJe~Nfr"><path d="M1113.45 218.87h73V243h-73z" stroke="#6f7681" stroke-width="2" fill="#f2f3f5"/><path d="M1086.45 215.65a6 6 0 0 1 6-6h48a6 6 0 0 1 6 6v30.07a6 6 0 0 1-6 6h-48a6 6 0 0 1-6-6z" stroke="#4c535d" stroke-width="2" fill="#dfe3e8"/><path d="M1093.45 221.13a3 3 0 0 1 3-3h29a3 3 0 0 1 3 3v18.54a3 3 0 0 1-3 3h-29a3 3 0 0 1-3-3z" stroke="#3a414a" stroke-width="2" fill="#6f7681"/><path d="M1107.45 220.13v21.13M1099.45 220.13v21.13M1114.45 220.13v21.13M1122.45 220.13v21.13" stroke="#5e5e5e" stroke-width="3" stroke-linecap="round" fill="none"/><path d="M1142.1 239.12c0 2.34-1.9 4.24-4.25 4.24s-4.25-1.9-4.25-4.24c0-2.35 1.9-4.25 4.25-4.25 2.34 0 4.24 1.9 4.24 4.25z" stroke="#4c535d" fill="#fe7070"/><path d="M932.45 224.87a6 6 0 0 1 6-6h128a6 6 0 0 1 6 6v8a6 6 0 0 1-6 6h-128a6 6 0 0 1-6-6z" stroke="#3a414a" stroke-width="2" fill="#4c535d"/><path d="M1018.45 225.63a3 3 0 0 1 3-3h34a3 3 0 0 1 3 3v6.24a3 3 0 0 1-3 3h-34a3 3 0 0 1-3-3zM946.45 225.63a3 3 0 0 1 3-3h34a3 3 0 0 1 3 3v6.24a3 3 0 0 1-3 3h-34a3 3 0 0 1-3-3z" stroke="#fcce14" stroke-width="2" fill="#fff7a1"/><path d="M1006.45 228.75c0 2.2-1.8 4-4 4s-4-1.8-4-4 1.8-4 4-4 4 1.8 4 4z" stroke="#5e5e5e" stroke-width="3" fill="#fff"/><path d="M932.45 784.87a6 6 0 0 1 6-6h128a6 6 0 0 1 6 6v8a6 6 0 0 1-6 6h-128a6 6 0 0 1-6-6z" stroke="#3a414a" stroke-width="2" fill="#4c535d"/><path d="M1018.45 785.63a3 3 0 0 1 3-3h34a3 3 0 0 1 3 3v6.24a3 3 0 0 1-3 3h-34a3 3 0 0 1-3-3zM946.45 785.63a3 3 0 0 1 3-3h34a3 3 0 0 1 3 3v6.24a3 3 0 0 1-3 3h-34a3 3 0 0 1-3-3z" stroke="#fcce14" stroke-width="2" fill="#fcfcca"/><path d="M1006.45 788.75c0 2.2-1.8 4-4 4s-4-1.8-4-4 1.8-4 4-4 4 1.8 4 4z" stroke="#5e5e5e" stroke-width="3" fill="#fff"/><path d="M932.45 637.8a6 6 0 0 1 6-6h128a6 6 0 0 1 6 6v8a6 6 0 0 1-6 6h-128a6 6 0 0 1-6-6z" stroke="#3a414a" stroke-width="2" fill="#4c535d"/><path d="M1018.45 638.56a3 3 0 0 1 3-3h34a3 3 0 0 1 3 3v6.24a3 3 0 0 1-3 3h-34a3 3 0 0 1-3-3zM946.45 638.56a3 3 0 0 1 3-3h34a3 3 0 0 1 3 3v6.24a3 3 0 0 1-3 3h-34a3 3 0 0 1-3-3z" stroke="#fcce14" stroke-width="2" fill="#ffe342"/><path d="M1006.45 641.68c0 2.2-1.8 4-4 4s-4-1.8-4-4 1.8-4 4-4 4 1.8 4 4z" stroke="#5e5e5e" stroke-width="3" fill="#fff"/><path d="M933.43 384.87a6 6 0 0 1 6-6h128a6 6 0 0 1 6 6v8a6 6 0 0 1-6 6h-128a6 6 0 0 1-6-6z" stroke="#3a414a" stroke-width="2" fill="#4c535d"/><path d="M1019.43 385.63a3 3 0 0 1 3-3h34a3 3 0 0 1 3 3v6.24a3 3 0 0 1-3 3h-34a3 3 0 0 1-3-3zM947.43 385.63a3 3 0 0 1 3-3h34a3 3 0 0 1 3 3v6.24a3 3 0 0 1-3 3h-34a3 3 0 0 1-3-3z" stroke="#979ea8" stroke-width="2" fill="#dfe3e8"/><path d="M1007.43 388.75c0 2.2-1.8 4-4 4s-4-1.8-4-4 1.8-4 4-4 4 1.8 4 4z" stroke="#5e5e5e" stroke-width="3" fill="#fff"/><path d="M1125.26 286.22a2 2 0 0 1 2-2h17.04a2 2 0 0 1 2 2v16.26a2 2 0 0 1-2 2h-17.04a2 2 0 0 1-2-2z" stroke="#3a414a" stroke-width="2" fill="#fc9432"/><path d="M1152.82 285.77c0 9.4-7.63 17.04-17.04 17.04-9.4 0-17.04-7.62-17.04-17.03 0-9.4 7.63-17.04 17.04-17.04 9.4 0 17.04 7.63 17.04 17.04z" stroke="#3a414a" fill="#ffdda6"/><path d="M1149.8 285.77c0 7.75-6.27 14.03-14.02 14.03s-14.03-6.28-14.03-14.03c0-7.75 6.28-14.03 14.03-14.03 7.75 0 14.03 6.28 14.03 14.03z" stroke="#3a414a" fill="url(#a)"/><path d="M1135.17 289.14a1 1 0 0 1-.93-1.07l.55-7.98a1 1 0 0 0-.94-1.07l-.6-.04a.44.44 0 0 1-.28-.77l2.95-2.8a.92.92 0 0 1 1.34.1l2.54 3.16a.44.44 0 0 1-.36.7l-.6-.03a1 1 0 0 0-1.08.93l-.54 7.98a1 1 0 0 1-1.07.93z" stroke="#3a414a" fill="#fe7070"/><path d="M1126.24 445.4a2 2 0 0 1 2-2h17.05a2 2 0 0 1 2 2v16.27a2 2 0 0 1-2 2h-17.06a2 2 0 0 1-2-2z" stroke="#3a414a" stroke-width="2" fill="#fc9432"/><path d="M1153.8 444.96c0 9.4-7.62 17.04-17.03 17.04-9.42 0-17.05-7.63-17.05-17.04 0-9.4 7.63-17.04 17.05-17.04 9.4 0 17.04 7.63 17.04 17.04z" stroke="#3a414a" fill="#ffdda6"/><path d="M1150.8 444.96c0 7.75-6.3 14.03-14.03 14.03-7.75 0-14.04-6.3-14.04-14.04 0-7.75 6.3-14.03 14.04-14.03 7.74 0 14.03 6.28 14.03 14.03z" stroke="#3a414a" fill="url(#b)"/><path d="M1134.76 445.6a1 1 0 0 1 .3-1.4l6.78-4.26a1 1 0 0 0 .3-1.37l-.3-.52a.44.44 0 0 1 .44-.67l4 .73a.92.92 0 0 1 .72 1.15l-1.07 3.92a.44.44 0 0 1-.8.12l-.32-.52a1 1 0 0 0-1.37-.3l-6.77 4.25a1 1 0 0 1-1.38-.3z" stroke="#3a414a" fill="#fe7070"/><path d="M1125.26 698.34a2 2 0 0 1 2-2h17.04a2 2 0 0 1 2 2v16.26a2 2 0 0 1-2 2h-17.04a2 2 0 0 1-2-2z" stroke="#3a414a" stroke-width="2" fill="#fc9432"/><path d="M1152.82 697.9c0 9.4-7.63 17.03-17.04 17.03-9.4 0-17.04-7.63-17.04-17.04 0-9.42 7.63-17.05 17.04-17.05 9.4 0 17.04 7.63 17.04 17.04z" stroke="#3a414a" fill="#ffdda6"/><path d="M1149.8 697.9c0 7.74-6.27 14.02-14.02 14.02s-14.03-6.28-14.03-14.03c0-7.76 6.28-14.04 14.03-14.04 7.75 0 14.03 6.28 14.03 14.03z" stroke="#3a414a" fill="url(#c)"/><path d="M1138.4 699.78a1 1 0 0 1-1.35.44l-7.14-3.6a1 1 0 0 0-1.33.43l-.28.55a.44.44 0 0 1-.8-.05l-1.45-3.8a.92.92 0 0 1 .6-1.2l3.93-1.1a.44.44 0 0 1 .5.6l-.27.56a1 1 0 0 0 .45 1.35l7.14 3.6a1 1 0 0 1 .43 1.35z" stroke="#3a414a" fill="#fe7070"/><path d="M1125.26 846.7a2 2 0 0 1 2-2h17.04a2 2 0 0 1 2 2v16.27a2 2 0 0 1-2 2h-17.04a2 2 0 0 1-2-2z" stroke="#3a414a" stroke-width="2" fill="#fc9432"/><path d="M1152.82 846.26c0 9.4-7.63 17.04-17.04 17.04-9.4 0-17.04-7.63-17.04-17.04 0-9.4 7.63-17.04 17.04-17.04 9.4 0 17.04 7.63 17.04 17.04z" stroke="#3a414a" fill="#ffdda6"/><path d="M1149.8 846.26c0 7.75-6.27 14.03-14.02 14.03s-14.03-6.3-14.03-14.04c0-7.75 6.28-14.03 14.03-14.03 7.75 0 14.03 6.28 14.03 14.03z" stroke="#3a414a" fill="url(#d)"/><path d="M1133.77 846.9a1 1 0 0 1 .32-1.4l6.75-4.26a1 1 0 0 0 .3-1.38l-.3-.5a.44.44 0 0 1 .44-.68l4 .73a.92.92 0 0 1 .7 1.15l-1.06 3.92a.44.44 0 0 1-.8.12l-.32-.52a1 1 0 0 0-1.38-.32l-6.76 4.27a1 1 0 0 1-1.38-.3z" stroke="#3a414a" fill="#fe7070"/><path d="M832.68 250.9v618M837.54 251.17v618" stroke="#6db1ff" stroke-width="2" stroke-linecap="round" fill="none"/><g fill="none"><path d="M603.74 164.3v764.35"/><path d="M603.74 164.3v3.98m0 7.96v7.96m0 7.96v7.97m0 7.96v7.95m0 7.96v7.97m0 7.97v7.96m0 7.96v7.96m0 7.96v7.97m0 7.96v7.97m0 7.96v7.96m0 7.96v7.96m0 7.96v7.96m0 7.96v7.97m0 7.96v7.96m0 7.95v7.96m0 7.98v7.96m0 7.96v7.96m0 7.96V439m0 7.95v7.96m0 7.97v7.96m0 7.96v7.96m0 7.96v7.96m0 7.96v7.96m0 7.97v7.96m0 7.96v7.95m0 7.96v7.98m0 7.96v7.96m0 7.96v7.96m0 7.97v7.95m0 7.96v7.97m0 7.96V646m0 7.96v7.96m0 7.96v7.96m0 7.97v7.97m0 7.96v7.96m0 7.95v7.97m0 7.96v7.96m0 7.96v7.96m0 7.97v7.96m0 7.95v7.96m0 7.97v7.97m0 7.96v7.96m0 7.96v7.96m0 7.97V853m0 7.97v7.96m0 7.96v7.96m0 7.96v7.96m0 7.96v7.96m0 7.97v3.98" stroke="#3a414a" stroke-width="2" stroke-linecap="round"/></g><path d="M878.8 229.76l-294.1 233.5M881.7 233.66l-294.1 233.5M879.62 865.68l-292.58-235.4M876.45 869.37l-292.58-235.4" stroke="#6db1ff" stroke-width="2" stroke-linecap="round" fill="none"/><path d="M790.28 780.5l13.04-10.85h95.63v99.46l-10.87 13.05h-97.8z" stroke="#fc9432" fill="#ffdda6"/><path d="M790.28 780.5l13.04-10.85h95.63l-10.87 10.87z" stroke="#fc9432" fill="#e6c795"/><path d="M888.08 780.5l10.87-10.85v99.46l-10.87 13.05z" stroke="#fc9432" fill="#ccb185"/><path d="M786.45 822.8l7.9-6.6h58.1V882l-6.6 7.9h-59.4z" stroke="#fc9432" fill="#ffdda6"/><path d="M786.45 822.8l7.9-6.6h58.1l-6.6 6.6z" stroke="#fc9432" fill="#e6c795"/><path d="M845.84 822.8l6.6-6.6V882l-6.6 7.9z" stroke="#fc9432" fill="#ccb185"/><path d="M790.28 827.45l4.2-3.5h30.76v65.64l-3.5 4.2h-31.46z" stroke="#fc9432" fill="#ffdda6"/><path d="M790.28 827.45l4.2-3.5h30.76l-3.5 3.5z" stroke="#fc9432" fill="#e6c795"/><path d="M821.74 827.45l3.5-3.5v65.64l-3.5 4.2z" stroke="#fc9432" fill="#ccb185"/><path d="M790.28 786.9a6 6 0 0 1 6-6h85.42a6 6 0 0 1 6 6v21.75a6 6 0 0 1-6 6h-85.42a6 6 0 0 1-6-6z" fill="none"/><use xlink:href="#e" transform="matrix(1,0,0,1,790.2809713412532,780.8981139812961) translate(32.60185185185185 12.444444444444446)"/><use xlink:href="#f" transform="matrix(1,0,0,1,790.2809713412532,780.8981139812961) translate(15.404320987654316 31.111111111111118)"/><path d="M834.57 691.03l-201.2-51.16M833.3 695.7l-201.22-51.15" stroke="#6db1ff" stroke-width="2" stroke-linecap="round" fill="none"/><path d="M790.28 633.45l13.04-10.87h95.63v99.46l-10.87 13.04h-97.8z" stroke="#fc9432" fill="#ffdda6"/><path d="M790.28 633.45l13.04-10.87h95.63l-10.87 10.87z" stroke="#fc9432" fill="#e6c795"/><path d="M888.08 633.45l10.87-10.87v99.46l-10.87 13.04z" stroke="#fc9432" fill="#ccb185"/><path d="M786.45 675.73l7.9-6.6h58.1v65.8l-6.6 7.9h-59.4z" stroke="#fc9432" fill="#ffdda6"/><path d="M786.45 675.73l7.9-6.6h58.1l-6.6 6.6z" stroke="#fc9432" fill="#e6c795"/><path d="M845.84 675.73l6.6-6.6v65.8l-6.6 7.9z" stroke="#fc9432" fill="#ccb185"/><path d="M790.28 680.4l4.2-3.5h30.76v65.62l-3.5 4.2h-31.46z" stroke="#fc9432" fill="#ffdda6"/><path d="M790.28 680.4l4.2-3.5h30.76l-3.5 3.5z" stroke="#fc9432" fill="#e6c795"/><path d="M821.74 680.4l3.5-3.5v65.62l-3.5 4.2z" stroke="#fc9432" fill="#ccb185"/><path d="M790.28 639.83a6 6 0 0 1 6-6h85.42a6 6 0 0 1 6 6v21.75a6 6 0 0 1-6 6h-85.42a6 6 0 0 1-6-6z" fill="none"/><use xlink:href="#e" transform="matrix(1,0,0,1,790.2809713411897,633.8291484640738) translate(32.60185185185185 12.444444444444446)"/><use xlink:href="#f" transform="matrix(1,0,0,1,790.2809713411897,633.8291484640738) translate(15.404320987654316 31.111111111111118)"/><path d="M788.5 224.36l13.03-10.86h95.63v99.46L886.3 326h-97.8z" stroke="#fc9432" fill="#ffdda6"/><path d="M788.5 224.36l13.03-10.86h95.63l-10.87 10.86z" stroke="#fc9432" fill="#e6c795"/><path d="M886.3 224.36l10.86-10.86v99.46L886.3 326z" stroke="#fc9432" fill="#ccb185"/><path d="M784.66 266.65l7.92-6.6h58.07v65.78l-6.6 7.92h-59.4z" stroke="#fc9432" fill="#ffdda6"/><path d="M784.66 266.65l7.92-6.6h58.07l-6.6 6.6z" stroke="#fc9432" fill="#e6c795"/><path d="M844.05 266.65l6.6-6.6v65.78l-6.6 7.92z" stroke="#fc9432" fill="#ccb185"/><path d="M788.5 271.3l4.2-3.5h30.75v65.64l-3.5 4.2H788.5z" stroke="#fc9432" fill="#ffdda6"/><path d="M788.5 271.3l4.2-3.5h30.75l-3.5 3.5z" stroke="#fc9432" fill="#e6c795"/><path d="M819.95 271.3l3.5-3.5v65.64l-3.5 4.2z" stroke="#fc9432" fill="#ccb185"/><path d="M788.5 230.75a6 6 0 0 1 6-6h85.4a6 6 0 0 1 6 6v21.75a6 6 0 0 1-6 6h-85.4a6 6 0 0 1-6-6z" fill="none"/><use xlink:href="#e" transform="matrix(1,0,0,1,788.4910229540159,224.745741449657) translate(32.60185185185185 12.444444444444446)"/><use xlink:href="#f" transform="matrix(1,0,0,1,788.4910229540159,224.745741449657) translate(15.404320987654316 31.111111111111118)"/><path d="M820.7 398.52l-200.6 53.5M821.88 403.23l-200.6 53.5" stroke="#6db1ff" stroke-width="2" stroke-linecap="round" fill="none"/><path d="M786.57 380.5l13.04-10.85h95.64v99.46l-10.87 13.05h-97.8z" stroke="#fc9432" fill="#ffdda6"/><path d="M786.57 380.5l13.04-10.85h95.64l-10.87 10.87z" stroke="#fc9432" fill="#e6c795"/><path d="M884.37 380.5l10.87-10.85v99.46l-10.87 13.05z" stroke="#fc9432" fill="#ccb185"/><path d="M782.74 422.8l7.92-6.6h58.07V482l-6.6 7.9h-59.4z" stroke="#fc9432" fill="#ffdda6"/><path d="M782.74 422.8l7.92-6.6h58.07l-6.6 6.6z" stroke="#fc9432" fill="#e6c795"/><path d="M842.13 422.8l6.6-6.6V482l-6.6 7.9z" stroke="#fc9432" fill="#ccb185"/><path d="M786.57 427.45l4.2-3.5h30.76v65.64l-3.5 4.2h-31.46z" stroke="#fc9432" fill="#ffdda6"/><path d="M786.57 427.45l4.2-3.5h30.76l-3.5 3.5z" stroke="#fc9432" fill="#e6c795"/><path d="M818.04 427.45l3.5-3.5v65.64l-3.5 4.2z" stroke="#fc9432" fill="#ccb185"/><path d="M786.57 386.9a6 6 0 0 1 6-6H878a6 6 0 0 1 6 6v21.75a6 6 0 0 1-6 6h-85.43a6 6 0 0 1-6-6z" fill="none"/><use xlink:href="#e" transform="matrix(1,0,0,1,786.5734971476539,380.8981139812961) translate(32.60185185185185 12.444444444444446)"/><use xlink:href="#f" transform="matrix(1,0,0,1,786.5734971476539,380.8981139812961) translate(15.404320987654316 31.111111111111118)"/><path d="M845.3 529.9c0 5.53-4.47 10-10 10-5.52 0-10-4.47-10-10 0-5.52 4.48-10 10-10 5.53 0 10 4.48 10 10z" stroke="#fc9432" fill="#ffdda6"/><path d="M832.68 557.74H744.3M832.64 562.6h-88.37" stroke="#6db1ff" stroke-width="2" stroke-linecap="round" fill="none"/><path d="M845.26 559.9c0 5.53-4.48 10-10 10s-10-4.47-10-10c0-5.52 4.48-10 10-10s10 4.48 10 10zM845.26 589.65c0 5.52-4.48 10-10 10s-10-4.48-10-10 4.48-10 10-10 10 4.48 10 10z" stroke="#fc9432" fill="#ffdda6"/><path d="M854.7 878.87a6 6 0 0 1-6-6v-28a6 6 0 0 1 6-6h38.25a6 6 0 0 1 6 6v28a6 6 0 0 1-6 6z" fill="none"/><use xlink:href="#g" transform="matrix(6.123233995736766e-17,-1,1,6.123233995736766e-17,848.6872990387254,878.8722519123304) translate(4.598765432098766 29.944444444444443)"/><path d="M852.9 731.8a6 6 0 0 1-6-6v-28a6 6 0 0 1 6-6h38.26a6 6 0 0 1 6 6v28a6 6 0 0 1-6 6z" fill="none"/><use xlink:href="#h" transform="matrix(6.123233995736766e-17,-1,1,6.123233995736766e-17,846.8973506514939,731.8032863950931) translate(7.654320987654321 29.944444444444443)"/><path d="M850.98 482.15a6 6 0 0 1-6-6v-28a6 6 0 0 1 6-6h38.26a6 6 0 0 1 6 6v28a6 6 0 0 1-6 6z" fill="none"/><use xlink:href="#i" transform="matrix(6.123233995736766e-17,-1,1,6.123233995736766e-17,844.9798248451461,482.148113981296) translate(7.654320987654321 29.944444444444443)"/><path d="M850.98 326a6 6 0 0 1-6-6v-28a6 6 0 0 1 6-6h38.26a6 6 0 0 1 6 6v28a6 6 0 0 1-6 6z" fill="none"/><use xlink:href="#j" transform="matrix(6.123233995736766e-17,-1,1,6.123233995736766e-17,844.9798248451461,325.99574144970313) translate(7.654320987654321 29.944444444444443)"/><path d="M1120.45 376.94h73v24.13h-73z" stroke="#6f7681" stroke-width="2" fill="#f2f3f5"/><path d="M1093.45 373.72a6 6 0 0 1 6-6h48a6 6 0 0 1 6 6v30.07a6 6 0 0 1-6 6h-48a6 6 0 0 1-6-6z" stroke="#4c535d" stroke-width="2" fill="#dfe3e8"/><path d="M1100.45 379.2a3 3 0 0 1 3-3h29a3 3 0 0 1 3 3v18.54a3 3 0 0 1-3 3h-29a3 3 0 0 1-3-3z" stroke="#3a414a" stroke-width="2" fill="#6f7681"/><path d="M1114.45 378.2v21.13M1106.45 378.2v21.13M1121.45 378.2v21.13M1129.45 378.2v21.13" stroke="#5e5e5e" stroke-width="3" stroke-linecap="round" fill="none"/><path d="M1149.1 397.2c0 2.33-1.9 4.23-4.25 4.23s-4.25-1.9-4.25-4.25c0-2.34 1.9-4.24 4.25-4.24 2.34 0 4.24 1.9 4.24 4.25z" stroke="#4c535d" fill="#54c45e"/><path d="M1120.45 631.8h73v24.13h-73z" stroke="#6f7681" stroke-width="2" fill="#f2f3f5"/><path d="M1093.45 628.58a6 6 0 0 1 6-6h48a6 6 0 0 1 6 6v30.07a6 6 0 0 1-6 6h-48a6 6 0 0 1-6-6z" stroke="#4c535d" stroke-width="2" fill="#dfe3e8"/><path d="M1100.45 634.06a3 3 0 0 1 3-3h29a3 3 0 0 1 3 3v18.54a3 3 0 0 1-3 3h-29a3 3 0 0 1-3-3z" stroke="#3a414a" stroke-width="2" fill="#6f7681"/><path d="M1114.45 633.06v21.13M1106.45 633.06v21.13M1121.45 633.06v21.13M1129.45 633.06v21.13" stroke="#5e5e5e" stroke-width="3" stroke-linecap="round" fill="none"/><path d="M1149.1 652.05c0 2.34-1.9 4.24-4.25 4.24s-4.25-1.9-4.25-4.25 1.9-4.25 4.25-4.25c2.34 0 4.24 1.9 4.24 4.25z" stroke="#4c535d" fill="#fe7070"/><path d="M1120.45 777.06h73v24.13h-73z" stroke="#6f7681" stroke-width="2" fill="#f2f3f5"/><path d="M1093.45 773.84a6 6 0 0 1 6-6h48a6 6 0 0 1 6 6v30.07a6 6 0 0 1-6 6h-48a6 6 0 0 1-6-6z" stroke="#4c535d" stroke-width="2" fill="#dfe3e8"/><path d="M1100.45 779.32a3 3 0 0 1 3-3h29a3 3 0 0 1 3 3v18.54a3 3 0 0 1-3 3h-29a3 3 0 0 1-3-3z" stroke="#3a414a" stroke-width="2" fill="#6f7681"/><path d="M1114.45 778.32v21.13M1106.45 778.32v21.13M1121.45 778.32v21.13M1129.45 778.32v21.13" stroke="#5e5e5e" stroke-width="3" stroke-linecap="round" fill="none"/><path d="M1149.1 797.3c0 2.35-1.9 4.25-4.25 4.25s-4.25-1.9-4.25-4.25c0-2.34 1.9-4.24 4.25-4.24 2.34 0 4.24 1.9 4.24 4.25z" stroke="#4c535d" fill="#ffe342"/><path d="M695.64 524.67l-62.5-62.5M692.18 528.08l-62.5-62.5M692.2 571.3l-62.48 62.48M695.6 574.75l-62.48 62.5" stroke="#6db1ff" stroke-width="2" stroke-linecap="round" fill="none"/><path d="M662.74 518.76l8.63-7.2h91.37v63.34l-7.2 8.63h-92.8z" stroke="#008573" stroke-width="2" fill="#b8f5ed"/><path d="M662.74 518.76l8.63-7.2h91.37l-7.2 7.2z" stroke="#008573" stroke-width="2" fill="#a6ddd5"/><path d="M755.54 518.76l7.2-7.2v63.34l-7.2 8.63z" stroke="#008573" stroke-width="2" fill="#93c4be"/><use xlink:href="#k" transform="matrix(1,0,0,1,670.7384455349302,526.7581621020254) translate(0 14.4)"/><use xlink:href="#l" transform="matrix(1,0,0,1,670.7384455349302,526.7581621020254) translate(0 36)"/><path d="M562.74 421.85l8.63-7.2h91.37v63.33l-7.2 8.64h-92.8z" stroke="#1071e5" stroke-width="2" fill="#cfe4ff"/><path d="M562.74 421.85l8.63-7.2h91.37l-7.2 7.2z" stroke="#1071e5" stroke-width="2" fill="#bacde6"/><path d="M655.54 421.85l7.2-7.2v63.33l-7.2 8.64z" stroke="#1071e5" stroke-width="2" fill="#a6b6cc"/><use xlink:href="#m" transform="matrix(1,0,0,1,570.7384455349302,429.8452174295661) translate(0 14.4)"/><use xlink:href="#n" transform="matrix(1,0,0,1,570.7384455349302,429.8452174295661) translate(0 36)"/><path d="M322.74 342.65a6 6 0 0 1 6-6h148a6 6 0 0 1 6 6v107.1a6 6 0 0 1-6 6h-148a6 6 0 0 1-6-6z" stroke="#5e5e5e" stroke-width="2" fill="#fed7d1" filter="url(#o)"/><path d="M338.5 355.17a3 3 0 0 1 3-3h122a3 3 0 0 1 3 3v82.78a3 3 0 0 1-3 3h-122a3 3 0 0 1-3-3z" stroke="#5e5e5e" stroke-width="2" fill="#fff"/><path d="M354.5 371.5a6 6 0 0 1 6-6h36a6 6 0 0 1 6 6v26.02a6 6 0 0 1-6 6h-36a6 6 0 0 1-6-6z" stroke="#5e5e5e" fill="#99d5ca" fill-opacity=".5"/><use xlink:href="#p" transform="matrix(1,0,0,1,359.5000000000009,370.49997968846316) translate(4.148148148148156 17.916666666666664)"/><path d="M354.5 413.54a3 3 0 0 1 3-3h42a3 3 0 0 1 3 3v8.2a3 3 0 0 1-3 3h-42a3 3 0 0 1-3-3z" stroke="#5e5e5e" fill="#fed7d1"/><use xlink:href="#q" transform="matrix(1,0,0,1,359.5000000000009,415.5356834370861) translate(10.509259259259267 5.333333333333329)"/><use xlink:href="#r" transform="matrix(1,0,0,1,359.5000000000009,415.5356834370861) translate(19.73148148148148 5.333333333333329)"/><path d="M418.74 368.5a3 3 0 0 1 3-3h26a3 3 0 0 1 3 3v53.18a3 3 0 0 1-3 3h-26a3 3 0 0 1-3-3z" stroke="#5e5e5e" fill-opacity="0"/><path d="M432.63 374.22a2.98 2.98 0 0 1 4.22 0l11.78 11.87a1.25 1.25 0 0 1-.9 2.12h-6a3 3 0 0 0-3 3v9.95a3 3 0 0 0 3 3h6a1.25 1.25 0 0 1 .9 2.13l-11.78 11.87a2.98 2.98 0 0 1-4.22 0l-11.78-11.87a1.25 1.25 0 0 1 .9-2.13h6a3 3 0 0 0 3-3v-9.95a3 3 0 0 0-3-3h-6a1.25 1.25 0 0 1-.9-2.13z" stroke="#5e5e5e" fill="#ffeca9"/><path d="M322.5 643.17a6 6 0 0 1 6-6h148a6 6 0 0 1 6 6v107.1a6 6 0 0 1-6 6h-148a6 6 0 0 1-6-6z" stroke="#5e5e5e" stroke-width="2" fill="#d1bcd2" filter="url(#o)"/><path d="M338.26 655.7a3 3 0 0 1 3-3h122a3 3 0 0 1 3 3v82.77a3 3 0 0 1-3 3h-122a3 3 0 0 1-3-3z" stroke="#5e5e5e" stroke-width="2" fill="#fff"/><path d="M429.8 696.72h22.5c0 12.43-10.1 22.5-22.5 22.5-2.5 0-4.6-.33-6.96-1.1z" stroke="#5e5e5e" stroke-width="2" fill="#8b7d8c"/><path d="M429.8 696.72l-6.96 21.4c-7.1-2.3-12.15-7.36-14.45-14.45z" stroke="#5e5e5e" stroke-width="2" fill="#463f46"/><path d="M429.8 696.72l-21.4 6.95c-3.85-11.8 2.62-24.5 14.44-28.35 11.8-3.84 24.5 2.63 28.35 14.45.76 2.36 1.1 4.47 1.1 6.95z" stroke="#5e5e5e" stroke-width="2" fill="#d1bcd2"/><path d="M354.26 667.45a6 6 0 0 1 6-6h68a6 6 0 0 1 6 6V726a6 6 0 0 1-6 6h-68a6 6 0 0 1-6-6z" fill="none"/><path d="M354.26 669.08h20v20h-20z" stroke="#5e5e5e" stroke-width="2" fill="#fff"/><path d="M358.26 677.08l4 6 8-8" stroke="#5e5e5e" stroke-width="3" fill="none"/><path d="M354.26 704.36h20v20h-20z" stroke="#5e5e5e" stroke-width="2" fill="#fff"/><path d="M562.74 614.82l8.63-7.2h91.37v63.34l-7.2 8.64h-92.8z" stroke="#1071e5" stroke-width="2" fill="#cfe4ff"/><path d="M562.74 614.82l8.63-7.2h91.37l-7.2 7.2z" stroke="#1071e5" stroke-width="2" fill="#bacde6"/><path d="M655.54 614.82l7.2-7.2v63.34l-7.2 8.64z" stroke="#1071e5" stroke-width="2" fill="#a6b6cc"/><use xlink:href="#m" transform="matrix(1,0,0,1,570.7384455349302,622.8224247844994) translate(0 14.4)"/><use xlink:href="#n" transform="matrix(1,0,0,1,570.7384455349302,622.8224247844994) translate(0 36)"/><path d="M973.43 267.7a6 6 0 0 1 6-6h48a6 6 0 0 1 6 6v38.98a6 6 0 0 1-6 6h-48a6 6 0 0 1-6-6z" stroke="#5e5e5e" stroke-width="2" fill="#fed7d1"/><path d="M980.78 272.77a3 3 0 0 1 3-3h39.3a3 3 0 0 1 3 3v28.83a3 3 0 0 1-3 3h-39.3a3 3 0 0 1-3-3z" stroke="#5e5e5e" fill="#fff"/><path d="M973.43 431.6a6 6 0 0 1 6-6h48a6 6 0 0 1 6 6v39a6 6 0 0 1-6 6h-48a6 6 0 0 1-6-6z" stroke="#5e5e5e" stroke-width="2" fill="#fed7d1"/><path d="M980.78 436.7a3 3 0 0 1 3-3h39.3a3 3 0 0 1 3 3v28.82a3 3 0 0 1-3 3h-39.3a3 3 0 0 1-3-3z" stroke="#5e5e5e" fill="#fff"/><path d="M972.45 679.7a6 6 0 0 1 6-6h48a6 6 0 0 1 6 6v38.98a6 6 0 0 1-6 6h-48a6 6 0 0 1-6-6z" stroke="#5e5e5e" stroke-width="2" fill="#fed7d1"/><path d="M979.8 684.77a3 3 0 0 1 3-3h39.3a3 3 0 0 1 3 3v28.83a3 3 0 0 1-3 3h-39.3a3 3 0 0 1-3-3z" stroke="#5e5e5e" fill="#fff"/><path d="M972.45 829.96a6 6 0 0 1 6-6h48a6 6 0 0 1 6 6v38.98a6 6 0 0 1-6 6h-48a6 6 0 0 1-6-6z" stroke="#5e5e5e" stroke-width="2" fill="#fed7d1"/><path d="M979.8 835.03a3 3 0 0 1 3-3h39.3a3 3 0 0 1 3 3v28.84a3 3 0 0 1-3 3h-39.3a3 3 0 0 1-3-3z" stroke="#5e5e5e" fill="#fff"/><path d="M582.86 945.28a6 6 0 0 1-6-6V815.9a6 6 0 0 1 6-6h21.84a6 6 0 0 1 6 6V939.3a6 6 0 0 1-6 6z" fill="none"/><use xlink:href="#s" transform="matrix(6.123233995736766e-17,-1,1,6.123233995736766e-17,576.8578137298949,945.2816858857534) translate(16.784585676631853 20.32706104556923)"/><use xlink:href="#t" transform="matrix(6.123233995736766e-17,-1,1,6.123233995736766e-17,576.8578137298949,945.2816858857534) translate(54.95054054435002 20.32706104556923)"/><path d="M543.24 432.28h-14.5a6 6 0 0 1-6-6V402.2a6 6 0 0 0-6-6h-32" stroke="#3a414a" stroke-width="2" fill="none"/><path d="M558.5 432.28l-14.26 4.64v-9.27z" stroke="#3a414a" stroke-width="2" fill="#3a414a"/><path d="M484.76 397.17h-1.02v-1.95h1.02z" stroke="#3a414a" stroke-width=".05" fill="#3a414a"/><path d="M543.24 661.96h-14.62a6 6 0 0 0-6 6v22.76a6 6 0 0 1-6 6H484.5" stroke="#3a414a" stroke-width="2" fill="none"/><path d="M558.5 661.96l-14.26 4.64v-9.27z" stroke="#3a414a" stroke-width="2" fill="#3a414a"/><path d="M484.53 697.7h-1.03v-1.95h1.03z" stroke="#3a414a" stroke-width=".05" fill="#3a414a"/><path d="M322.74 504.2a6 6 0 0 1 6-6h148a6 6 0 0 1 6 6v87.75a6 6 0 0 1-6 6h-148a6 6 0 0 1-6-6z" stroke="#82755b" stroke-width="2" fill="#e8e2c8"/><path d="M338.74 498.2v99.75m128-99.75v99.75" stroke="#82755b" stroke-width="2" fill="none"/><use xlink:href="#u" transform="matrix(1,0,0,1,347.7384455349302,503.2032323030256) translate(21.69753086419753 49.44444444444444)"/><path d="M543.24 469h-14.5a6 6 0 0 0-6 6v67.07a6 6 0 0 1-6 6h-32" stroke="#3a414a" stroke-width="2" fill="none"/><path d="M558.5 469l-14.26 4.62v-9.27z" stroke="#3a414a" stroke-width="2" fill="#3a414a"/><path d="M484.76 549.05h-1.02v-1.95h1.02z" stroke="#3a414a" stroke-width=".05" fill="#3a414a"/><path d="M543.24 625.26h-14.5a6 6 0 0 1-6-6v-65.2a6 6 0 0 0-6-6h-32" stroke="#3a414a" stroke-width="2" fill="none"/><path d="M558.5 625.26l-14.26 4.63v-9.28z" stroke="#3a414a" stroke-width="2" fill="#3a414a"/><path d="M484.76 549.05h-1.02v-1.95h1.02z" stroke="#3a414a" stroke-width=".05" fill="#3a414a"/><path d="M346.74 258.2c-13.26 0-24-10.76-24-24 0-10.6 6.5-19.56 16.58-22.84-.58-31.17 39.42-37.17 55.42-25.17 8-18 48-12 48 6 24-6 48 18 32 48 16 24 0 54-32 42-8 15.6-40 15.6-48 0-16 12-48 6-48-24z" stroke="#3a414a" stroke-width="2" fill="#fff"/><use xlink:href="#v" transform="matrix(1,0,0,1,327.7384455349302,179.18922303079995) translate(51.05438271604938 45.27777777777778)"/><use xlink:href="#w" transform="matrix(1,0,0,1,327.7384455349302,179.18922303079995) translate(46.02969135802469 71.94444444444446)"/><path d="M712.62 509.56v-262.9a6 6 0 0 0-6-6H494.67" stroke="#3a414a" stroke-width="2" fill="none"/><path d="M713.6 510.56h-1.95v-1.02h1.95z" stroke="#3a414a" stroke-width=".05" fill="#3a414a"/><path d="M479.4 240.65l14.27-4.64v9.28z" stroke="#3a414a" stroke-width="2" fill="#3a414a"/><path d="M346.74 885.55c-13.26 0-24-10.75-24-24 0-10.6 6.5-19.55 16.58-22.83-.58-31.17 39.42-37.17 55.42-25.17 8-18 48-12 48 6 24-6 48 18 32 48 16 24 0 54-32 42-8 15.6-40 15.6-48 0-16 12-48 6-48-24z" stroke="#3a414a" stroke-width="2" fill="#fff"/><use xlink:href="#v" transform="matrix(1,0,0,1,327.7384455349302,806.5489809790736) translate(51.05438271604938 45.27777777777778)"/><use xlink:href="#w" transform="matrix(1,0,0,1,327.7384455349302,806.5489809790736) translate(46.02969135802469 71.94444444444446)"/><path d="M712.62 585.53v277.33a6 6 0 0 1-6 6H495.17" stroke="#3a414a" stroke-width="2" fill="none"/><path d="M713.6 584.53v1.03h-1.95v-1.03z" stroke="#3a414a" stroke-width=".05" fill="#3a414a"/><path d="M479.9 868.86l14.27-4.63v9.27z" stroke="#3a414a" stroke-width="2" fill="#3a414a"/><path d="M1075.24 832a2 2 0 0 1 2-2h4.2a2 2 0 0 1 2 2v12.85a2 2 0 0 1-2 2h-4.2a2 2 0 0 1-2-2z" stroke="#3a414a" fill="#3a414a"/><path d="M1052.33 852.54c-.48-1.62.44-3.33 2.06-3.8 1.6-.5 3.32.43 3.8 2.05l2.35 7.88c.5 1.62-.44 3.32-2.06 3.8-1.63.5-3.33-.43-3.8-2.05z" stroke="#3a414a" fill="#ced4db"/><path d="M1052.65 850.05a2 2 0 0 1 2-2h13.27a2 2 0 0 1 2 2v3.34a3.43 3.43 0 0 1-1.74 2.98l-5.15 2.92a3.53 3.53 0 0 1-3.48 0l-5.16-2.92a3.43 3.43 0 0 1-1.75-3z" stroke="#3a414a" fill="url(#x)" transform="matrix(-0.2856534037758258,-0.9583329968811911,0.9583329968811911,-0.2856534037758258,545.867113695522,2115.2297317075154)"/><path d="M1062.63 846.66a4 4 0 0 1 2.7-4.98l21.82-6.5a4 4 0 0 1 4.98 2.68l3.9 13.14a4 4 0 0 1-2.68 4.98l-21.83 6.5a4 4 0 0 1-4.98-2.7z" stroke="#3a414a" fill="#4c535d"/><path d="M1082.27 845.2a3.9 3.9 0 0 1 2.62-4.84 3.9 3.9 0 0 1 4.83 2.62l1.56 5.23a3.9 3.9 0 0 1-2.63 4.85 3.9 3.9 0 0 1-4.84-2.62z" stroke="#3a414a" fill="#979ea8"/><path d="M1176.83 834.03a2 2 0 0 1 2-2h20.55a2 2 0 0 1 2 2v20.43a2 2 0 0 1-2 2h-20.55a2 2 0 0 1-2-2z" stroke="#3a414a" fill="#fe7070"/><path d="M1196.8 835.37a2 2 0 0 1 2 2v13.07a2 2 0 0 1-2 2h-15.1a2 2 0 0 1-2-2v-13.07a2 2 0 0 1 2-2z" stroke="#3a414a" fill="#8c0c0c"/><path d="M1183.17 840.75h11.87v1.82h-11.87z" stroke="#000" stroke-opacity="0" fill="#fff"/><path d="M1190.15 841.66v10.78h-1.82v-10.78z" stroke="#000" stroke-opacity="0" fill="#fff"/><path d="M1180.7 836.36a2 2 0 0 1 2-2h13.07a2 2 0 0 1 2 2v15.1a2 2 0 0 1-2 2h-13.07a2 2 0 0 1-2-2z" stroke="#8c0c0c" fill="url(#y)" transform="matrix(6.123233995736766e-17,1,-1,6.123233995736766e-17,2033.1415252441734,-345.33454958635554)"/><path d="M933.43 836.42a3 3 0 0 1 3-3h14a3 3 0 0 1 3 3v21.35a3 3 0 0 1-3 3h-14a3 3 0 0 1-3-3z" stroke="#3a414a" stroke-width="2" fill="#4c535d"/><path d="M946.45 854.43c0 1.67-1.35 3.02-3.02 3.02-1.66 0-3-1.35-3-3.02 0-1.66 1.34-3 3-3 1.67 0 3.02 1.34 3.02 3z" stroke="#000" stroke-opacity="0" stroke-width="2" fill="#fe7070"/><path d="M935.02 848.6a2.6 2.6 0 0 1-2.6-2.6 2.6 2.6 0 0 1 2.6-2.6h18.8a2.6 2.6 0 0 1 2.6 2.6 2.6 2.6 0 0 1-2.6 2.6z" fill="none"/><use xlink:href="#z" transform="matrix(6.123233995736766e-17,-1,1,6.123233995736766e-17,932.4187278466413,848.6063185545755) translate(0.7962962962962958 14.666666666666668)"/><path d="M935.2 843.4a2.8 2.8 0 0 1-2.78-2.77 2.8 2.8 0 0 1 2.78-2.8h18.43a2.8 2.8 0 0 1 2.8 2.8 2.8 2.8 0 0 1-2.8 2.78z" fill="none"/><use xlink:href="#z" transform="matrix(6.123233995736766e-17,-1,1,6.123233995736766e-17,932.4187278466413,843.4102080106076) translate(0.7962962962962958 14.666666666666668)"/><path d="M932.45 690.05a3 3 0 0 1 3-3h14a3 3 0 0 1 3 3v21.35a3 3 0 0 1-3 3h-14a3 3 0 0 1-3-3z" stroke="#3a414a" stroke-width="2" fill="#4c535d"/><path d="M945.46 708.06c0 1.67-1.35 3.02-3 3.02-1.68 0-3.03-1.35-3.03-3.02 0-1.66 1.35-3 3.02-3 1.66 0 3 1.34 3 3z" stroke="#000" stroke-opacity="0" stroke-width="2" fill="#fff"/><path d="M934.03 702.24a2.6 2.6 0 0 1-2.6-2.6 2.6 2.6 0 0 1 2.6-2.6h18.8a2.6 2.6 0 0 1 2.6 2.6 2.6 2.6 0 0 1-2.6 2.6z" fill="none"/><use xlink:href="#A" transform="matrix(6.123233995736766e-17,-1,1,6.123233995736766e-17,931.4323237875715,702.2383462586716) translate(0.7962962962962958 14.666666666666668)"/><path d="M934.22 697.04a2.8 2.8 0 0 1-2.8-2.78 2.8 2.8 0 0 1 2.8-2.8h18.43a2.8 2.8 0 0 1 2.78 2.8 2.8 2.8 0 0 1-2.78 2.78z" fill="none"/><use xlink:href="#A" transform="matrix(6.123233995736766e-17,-1,1,6.123233995736766e-17,931.4323237875715,697.0422357147958) translate(0.7962962962962958 14.666666666666668)"/><path d="M929.46 442.38a3 3 0 0 1 3-3h14a3 3 0 0 1 3 3v21.35a3 3 0 0 1-3 3h-14a3 3 0 0 1-3-3z" stroke="#3a414a" stroke-width="2" fill="#4c535d"/><path d="M942.47 460.4c0 1.66-1.35 3-3 3-1.68 0-3.02-1.34-3.02-3 0-1.67 1.34-3.02 3-3.02 1.67 0 3.02 1.35 3.02 3z" stroke="#000" stroke-opacity="0" stroke-width="2" fill="#54c45e"/><path d="M931.04 454.57a2.6 2.6 0 0 1-2.6-2.6 2.6 2.6 0 0 1 2.6-2.6h18.8a2.6 2.6 0 0 1 2.6 2.6 2.6 2.6 0 0 1-2.6 2.6z" fill="none"/><use xlink:href="#B" transform="matrix(6.123233995736766e-17,-1,1,6.123233995736766e-17,928.4459197284659,454.565932465512) translate(0.7962962962962958 14.666666666666668)"/><path d="M931.23 449.37a2.8 2.8 0 0 1-2.78-2.8 2.8 2.8 0 0 1 2.78-2.77h18.43a2.8 2.8 0 0 1 2.8 2.78 2.8 2.8 0 0 1-2.8 2.8z" fill="none"/><use xlink:href="#B" transform="matrix(6.123233995736766e-17,-1,1,6.123233995736766e-17,928.4459197284659,449.3698219216361) translate(0.7962962962962958 14.666666666666668)"/><path d="M930.45 276.5a3 3 0 0 1 3-3h14a3 3 0 0 1 3 3v21.36a3 3 0 0 1-3 3h-14a3 3 0 0 1-3-3z" stroke="#3a414a" stroke-width="2" fill="#4c535d"/><path d="M943.46 294.52c0 1.67-1.35 3.02-3 3.02-1.68 0-3.03-1.35-3.03-3.02 0-1.66 1.35-3 3.02-3 1.66 0 3 1.34 3 3z" stroke="#000" stroke-opacity="0" stroke-width="2" fill="#fff"/><path d="M932.03 288.7a2.6 2.6 0 0 1-2.6-2.6 2.6 2.6 0 0 1 2.6-2.6h18.8a2.6 2.6 0 0 1 2.6 2.6 2.6 2.6 0 0 1-2.6 2.6z" fill="none"/><use xlink:href="#A" transform="matrix(6.123233995736766e-17,-1,1,6.123233995736766e-17,929.4323237875715,288.69910357813785) translate(0.7962962962962958 14.666666666666668)"/><path d="M932.22 283.5a2.8 2.8 0 0 1-2.8-2.78 2.8 2.8 0 0 1 2.8-2.8h18.43a2.8 2.8 0 0 1 2.78 2.8 2.8 2.8 0 0 1-2.78 2.78z" fill="none"/><use xlink:href="#A" transform="matrix(6.123233995736766e-17,-1,1,6.123233995736766e-17,929.4323237875715,283.502993034262) translate(0.7962962962962958 14.666666666666668)"/><path d="M1176.83 435.7a2 2 0 0 1 2-2h20.55a2 2 0 0 1 2 2v20.4a2 2 0 0 1-2 2h-20.55a2 2 0 0 1-2-2z" stroke="#3a414a" fill="#fe7070"/><path d="M1196.8 437.02a2 2 0 0 1 2 2v13.07a2 2 0 0 1-2 2h-15.1a2 2 0 0 1-2-2V439a2 2 0 0 1 2-2z" stroke="#3a414a" fill="#8c0c0c"/><path d="M1183.17 442.4h11.87v1.82h-11.87z" stroke="#000" stroke-opacity="0" fill="#fff"/><path d="M1190.15 443.32v10.77h-1.82V443.3z" stroke="#000" stroke-opacity="0" fill="#fff"/><path d="M1180.7 438a2 2 0 0 1 2-2h13.07a2 2 0 0 1 2 2v15.1a2 2 0 0 1-2 2h-13.07a2 2 0 0 1-2-2z" stroke="#8c0c0c" fill="url(#C)" transform="matrix(6.123233995736766e-17,1,-1,6.123233995736766e-17,1634.7936683791106,-743.6824064514728)"/><path d="M1176.96 688.65a2 2 0 0 1 2-2h20.55a2 2 0 0 1 2 2v20.43a2 2 0 0 1-2 2h-20.54a2 2 0 0 1-2-2z" stroke="#3a414a" fill="#fe7070"/><g><path d="M1196.92 689.98a2 2 0 0 1 2 2v13.07a2 2 0 0 1-2 2h-15.1a2 2 0 0 1-2-2v-13.07a2 2 0 0 1 2-2z" stroke="#3a414a" fill="#8c0c0c"/></g><path d="M1183.3 695.36h11.87v1.82h-11.87z" stroke="#000" stroke-opacity="0" fill="#fff"/><g><path d="M1190.28 696.28v10.77h-1.82v-10.77z" stroke="#000" stroke-opacity="0" fill="#fff"/></g><g><path d="M1180.84 690.97a2 2 0 0 1 2-2h13.07a2 2 0 0 1 2 2v15.1a2 2 0 0 1-2 2h-13.07a2 2 0 0 1-2-2z" stroke="#8c0c0c" fill="url(#D)" transform="matrix(6.123233995736766e-17,1,-1,6.123233995736766e-17,1887.8894780628964,-490.85161436725303)"/></g><path d="M1177.1 276.45a2 2 0 0 1 2-2h20.55a2 2 0 0 1 2 2v20.43a2 2 0 0 1-2 2h-20.55a2 2 0 0 1-2-2z" stroke="#3a414a" fill="#fe7070"/><g><path d="M1197.05 277.8a2 2 0 0 1 2 2v13.06a2 2 0 0 1-2 2h-15.1a2 2 0 0 1-2-2V279.8a2 2 0 0 1 2-2z" stroke="#3a414a" fill="#8c0c0c"/></g><path d="M1183.43 283.17h11.88V285h-11.87z" stroke="#000" stroke-opacity="0" fill="#fff"/><g><path d="M1190.4 284.1v10.76h-1.8V284.1z" stroke="#000" stroke-opacity="0" fill="#fff"/></g><g><path d="M1180.97 278.78a2 2 0 0 1 2-2h13.07a2 2 0 0 1 2 2v15.1a2 2 0 0 1-2 2h-13.07a2 2 0 0 1-2-2z" stroke="#8c0c0c" fill="url(#E)" transform="matrix(6.123233995736766e-17,1,-1,6.123233995736766e-17,1475.8269125279387,-903.1791975017766)"/></g><defs><radialGradient gradientUnits="userSpaceOnUse" id="a" fx="1135.78" fy="285.77" cx="1135.78" cy="285.77" r="14.03"><stop offset="0%" stop-color="#fff"/><stop offset="20%" stop-color="#fff"/><stop offset="100%" stop-color="#dbdbdb"/></radialGradient><radialGradient gradientUnits="userSpaceOnUse" id="b" fx="1136.76" fy="444.96" cx="1136.76" cy="444.96" r="14.03"><stop offset="0%" stop-color="#fff"/><stop offset="20%" stop-color="#fff"/><stop offset="100%" stop-color="#dbdbdb"/></radialGradient><radialGradient gradientUnits="userSpaceOnUse" id="c" fx="1135.78" fy="697.89" cx="1135.78" cy="697.89" r="14.03"><stop offset="0%" stop-color="#fff"/><stop offset="20%" stop-color="#fff"/><stop offset="100%" stop-color="#dbdbdb"/></radialGradient><radialGradient gradientUnits="userSpaceOnUse" id="d" fx="1135.78" fy="846.26" cx="1135.78" cy="846.26" r="14.03"><stop offset="0%" stop-color="#fff"/><stop offset="20%" stop-color="#fff"/><stop offset="100%" stop-color="#dbdbdb"/></radialGradient><path d="M205 0l-28-72H64L36 0H1l101-248h38L239 0h-34zm-38-99l-47-123c-12 45-31 82-46 123h93" id="F"/><path d="M114-163C36-179 61-72 57 0H25l-1-190h30c1 12-1 29 2 39 6-27 23-49 58-41v29" id="G"/><path d="M100-194c63 0 86 42 84 106H49c0 40 14 67 53 68 26 1 43-12 49-29l28 8c-11 28-37 45-77 45C44 4 14-33 15-96c1-61 26-98 85-98zm52 81c6-60-76-77-97-28-3 7-6 17-6 28h103" id="H"/><path d="M141-36C126-15 110 5 73 4 37 3 15-17 15-53c-1-64 63-63 125-63 3-35-9-54-41-54-24 1-41 7-42 31l-33-3c5-37 33-52 76-52 45 0 72 20 72 64v82c-1 20 7 32 28 27v20c-31 9-61-2-59-35zM48-53c0 20 12 33 32 33 41-3 63-29 60-74-43 2-92-5-92 41" id="I"/><g id="e"><use transform="matrix(0.04320987654320988,0,0,0.04320987654320988,0,0)" xlink:href="#F"/><use transform="matrix(0.04320987654320988,0,0,0.04320987654320988,10.370370370370372,0)" xlink:href="#G"/><use transform="matrix(0.04320987654320988,0,0,0.04320987654320988,15.512345679012347,0)" xlink:href="#H"/><use transform="matrix(0.04320987654320988,0,0,0.04320987654320988,24.154320987654323,0)" xlink:href="#I"/></g><path d="M212-179c-10-28-35-45-73-45-59 0-87 40-87 99 0 60 29 101 89 101 43 0 62-24 78-52l27 14C228-24 195 4 139 4 59 4 22-46 18-125c-6-104 99-153 187-111 19 9 31 26 39 46" id="J"/><path d="M100-194c62-1 85 37 85 99 1 63-27 99-86 99S16-35 15-95c0-66 28-99 85-99zM99-20c44 1 53-31 53-75 0-43-8-75-51-75s-53 32-53 75 10 74 51 75" id="K"/><path d="M117-194c89-4 53 116 60 194h-32v-121c0-31-8-49-39-48C34-167 62-67 57 0H25l-1-190h30c1 10-1 24 2 32 11-22 29-35 61-36" id="L"/><path d="M59-47c-2 24 18 29 38 22v24C64 9 27 4 27-40v-127H5v-23h24l9-43h21v43h35v23H59v120" id="M"/><path d="M24 0v-261h32V0H24" id="N"/><g id="f"><use transform="matrix(0.04320987654320988,0,0,0.04320987654320988,0,0)" xlink:href="#J"/><use transform="matrix(0.04320987654320988,0,0,0.04320987654320988,11.19135802469136,0)" xlink:href="#K"/><use transform="matrix(0.04320987654320988,0,0,0.04320987654320988,19.833333333333336,0)" xlink:href="#L"/><use transform="matrix(0.04320987654320988,0,0,0.04320987654320988,28.47530864197531,0)" xlink:href="#M"/><use transform="matrix(0.04320987654320988,0,0,0.04320987654320988,32.7962962962963,0)" xlink:href="#G"/><use transform="matrix(0.04320987654320988,0,0,0.04320987654320988,37.93827160493827,0)" xlink:href="#K"/><use transform="matrix(0.04320987654320988,0,0,0.04320987654320988,46.58024691358024,0)" xlink:href="#N"/><use transform="matrix(0.04320987654320988,0,0,0.04320987654320988,49.99382716049383,0)" xlink:href="#N"/><use transform="matrix(0.04320987654320988,0,0,0.04320987654320988,53.40740740740741,0)" xlink:href="#H"/><use transform="matrix(0.04320987654320988,0,0,0.04320987654320988,62.04938271604939,0)" xlink:href="#G"/></g><path d="M143 4C61 4 22-44 18-125c-5-107 100-154 193-111 17 8 29 25 37 43l-32 9c-13-25-37-40-76-40-61 0-88 39-88 99 0 61 29 100 91 101 35 0 62-11 79-27v-45h-74v-28h105v86C228-13 192 4 143 4" id="O"/><path d="M63-220v92h138v28H63V0H30v-248h175v28H63" id="P"/><g id="g"><use transform="matrix(0.06172839506172839,0,0,0.06172839506172839,0,0)" xlink:href="#O"/><use transform="matrix(0.06172839506172839,0,0,0.06172839506172839,17.28395061728395,0)" xlink:href="#P"/></g><path d="M101-251c68 0 85 55 85 127S166 4 100 4C33 4 14-52 14-124c0-73 17-127 87-127zm-1 229c47 0 54-49 54-102s-4-102-53-102c-51 0-55 48-55 102 0 53 5 102 54 102" id="Q"/><path d="M27 0v-27h64v-190l-56 39v-29l58-41h29v221h61V0H27" id="R"/><g id="h"><use transform="matrix(0.06172839506172839,0,0,0.06172839506172839,0,0)" xlink:href="#Q"/><use transform="matrix(0.06172839506172839,0,0,0.06172839506172839,12.345679012345679,0)" xlink:href="#R"/></g><path d="M99-251c64 0 84 50 84 122C183-37 130 33 47-8c-14-7-20-23-25-40l30-5c6 39 69 39 84 7 9-19 16-44 16-74-10 22-31 35-62 35-49 0-73-33-73-83 0-54 28-83 82-83zm-1 141c31-1 51-18 51-49 0-36-14-67-51-67-34 0-49 23-49 58 0 34 15 58 49 58" id="S"/><g id="i"><use transform="matrix(0.06172839506172839,0,0,0.06172839506172839,0,0)" xlink:href="#Q"/><use transform="matrix(0.06172839506172839,0,0,0.06172839506172839,12.345679012345679,0)" xlink:href="#S"/></g><g id="j"><use transform="matrix(0.06172839506172839,0,0,0.06172839506172839,0,0)" xlink:href="#R"/><use transform="matrix(0.06172839506172839,0,0,0.06172839506172839,12.345679012345679,0)" xlink:href="#Q"/></g><path d="M160-131c35 5 61 23 61 61C221 17 115-2 30 0v-248c76 3 177-17 177 60 0 33-19 50-47 57zm-97-11c50-1 110 9 110-42 0-47-63-36-110-37v79zm0 115c55-2 124 14 124-45 0-56-70-42-124-44v89" id="T"/><path d="M84 4C-5 8 30-112 23-190h32v120c0 31 7 50 39 49 72-2 45-101 50-169h31l1 190h-30c-1-10 1-25-2-33-11 22-28 36-60 37" id="U"/><path d="M24-231v-30h32v30H24zM24 0v-190h32V0H24" id="V"/><path d="M85-194c31 0 48 13 60 33l-1-100h32l1 261h-30c-2-10 0-23-3-31C134-8 116 4 85 4 32 4 16-35 15-94c0-66 23-100 70-100zm9 24c-40 0-46 34-46 75 0 40 6 74 45 74 42 0 51-32 51-76 0-42-9-74-50-73" id="W"/><path d="M177-190C167-65 218 103 67 71c-23-6-38-20-44-43l32-5c15 47 100 32 89-28v-30C133-14 115 1 83 1 29 1 15-40 15-95c0-56 16-97 71-98 29-1 48 16 59 35 1-10 0-23 2-32h30zM94-22c36 0 50-32 50-73 0-42-14-75-50-75-39 0-46 34-46 75s6 73 46 73" id="X"/><g id="k"><use transform="matrix(0.05,0,0,0.05,0,0)" xlink:href="#T"/><use transform="matrix(0.05,0,0,0.05,12,0)" xlink:href="#U"/><use transform="matrix(0.05,0,0,0.05,22,0)" xlink:href="#V"/><use transform="matrix(0.05,0,0,0.05,25.950000000000003,0)" xlink:href="#N"/><use transform="matrix(0.05,0,0,0.05,29.899999999999995,0)" xlink:href="#W"/><use transform="matrix(0.05,0,0,0.05,39.9,0)" xlink:href="#V"/><use transform="matrix(0.05,0,0,0.05,43.85,0)" xlink:href="#L"/><use transform="matrix(0.05,0,0,0.05,53.85,0)" xlink:href="#X"/></g><g id="l"><use transform="matrix(0.05,0,0,0.05,0,0)" xlink:href="#J"/><use transform="matrix(0.05,0,0,0.05,12.950000000000001,0)" xlink:href="#K"/><use transform="matrix(0.05,0,0,0.05,22.950000000000003,0)" xlink:href="#L"/><use transform="matrix(0.05,0,0,0.05,32.95,0)" xlink:href="#M"/><use transform="matrix(0.05,0,0,0.05,37.95,0)" xlink:href="#G"/><use transform="matrix(0.05,0,0,0.05,43.900000000000006,0)" xlink:href="#K"/><use transform="matrix(0.05,0,0,0.05,53.900000000000006,0)" xlink:href="#N"/><use transform="matrix(0.05,0,0,0.05,57.85,0)" xlink:href="#N"/><use transform="matrix(0.05,0,0,0.05,61.80000000000001,0)" xlink:href="#H"/><use transform="matrix(0.05,0,0,0.05,71.80000000000001,0)" xlink:href="#G"/></g><path d="M30 0v-248h187v28H63v79h144v27H63v87h162V0H30" id="Y"/><g id="m"><use transform="matrix(0.05,0,0,0.05,0,0)" xlink:href="#Y"/><use transform="matrix(0.05,0,0,0.05,12,0)" xlink:href="#W"/><use transform="matrix(0.05,0,0,0.05,22,0)" xlink:href="#X"/><use transform="matrix(0.05,0,0,0.05,32,0)" xlink:href="#H"/></g><path d="M206 0h-36l-40-164L89 0H53L-1-190h32L70-26l43-164h34l41 164 42-164h31" id="Z"/><path d="M179-190L93 31C79 59 56 82 12 73V49c39 6 53-20 64-50L1-190h34L92-34l54-156h33" id="aa"/><g id="n"><use transform="matrix(0.05,0,0,0.05,0,0)" xlink:href="#O"/><use transform="matrix(0.05,0,0,0.05,14,0)" xlink:href="#I"/><use transform="matrix(0.05,0,0,0.05,24,0)" xlink:href="#M"/><use transform="matrix(0.05,0,0,0.05,29,0)" xlink:href="#H"/><use transform="matrix(0.05,0,0,0.05,39,0)" xlink:href="#Z"/><use transform="matrix(0.05,0,0,0.05,51.95,0)" xlink:href="#I"/><use transform="matrix(0.05,0,0,0.05,61.95,0)" xlink:href="#aa"/></g><filter id="o" filterUnits="objectBoundingBox" x="-.01" y="0" width="1.01" height="1.03"><feOffset result="offOut" in="SourceAlpha" dy="3"/><feGaussianBlur result="blurOut" in="offOut" stdDeviation=".5"/><feColorMatrix result="colorOut" in="blurOut" values="0 0 0 0 0 0 0 0 0 0 0 0 0 0 0 0 0 0 0.5019607843137255 0"/><feBlend in="SourceGraphic" in2="colorOut"/></filter><path fill="#333" d="M101-251c82-7 93 87 43 132L82-64C71-53 59-42 53-27h129V0H18c2-99 128-94 128-182 0-28-16-43-45-43s-46 15-49 41l-32-3c6-41 34-60 81-64" id="ab"/><path fill="#333" d="M155-56V0h-30v-56H8v-25l114-167h33v167h35v25h-35zm-30-156c-27 46-58 90-88 131h88v-131" id="ac"/><path fill="#333" d="M72-251c31 0 50 20 50 50s-20 50-50 50-51-20-51-50 19-50 51-50zm0 81c19 0 31-12 31-31 1-20-13-32-31-32s-32 12-31 32c0 19 12 31 31 31" id="ad"/><path fill="#333" d="M212-179c-10-28-35-45-73-45-59 0-87 40-87 99 0 60 29 101 89 101 43 0 62-24 78-52l27 14C228-24 195 4 139 4 59 4 22-46 18-125c-6-104 99-153 187-111 19 9 31 26 39 46" id="ae"/><g id="p"><use transform="matrix(0.03703703703703702,0,0,0.03703703703703702,0,0)" xlink:href="#ab"/><use transform="matrix(0.03703703703703702,0,0,0.03703703703703702,7.407407407407404,0)" xlink:href="#ac"/><use transform="matrix(0.03703703703703702,0,0,0.03703703703703702,14.814814814814808,0)" xlink:href="#ad"/><use transform="matrix(0.03703703703703702,0,0,0.03703703703703702,20.111111111111097,0)" xlink:href="#ae"/></g><path fill="#333" d="M205 0l-28-72H64L36 0H1l101-248h38L239 0h-34zm-38-99l-47-123c-12 45-31 82-46 123h93" id="af"/><path fill="#333" d="M24 0v-261h32V0H24" id="ag"/><g id="q"><use transform="matrix(0.018518518518518504,0,0,0.018518518518518504,0,0)" xlink:href="#af"/><use transform="matrix(0.018518518518518504,0,0,0.018518518518518504,4.444444444444441,0)" xlink:href="#ag"/><use transform="matrix(0.018518518518518504,0,0,0.018518518518518504,5.907407407407403,0)" xlink:href="#ag"/></g><path fill="#333" d="M140-251c81 0 123 46 123 126C263-46 219 4 140 4 59 4 17-45 17-125s42-126 123-126zm0 227c63 0 89-41 89-101s-29-99-89-99c-61 0-89 39-89 99S79-25 140-24" id="ah"/><path fill="#333" d="M101-234c-31-9-42 10-38 44h38v23H63V0H32v-167H5v-23h27c-7-52 17-82 69-68v24" id="ai"/><g id="r"><use transform="matrix(0.018518518518518504,0,0,0.018518518518518504,0,0)" xlink:href="#ah"/><use transform="matrix(0.018518518518518504,0,0,0.018518518518518504,5.185185185185181,0)" xlink:href="#ai"/><use transform="matrix(0.018518518518518504,0,0,0.018518518518518504,6.907407407407401,0)" xlink:href="#ai"/></g><path d="M127-220V0H93v-220H8v-28h204v28h-85" id="aj"/><path d="M135-143c-3-34-86-38-87 0 15 53 115 12 119 90S17 21 10-45l28-5c4 36 97 45 98 0-10-56-113-15-118-90-4-57 82-63 122-42 12 7 21 19 24 35" id="ak"/><g id="s"><use transform="matrix(0.04217232582068305,0,0,0.04217232582068305,0,0)" xlink:href="#aj"/><use transform="matrix(0.04217232582068305,0,0,0.04217232582068305,8.687499119060709,0)" xlink:href="#G"/><use transform="matrix(0.04217232582068305,0,0,0.04217232582068305,13.706005891721992,0)" xlink:href="#U"/><use transform="matrix(0.04217232582068305,0,0,0.04217232582068305,22.1404710558586,0)" xlink:href="#ak"/><use transform="matrix(0.04217232582068305,0,0,0.04217232582068305,29.73148970358155,0)" xlink:href="#M"/></g><g id="t"><use transform="matrix(0.04217232582068305,0,0,0.04217232582068305,0,0)" xlink:href="#T"/><use transform="matrix(0.04217232582068305,0,0,0.04217232582068305,10.121358196963932,0)" xlink:href="#K"/><use transform="matrix(0.04217232582068305,0,0,0.04217232582068305,18.55582336110054,0)" xlink:href="#U"/><use transform="matrix(0.04217232582068305,0,0,0.04217232582068305,26.990288525237148,0)" xlink:href="#L"/><use transform="matrix(0.04217232582068305,0,0,0.04217232582068305,35.42475368937376,0)" xlink:href="#W"/><use transform="matrix(0.04217232582068305,0,0,0.04217232582068305,43.85921885351038,0)" xlink:href="#I"/><use transform="matrix(0.04217232582068305,0,0,0.04217232582068305,52.29368401764699,0)" xlink:href="#G"/><use transform="matrix(0.04217232582068305,0,0,0.04217232582068305,57.31219079030827,0)" xlink:href="#aa"/></g><g id="u"><use transform="matrix(0.06172839506172839,0,0,0.06172839506172839,0,0)" xlink:href="#aj"/><use transform="matrix(0.06172839506172839,0,0,0.06172839506172839,11.049382716049381,0)" xlink:href="#H"/><use transform="matrix(0.06172839506172839,0,0,0.06172839506172839,23.39506172839506,0)" xlink:href="#L"/><use transform="matrix(0.06172839506172839,0,0,0.06172839506172839,35.74074074074074,0)" xlink:href="#I"/><use transform="matrix(0.06172839506172839,0,0,0.06172839506172839,48.08641975308642,0)" xlink:href="#L"/><use transform="matrix(0.06172839506172839,0,0,0.06172839506172839,60.432098765432094,0)" xlink:href="#M"/></g><g id="v"><use transform="matrix(0.06172839506172839,0,0,0.06172839506172839,0,0)" xlink:href="#J"/><use transform="matrix(0.06172839506172839,0,0,0.06172839506172839,15.987654320987653,0)" xlink:href="#N"/><use transform="matrix(0.06172839506172839,0,0,0.06172839506172839,20.864197530864196,0)" xlink:href="#K"/><use transform="matrix(0.06172839506172839,0,0,0.06172839506172839,33.20987654320987,0)" xlink:href="#U"/><use transform="matrix(0.06172839506172839,0,0,0.06172839506172839,45.55555555555555,0)" xlink:href="#W"/></g><path d="M185-189c-5-48-123-54-124 2 14 75 158 14 163 119 3 78-121 87-175 55-17-10-28-26-33-46l33-7c5 56 141 63 141-1 0-78-155-14-162-118-5-82 145-84 179-34 5 7 8 16 11 25" id="al"/><path d="M108 0H70L1-190h34L89-25l56-165h34" id="am"/><path d="M96-169c-40 0-48 33-48 73s9 75 48 75c24 0 41-14 43-38l32 2c-6 37-31 61-74 61-59 0-76-41-82-99-10-93 101-131 147-64 4 7 5 14 7 22l-32 3c-4-21-16-35-41-35" id="an"/><g id="w"><use transform="matrix(0.06172839506172839,0,0,0.06172839506172839,0,0)" xlink:href="#al"/><use transform="matrix(0.06172839506172839,0,0,0.06172839506172839,14.814814814814813,0)" xlink:href="#H"/><use transform="matrix(0.06172839506172839,0,0,0.06172839506172839,27.160493827160494,0)" xlink:href="#G"/><use transform="matrix(0.06172839506172839,0,0,0.06172839506172839,34.50617283950617,0)" xlink:href="#am"/><use transform="matrix(0.06172839506172839,0,0,0.06172839506172839,45.61728395061728,0)" xlink:href="#V"/><use transform="matrix(0.06172839506172839,0,0,0.06172839506172839,50.49382716049382,0)" xlink:href="#an"/><use transform="matrix(0.06172839506172839,0,0,0.06172839506172839,61.60493827160494,0)" xlink:href="#H"/></g><linearGradient gradientUnits="userSpaceOnUse" id="x" x1="1052.65" y1="860.29" x2="1069.92" y2="860.29"><stop offset="0%" stop-color="#3a414a"/><stop offset="100%" stop-color="#dbdbdb"/></linearGradient><linearGradient gradientUnits="userSpaceOnUse" id="y" x1="1180.7" y1="853.45" x2="1197.77" y2="846.18"><stop offset="0%" stop-opacity="0"/><stop offset="23.55%" stop-color="#fff"/><stop offset="100%" stop-opacity="0"/></linearGradient><path fill="#fe7070" d="M33-261c38 41 65 92 65 168S71 34 33 75H2C39 34 66-17 66-93S39-220 2-261h31" id="ao"/><use transform="matrix(0.03703703703703704,0,0,0.03703703703703704,0,0)" xlink:href="#ao" id="z"/><path fill="#fff" d="M33-261c38 41 65 92 65 168S71 34 33 75H2C39 34 66-17 66-93S39-220 2-261h31" id="ap"/><use transform="matrix(0.03703703703703704,0,0,0.03703703703703704,0,0)" xlink:href="#ap" id="A"/><path fill="#54c45e" d="M33-261c38 41 65 92 65 168S71 34 33 75H2C39 34 66-17 66-93S39-220 2-261h31" id="aq"/><use transform="matrix(0.03703703703703704,0,0,0.03703703703703704,0,0)" xlink:href="#aq" id="B"/><linearGradient gradientUnits="userSpaceOnUse" id="C" x1="1180.7" y1="455.1" x2="1197.77" y2="447.83"><stop offset="0%" stop-opacity="0"/><stop offset="23.55%" stop-color="#fff"/><stop offset="100%" stop-opacity="0"/></linearGradient><linearGradient gradientUnits="userSpaceOnUse" id="D" x1="1180.83" y1="708.07" x2="1197.91" y2="700.79"><stop offset="0%" stop-opacity="0"/><stop offset="23.55%" stop-color="#fff"/><stop offset="100%" stop-opacity="0"/></linearGradient><linearGradient gradientUnits="userSpaceOnUse" id="E" x1="1180.97" y1="295.87" x2="1198.04" y2="288.6"><stop offset="0%" stop-opacity="0"/><stop offset="23.55%" stop-color="#fff"/><stop offset="100%" stop-opacity="0"/></linearGradient></defs></g></svg>