<svg xmlns="http://www.w3.org/2000/svg" xmlns:xlink="http://www.w3.org/1999/xlink" xmlns:lucid="lucid" width="1063.98" height="704"><g transform="translate(-418.99999991660707 -157.999999981936)" lucid:page-tab-id="0_0"><path d="M721 172a12 12 0 0 1 12-12h435a12 12 0 0 1 12 12v676a12 12 0 0 1-12 12H733a12 12 0 0 1-12-12z" stroke="#ef8d22" stroke-width="4" fill="#ffdba9"/><use xlink:href="#a" transform="matrix(1,0,0,1,732.9881792654762,172) translate(0 17.77777777777778)"/><path d="M420 466a6 6 0 0 1 6-6h148a6 6 0 0 1 6 6v48a6 6 0 0 1-6 6H426a6 6 0 0 1-6-6z" stroke="#19967d" stroke-width="2" fill="#99d5ca"/><path d="M436 460v60m128-60v60" stroke="#19967d" stroke-width="2" fill="none"/><use xlink:href="#b" transform="matrix(1,0,0,1,445,465.00000000000006) translate(30.95679012345679 29.444444444444443)"/><path d="M420 226a6 6 0 0 1 6-6h148a6 6 0 0 1 6 6v51.33a6 6 0 0 1-6 6H426a6 6 0 0 1-6-6z" stroke="#19967d" stroke-width="2" fill="#99d5ca"/><path d="M436 220v63.33M564 220v63.33" stroke="#19967d" stroke-width="2" fill="none"/><use xlink:href="#c" transform="matrix(1,0,0,1,445,225.00000000000009) translate(19.19753086419753 18.111111111111114)"/><use xlink:href="#d" transform="matrix(1,0,0,1,445,225.00000000000009) translate(19.29012345679012 44.777777777777786)"/><path d="M420 306a6 6 0 0 1 6-6h148a6 6 0 0 1 6 6v51.33a6 6 0 0 1-6 6H426a6 6 0 0 1-6-6z" stroke="#19967d" stroke-width="2" fill="#99d5ca"/><path d="M436 300v63.33M564 300v63.33" stroke="#19967d" stroke-width="2" fill="none"/><use xlink:href="#e" transform="matrix(1,0,0,1,445,304.99999999999994) translate(24.845679012345684 31.444444444444443)"/><path d="M420 386a6 6 0 0 1 6-6h148a6 6 0 0 1 6 6v51.33a6 6 0 0 1-6 6H426a6 6 0 0 1-6-6z" stroke="#19967d" stroke-width="2" fill="#99d5ca"/><path d="M436 380v63.33M564 380v63.33" stroke="#19967d" stroke-width="2" fill="none"/><use xlink:href="#f" transform="matrix(1,0,0,1,445,385.00000000000017) translate(34.660493827160494 31.444444444444443)"/><path d="M420 546a6 6 0 0 1 6-6h148a6 6 0 0 1 6 6v48a6 6 0 0 1-6 6H426a6 6 0 0 1-6-6z" stroke="#19967d" stroke-width="2" fill="#99d5ca"/><path d="M436 540v60m128-60v60" stroke="#19967d" stroke-width="2" fill="none"/><use xlink:href="#g" transform="matrix(1,0,0,1,445,545.0000000000001) translate(11.882716049382715 29.444444444444443)"/><path d="M420 626a6 6 0 0 1 6-6h148a6 6 0 0 1 6 6v48a6 6 0 0 1-6 6H426a6 6 0 0 1-6-6z" stroke="#19967d" stroke-width="2" fill="#99d5ca"/><path d="M436 620v60m128-60v60" stroke="#19967d" stroke-width="2" fill="none"/><use xlink:href="#h" transform="matrix(1,0,0,1,445,625) translate(3.9506172839506206 29.444444444444443)"/><use xlink:href="#i" transform="matrix(1,0,0,1,445,625) translate(48.20987654320988 29.444444444444443)"/><path d="M740 466a6 6 0 0 1 6-6h148a6 6 0 0 1 6 6v51.33a6 6 0 0 1-6 6H746a6 6 0 0 1-6-6z" stroke="#19967d" stroke-width="2" fill="#99d5ca"/><use xlink:href="#j" transform="matrix(1,0,0,1,745,465.0000001289353) translate(36.75925925925927 31.27777777777778)"/><path d="M740 306a6 6 0 0 1 6-6h148a6 6 0 0 1 6 6v51.33a6 6 0 0 1-6 6H746a6 6 0 0 1-6-6z" stroke="#19967d" stroke-width="2" fill="#99d5ca"/><use xlink:href="#k" transform="matrix(1,0,0,1,745,305.00000012893537) translate(45.4320987654321 31.27777777777778)"/><path d="M740 226a6 6 0 0 1 6-6h148a6 6 0 0 1 6 6v51.33a6 6 0 0 1-6 6H746a6 6 0 0 1-6-6z" stroke="#19967d" stroke-width="2" fill="#99d5ca"/><use xlink:href="#l" transform="matrix(1,0,0,1,745,225.0000001289354) translate(46.01851851851852 31.27777777777778)"/><path d="M581.97 272.16l156.06 39" stroke="#5e5e5e" stroke-width="2" fill="none"/><path d="M582.23 271.22l-.47 1.9-.76-.2v-2zM739 310.4v2.02l-1.23-.3.47-1.9z" stroke="#5e5e5e" stroke-width=".05" fill="#5e5e5e"/><path d="M582 251.67h156" stroke="#5e5e5e" stroke-width="2" fill="none"/><path d="M582.03 252.64H581v-1.95h1.03zM739 252.64h-1.03v-1.95H739z" stroke="#5e5e5e" stroke-width=".05" fill="#5e5e5e"/><path d="M582 331.67h156" stroke="#5e5e5e" stroke-width="2" fill="none"/><path d="M582.03 332.64H581v-1.95h1.03zM739 332.64h-1.03v-1.95H739z" stroke="#5e5e5e" stroke-width=".05" fill="#5e5e5e"/><path d="M581.97 432.16l156.06 39" stroke="#5e5e5e" stroke-width="2" fill="none"/><path d="M582.23 431.22l-.47 1.9-.76-.2v-2zM739 470.4v2.02l-1.23-.3.47-1.9z" stroke="#5e5e5e" stroke-width=".05" fill="#5e5e5e"/><path d="M581.97 391.17l156.06-39" stroke="#5e5e5e" stroke-width="2" fill="none"/><path d="M582.23 392.1l-1.23.32v-2l.76-.2zM739 352.92l-.76.2-.47-1.9 1.23-.3z" stroke="#5e5e5e" stroke-width=".05" fill="#5e5e5e"/><path d="M582 490.43l156 .8" stroke="#5e5e5e" stroke-width="2" fill="none"/><path d="M582.03 489.45v1.95H581v-1.95zM739 490.27v1.95h-1.03v-1.96z" stroke="#5e5e5e" stroke-width=".05" fill="#5e5e5e"/><path d="M740 702.67a6 6 0 0 1 6-6h148a6 6 0 0 1 6 6V754a6 6 0 0 1-6 6H746a6 6 0 0 1-6-6z" stroke="#19967d" stroke-width="2" fill="#99d5ca"/><use xlink:href="#m" transform="matrix(1,0,0,1,745,701.6666666666666) translate(50.339506172839506 31.27777777777778)"/><path d="M582 729.57h2.92m3.9-.03l5.85-.03m3.9 0l5.85-.04m3.9-.02l5.85-.04m3.9 0l5.85-.04m3.9-.03l5.85-.03m3.9-.02l5.85-.03m3.9-.02l5.85-.03m3.9-.02l5.85-.03m3.9-.02l5.85-.03m3.9-.02l5.85-.03m3.9-.02l5.85-.03m3.9-.02l5.85-.03m3.9-.02l5.85-.03m3.9-.02l5.85-.03m3.9-.02l5.85-.03m3.9-.02l2.93-.02M582.03 729.57H581" stroke="#5e5e5e" stroke-width="2" fill="none"/><path d="M739 729.73h-1.02v-1.94l1.02-.02z" stroke="#5e5e5e" stroke-width=".05" fill="#5e5e5e"/><path d="M581.97 549.93l156.06-38.2" stroke="#5e5e5e" stroke-width="2" fill="none"/><path d="M582.23 550.88l-1.23.3v-2l.76-.2zM739 512.5l-.76.2-.47-1.9 1.23-.3z" stroke="#5e5e5e" stroke-width=".05" fill="#5e5e5e"/><path d="M563.55 618.56l189.53-93.78" stroke="#5e5e5e" stroke-width="2" fill="none"/><path d="M563.8 619h-3.35l2.7-1.33zM753.5 525.66l-.66-1.33h3.34z" stroke="#5e5e5e" stroke-width=".05" fill="#5e5e5e"/><path d="M1321.98 381.83a6 6 0 0 1 6-6h148a6 6 0 0 1 6 6v51.34a6 6 0 0 1-6 6h-148a6 6 0 0 1-6-6z" stroke="#3aa6dd" stroke-width="2" fill="#c1e4f7"/><path d="M1337.98 375.83v63.34m128-63.34v63.34" stroke="#3aa6dd" stroke-width="2" fill="none"/><use xlink:href="#n" transform="matrix(1,0,0,1,1346.976358530953,380.8333333332941) translate(27.25308641975309 18.111111111111114)"/><use xlink:href="#o" transform="matrix(1,0,0,1,1346.976358530953,380.8333333332941) translate(1.4506172839506064 44.777777777777786)"/><path d="M1321 704.78a6 6 0 0 1 6-6h148a6 6 0 0 1 6 6v51.33a6 6 0 0 1-6 6h-148a6 6 0 0 1-6-6z" stroke="#3aa6dd" stroke-width="2" fill="#c1e4f7"/><path d="M1337 698.78v63.33m128-63.32v63.33" stroke="#3aa6dd" stroke-width="2" fill="none"/><use xlink:href="#p" transform="matrix(1,0,0,1,1345.9881792654764,703.7759614857212) translate(26.69753086419753 18.111111111111114)"/><use xlink:href="#q" transform="matrix(1,0,0,1,1345.9881792654764,703.7759614857212) translate(26.049382716049386 44.777777777777786)"/><path d="M1321.98 301.83a6 6 0 0 1 6-6h148a6 6 0 0 1 6 6v51.34a6 6 0 0 1-6 6h-148a6 6 0 0 1-6-6z" stroke="#3aa6dd" stroke-width="2" fill="#c1e4f7"/><path d="M1337.98 295.83v63.34m128-63.34v63.34" stroke="#3aa6dd" stroke-width="2" fill="none"/><use xlink:href="#r" transform="matrix(1,0,0,1,1346.976358530953,300.8333333332939) translate(11.203703703703702 31.444444444444443)"/><path d="M1000 462.67a6 6 0 0 1 6-6h148a6 6 0 0 1 6 6V514a6 6 0 0 1-6 6h-148a6 6 0 0 1-6-6z" stroke="#3aa6dd" stroke-width="2" fill="#c1e4f7"/><use xlink:href="#s" transform="matrix(1,0,0,1,1005,461.6666666666664) translate(18.333333333333343 21.15277777777778)"/><use xlink:href="#t" transform="matrix(1,0,0,1,1005,461.6666666666664) translate(83.64197530864197 21.15277777777778)"/><use xlink:href="#u" transform="matrix(1,0,0,1,1005,461.6666666666664) translate(57.098765432098766 47.81944444444444)"/><path d="M1001 704.78a6 6 0 0 1 6-6h148a6 6 0 0 1 6 6v51.33a6 6 0 0 1-6 6h-148a6 6 0 0 1-6-6z" stroke="#3aa6dd" stroke-width="2" fill="#c1e4f7"/><use xlink:href="#v" transform="matrix(1,0,0,1,1005.9881792654767,703.7759614857209) translate(43.611111111111114 31.27777777777778)"/><path d="M1163 730.44h156" stroke="#5e5e5e" stroke-width="2" fill="none"/><path d="M1163 731.42h-1v-1.95h1zM1320 731.42h-1.04v-1.95h1.03z" stroke="#5e5e5e" stroke-width=".05" fill="#5e5e5e"/><path d="M1146.3 455.22l189.4-94.6" stroke="#5e5e5e" stroke-width="2" fill="none"/><path d="M1146.54 455.67h-3.33l2.68-1.33zM1336.1 361.5l-.67-1.33h3.33z" stroke="#5e5e5e" stroke-width=".05" fill="#5e5e5e"/><path d="M1161.97 467.75L1320 428.08" stroke="#5e5e5e" stroke-width="2" fill="none"/><path d="M1162.23 468.7l-1.23.3v-2l.76-.2zM1320.98 428.84l-.76.2-.48-1.9 1.24-.3z" stroke="#5e5e5e" stroke-width=".05" fill="#5e5e5e"/><path d="M1321.98 461.83a6 6 0 0 1 6-6h148a6 6 0 0 1 6 6v51.34a6 6 0 0 1-6 6h-148a6 6 0 0 1-6-6z" stroke="#3aa6dd" stroke-width="2" fill="#c1e4f7"/><path d="M1337.98 455.83v63.34m128-63.34v63.34" stroke="#3aa6dd" stroke-width="2" fill="none"/><use xlink:href="#w" transform="matrix(1,0,0,1,1346.976358530953,460.83333333329415) translate(34.660493827160494 31.444444444444443)"/><path d="M1162 488.12l157.98-.4" stroke="#5e5e5e" stroke-width="2" fill="none"/><path d="M1162.03 489.1H1161v-1.95h1.02zM1320.98 488.7h-1.03v-1.96h1.03z" stroke="#5e5e5e" stroke-width=".05" fill="#5e5e5e"/><path d="M920 226a6 6 0 0 1 6-6h48a6 6 0 0 1 6 6v531.33a6 6 0 0 1-6 6h-48a6 6 0 0 1-6-6z" stroke="#ef8d22" stroke-width="2" fill="#fff" fill-opacity=".7"/><use xlink:href="#x" transform="matrix(-1.8369701987210297e-16,-1,1,-1.8369701987210297e-16,925.0000000000002,758.3333334622686) translate(199.28395061728395 30.52777777777778)"/><path d="M1000 226a6 6 0 0 1 6-6h148a6 6 0 0 1 6 6v208a6 6 0 0 1-6 6h-148a6 6 0 0 1-6-6z" stroke="#ef8d22" stroke-width="2" fill="#fff" fill-opacity=".7"/><use xlink:href="#y" transform="matrix(1,0,0,1,1005,224.99999999999946) translate(27.006172839506164 96.90277777777777)"/><use xlink:href="#z" transform="matrix(1,0,0,1,1005,224.99999999999946) translate(48.48765432098765 123.56944444444446)"/><path d="M740 786a6 6 0 0 1 6-6h408a6 6 0 0 1 6 6v48a6 6 0 0 1-6 6H746a6 6 0 0 1-6-6z" stroke="#ef8d22" stroke-width="2" fill="#fff" fill-opacity=".7"/><use xlink:href="#A" transform="matrix(1,0,0,1,745.0000000000001,785.0000001289354) translate(164.93827160493828 30.27777777777778)"/><path d="M740 549.33a6 6 0 0 1 6-6h148a6 6 0 0 1 6 6V674a6 6 0 0 1-6 6H746a6 6 0 0 1-6-6z" stroke="#ef8d22" stroke-width="2" fill="#fff" fill-opacity=".7"/><use xlink:href="#B" transform="matrix(1,0,0,1,745,548.3333334622441) translate(36.82098765432099 69.37152777777777)"/><path d="M1321 541.83a6 6 0 0 1 6-6h148a6 6 0 0 1 6 6v51.34a6 6 0 0 1-6 6h-148a6 6 0 0 1-6-6z" stroke="#3aa6dd" stroke-width="2" fill="#c1e4f7"/><path d="M1337 535.83v63.34m128-63.34v63.34" stroke="#3aa6dd" stroke-width="2" fill="none"/><use xlink:href="#C" transform="matrix(1,0,0,1,1345.9881792654764,540.8333333333331) translate(11.23456790123457 18.111111111111114)"/><use xlink:href="#D" transform="matrix(1,0,0,1,1345.9881792654764,540.8333333333331) translate(35.24691358024691 44.777777777777786)"/><path d="M1319.02 547.28l-157.05-38.73" stroke="#5e5e5e" stroke-width="2" fill="none"/><path d="M1320 546.52v2l-1.24-.3.47-1.9zM1162.23 507.6l-.47 1.9-.76-.2v-2z" stroke="#5e5e5e" stroke-width=".05" fill="#5e5e5e"/><path d="M1320 623.5a6 6 0 0 1 6-6h148a6 6 0 0 1 6 6v51.33a6 6 0 0 1-6 6h-148a6 6 0 0 1-6-6z" stroke="#3aa6dd" stroke-width="2" fill="#c1e4f7"/><path d="M1336 617.5v63.33m128-63.33v63.33" stroke="#3aa6dd" stroke-width="2" fill="none"/><use xlink:href="#E" transform="matrix(1,0,0,1,1345,622.500000000039) translate(23.518518518518523 18.111111111111114)"/><use xlink:href="#F" transform="matrix(1,0,0,1,1345,622.500000000039) translate(35.24691358024691 44.777777777777786)"/><path d="M1145.9 521.45l188.2 94.6" stroke="#5e5e5e" stroke-width="2" fill="none"/><path d="M1145.47 522.33l-2.65-1.33h3.32zM1337.18 616.5h-3.32l.67-1.33z" stroke="#5e5e5e" stroke-width=".05" fill="#5e5e5e"/><path d="M1000 549.33a6 6 0 0 1 6-6h148a6 6 0 0 1 6 6V674a6 6 0 0 1-6 6h-148a6 6 0 0 1-6-6z" stroke="#ef8d22" stroke-width="2" fill="#fff" fill-opacity=".7"/><g><use xlink:href="#G" transform="matrix(1,0,0,1,1005,548.3333334622441) translate(40.5246913580247 69.37152777777777)"/></g><path d="M740 386a6 6 0 0 1 6-6h148a6 6 0 0 1 6 6v51.33a6 6 0 0 1-6 6H746a6 6 0 0 1-6-6z" stroke="#ef8d22" stroke-width="2" fill="#fff" fill-opacity=".7"/><g><use xlink:href="#H" transform="matrix(1,0,0,1,745,385.0000000000001) translate(42.96296296296296 31.27777777777778)"/></g><path d="M420 706.9a6 6 0 0 1 6-6h148a6 6 0 0 1 6 6V754a6 6 0 0 1-6 6H426a6 6 0 0 1-6-6z" stroke="#5e5e5e" stroke-width="2" fill="#f4f4f4"/><path d="M565.04 730.44c0 9.53-7.76 17.25-17.34 17.25s-17.35-7.73-17.35-17.26c0-9.52 7.77-17.24 17.35-17.24 9.58 0 17.34 7.72 17.34 17.24zM517.35 730.44c0 9.53-7.77 17.25-17.35 17.25-9.58 0-17.35-7.73-17.35-17.26 0-9.52 7.77-17.24 17.35-17.24 9.58 0 17.35 7.72 17.35 17.24zM469.65 730.44c0 9.53-7.77 17.25-17.35 17.25-9.58 0-17.35-7.73-17.35-17.26 0-9.52 7.77-17.24 17.35-17.24 9.58 0 17.35 7.72 17.35 17.24z" stroke="#efd95d" fill="#efd95d" fill-opacity=".4"/><defs><path fill="#333" d="M212-179c-10-28-35-45-73-45-59 0-87 40-87 99 0 60 29 101 89 101 43 0 62-24 78-52l27 14C228-24 195 4 139 4 59 4 22-46 18-125c-6-104 99-153 187-111 19 9 31 26 39 46" id="I"/><path fill="#333" d="M100-194c62-1 85 37 85 99 1 63-27 99-86 99S16-35 15-95c0-66 28-99 85-99zM99-20c44 1 53-31 53-75 0-43-8-75-51-75s-53 32-53 75 10 74 51 75" id="J"/><path fill="#333" d="M117-194c89-4 53 116 60 194h-32v-121c0-31-8-49-39-48C34-167 62-67 57 0H25l-1-190h30c1 10-1 24 2 32 11-22 29-35 61-36" id="K"/><path fill="#333" d="M59-47c-2 24 18 29 38 22v24C64 9 27 4 27-40v-127H5v-23h24l9-43h21v43h35v23H59v120" id="L"/><path fill="#333" d="M114-163C36-179 61-72 57 0H25l-1-190h30c1 12-1 29 2 39 6-27 23-49 58-41v29" id="M"/><path fill="#333" d="M24 0v-261h32V0H24" id="N"/><path fill="#333" d="M100-194c63 0 86 42 84 106H49c0 40 14 67 53 68 26 1 43-12 49-29l28 8c-11 28-37 45-77 45C44 4 14-33 15-96c1-61 26-98 85-98zm52 81c6-60-76-77-97-28-3 7-6 17-6 28h103" id="O"/><g id="a"><use transform="matrix(0.06172839506172839,0,0,0.06172839506172839,0,0)" xlink:href="#I"/><use transform="matrix(0.06172839506172839,0,0,0.06172839506172839,15.987654320987653,0)" xlink:href="#J"/><use transform="matrix(0.06172839506172839,0,0,0.06172839506172839,28.333333333333332,0)" xlink:href="#K"/><use transform="matrix(0.06172839506172839,0,0,0.06172839506172839,40.67901234567901,0)" xlink:href="#L"/><use transform="matrix(0.06172839506172839,0,0,0.06172839506172839,46.851851851851855,0)" xlink:href="#M"/><use transform="matrix(0.06172839506172839,0,0,0.06172839506172839,54.19753086419753,0)" xlink:href="#J"/><use transform="matrix(0.06172839506172839,0,0,0.06172839506172839,66.54320987654322,0)" xlink:href="#N"/><use transform="matrix(0.06172839506172839,0,0,0.06172839506172839,71.41975308641976,0)" xlink:href="#N"/><use transform="matrix(0.06172839506172839,0,0,0.06172839506172839,76.2962962962963,0)" xlink:href="#O"/><use transform="matrix(0.06172839506172839,0,0,0.06172839506172839,88.64197530864199,0)" xlink:href="#M"/></g><path fill="#333" d="M160-131c35 5 61 23 61 61C221 17 115-2 30 0v-248c76 3 177-17 177 60 0 33-19 50-47 57zm-97-11c50-1 110 9 110-42 0-47-63-36-110-37v79zm0 115c55-2 124 14 124-45 0-56-70-42-124-44v89" id="P"/><path fill="#333" d="M240 0l2-218c-23 76-54 145-80 218h-23L58-218 59 0H30v-248h44l77 211c21-75 51-140 76-211h43V0h-30" id="Q"/><path fill="#333" d="M185-189c-5-48-123-54-124 2 14 75 158 14 163 119 3 78-121 87-175 55-17-10-28-26-33-46l33-7c5 56 141 63 141-1 0-78-155-14-162-118-5-82 145-84 179-34 5 7 8 16 11 25" id="R"/><g id="b"><use transform="matrix(0.06172839506172839,0,0,0.06172839506172839,0,0)" xlink:href="#P"/><use transform="matrix(0.06172839506172839,0,0,0.06172839506172839,14.814814814814813,0)" xlink:href="#Q"/><use transform="matrix(0.06172839506172839,0,0,0.06172839506172839,33.2716049382716,0)" xlink:href="#R"/></g><path fill="#333" d="M205 0l-28-72H64L36 0H1l101-248h38L239 0h-34zm-38-99l-47-123c-12 45-31 82-46 123h93" id="S"/><path fill="#333" d="M96-169c-40 0-48 33-48 73s9 75 48 75c24 0 41-14 43-38l32 2c-6 37-31 61-74 61-59 0-76-41-82-99-10-93 101-131 147-64 4 7 5 14 7 22l-32 3c-4-21-16-35-41-35" id="T"/><path fill="#333" d="M135-143c-3-34-86-38-87 0 15 53 115 12 119 90S17 21 10-45l28-5c4 36 97 45 98 0-10-56-113-15-118-90-4-57 82-63 122-42 12 7 21 19 24 35" id="U"/><g id="c"><use transform="matrix(0.06172839506172839,0,0,0.06172839506172839,0,0)" xlink:href="#S"/><use transform="matrix(0.06172839506172839,0,0,0.06172839506172839,14.814814814814813,0)" xlink:href="#T"/><use transform="matrix(0.06172839506172839,0,0,0.06172839506172839,25.925925925925924,0)" xlink:href="#T"/><use transform="matrix(0.06172839506172839,0,0,0.06172839506172839,37.03703703703704,0)" xlink:href="#O"/><use transform="matrix(0.06172839506172839,0,0,0.06172839506172839,49.382716049382715,0)" xlink:href="#U"/><use transform="matrix(0.06172839506172839,0,0,0.06172839506172839,60.49382716049382,0)" xlink:href="#U"/></g><g id="d"><use transform="matrix(0.06172839506172839,0,0,0.06172839506172839,0,0)" xlink:href="#I"/><use transform="matrix(0.06172839506172839,0,0,0.06172839506172839,15.987654320987653,0)" xlink:href="#J"/><use transform="matrix(0.06172839506172839,0,0,0.06172839506172839,28.333333333333332,0)" xlink:href="#K"/><use transform="matrix(0.06172839506172839,0,0,0.06172839506172839,40.67901234567901,0)" xlink:href="#L"/><use transform="matrix(0.06172839506172839,0,0,0.06172839506172839,46.851851851851855,0)" xlink:href="#M"/><use transform="matrix(0.06172839506172839,0,0,0.06172839506172839,54.19753086419753,0)" xlink:href="#J"/><use transform="matrix(0.06172839506172839,0,0,0.06172839506172839,66.54320987654322,0)" xlink:href="#N"/></g><path fill="#333" d="M127-220V0H93v-220H8v-28h204v28h-85" id="V"/><path fill="#333" d="M137 0h-34L2-248h35l83 218 83-218h36" id="W"/><g id="e"><use transform="matrix(0.06172839506172839,0,0,0.06172839506172839,0,0)" xlink:href="#I"/><use transform="matrix(0.06172839506172839,0,0,0.06172839506172839,15.987654320987653,0)" xlink:href="#I"/><use transform="matrix(0.06172839506172839,0,0,0.06172839506172839,31.975308641975307,0)" xlink:href="#V"/><use transform="matrix(0.06172839506172839,0,0,0.06172839506172839,45.49382716049382,0)" xlink:href="#W"/></g><path fill="#333" d="M30 0v-248h33v221h125V0H30" id="X"/><path fill="#333" d="M24-231v-30h32v30H24zM24 0v-190h32V0H24" id="Y"/><path fill="#333" d="M101-234c-31-9-42 10-38 44h38v23H63V0H32v-167H5v-23h27c-7-52 17-82 69-68v24" id="Z"/><g id="f"><use transform="matrix(0.06172839506172839,0,0,0.06172839506172839,0,0)" xlink:href="#X"/><use transform="matrix(0.06172839506172839,0,0,0.06172839506172839,12.345679012345679,0)" xlink:href="#Y"/><use transform="matrix(0.06172839506172839,0,0,0.06172839506172839,17.22222222222222,0)" xlink:href="#Z"/><use transform="matrix(0.06172839506172839,0,0,0.06172839506172839,23.39506172839506,0)" xlink:href="#L"/><use transform="matrix(0.06172839506172839,0,0,0.06172839506172839,29.5679012345679,0)" xlink:href="#U"/></g><path fill="#333" d="M177-190C167-65 218 103 67 71c-23-6-38-20-44-43l32-5c15 47 100 32 89-28v-30C133-14 115 1 83 1 29 1 15-40 15-95c0-56 16-97 71-98 29-1 48 16 59 35 1-10 0-23 2-32h30zM94-22c36 0 50-32 50-73 0-42-14-75-50-75-39 0-46 34-46 75s6 73 46 73" id="aa"/><g id="g"><use transform="matrix(0.06172839506172839,0,0,0.06172839506172839,0,0)" xlink:href="#Q"/><use transform="matrix(0.06172839506172839,0,0,0.06172839506172839,18.456790123456788,0)" xlink:href="#O"/><use transform="matrix(0.06172839506172839,0,0,0.06172839506172839,30.80246913580247,0)" xlink:href="#L"/><use transform="matrix(0.06172839506172839,0,0,0.06172839506172839,36.97530864197531,0)" xlink:href="#O"/><use transform="matrix(0.06172839506172839,0,0,0.06172839506172839,49.32098765432099,0)" xlink:href="#M"/><use transform="matrix(0.06172839506172839,0,0,0.06172839506172839,56.666666666666664,0)" xlink:href="#Y"/><use transform="matrix(0.06172839506172839,0,0,0.06172839506172839,61.54320987654321,0)" xlink:href="#K"/><use transform="matrix(0.06172839506172839,0,0,0.06172839506172839,73.88888888888889,0)" xlink:href="#aa"/></g><path fill="#333" d="M63-220v92h138v28H63V0H30v-248h175v28H63" id="ab"/><g id="h"><use transform="matrix(0.06172839506172839,0,0,0.06172839506172839,0,0)" xlink:href="#ab"/><use transform="matrix(0.06172839506172839,0,0,0.06172839506172839,13.518518518518517,0)" xlink:href="#Y"/><use transform="matrix(0.06172839506172839,0,0,0.06172839506172839,18.39506172839506,0)" xlink:href="#M"/><use transform="matrix(0.06172839506172839,0,0,0.06172839506172839,25.74074074074074,0)" xlink:href="#O"/></g><path fill="#333" d="M141-36C126-15 110 5 73 4 37 3 15-17 15-53c-1-64 63-63 125-63 3-35-9-54-41-54-24 1-41 7-42 31l-33-3c5-37 33-52 76-52 45 0 72 20 72 64v82c-1 20 7 32 28 27v20c-31 9-61-2-59-35zM48-53c0 20 12 33 32 33 41-3 63-29 60-74-43 2-92-5-92 41" id="ac"/><path fill="#333" d="M210-169c-67 3-38 105-44 169h-31v-121c0-29-5-50-35-48C34-165 62-65 56 0H25l-1-190h30c1 10-1 24 2 32 10-44 99-50 107 0 11-21 27-35 58-36 85-2 47 119 55 194h-31v-121c0-29-5-49-35-48" id="ad"/><g id="i"><use transform="matrix(0.06172839506172839,0,0,0.06172839506172839,0,0)" xlink:href="#S"/><use transform="matrix(0.06172839506172839,0,0,0.06172839506172839,14.814814814814813,0)" xlink:href="#N"/><use transform="matrix(0.06172839506172839,0,0,0.06172839506172839,19.691358024691354,0)" xlink:href="#ac"/><use transform="matrix(0.06172839506172839,0,0,0.06172839506172839,32.03703703703703,0)" xlink:href="#M"/><use transform="matrix(0.06172839506172839,0,0,0.06172839506172839,39.38271604938271,0)" xlink:href="#ad"/></g><g id="j"><use transform="matrix(0.06172839506172839,0,0,0.06172839506172839,0,0)" xlink:href="#P"/><use transform="matrix(0.06172839506172839,0,0,0.06172839506172839,14.814814814814813,0)" xlink:href="#S"/><use transform="matrix(0.06172839506172839,0,0,0.06172839506172839,29.629629629629626,0)" xlink:href="#I"/><use transform="matrix(0.06172839506172839,0,0,0.06172839506172839,45.61728395061728,0)" xlink:href="#K"/><use transform="matrix(0.06172839506172839,0,0,0.06172839506172839,57.962962962962955,0)" xlink:href="#O"/><use transform="matrix(0.06172839506172839,0,0,0.06172839506172839,70.30864197530863,0)" xlink:href="#L"/></g><path fill="#333" d="M233-177c-1 41-23 64-60 70L243 0h-38l-65-103H63V0H30v-248c88 3 205-21 203 71zM63-129c60-2 137 13 137-47 0-61-80-42-137-45v92" id="ae"/><path fill="#333" d="M30 0v-248h187v28H63v79h144v27H63v87h162V0H30" id="af"/><g id="k"><use transform="matrix(0.06172839506172839,0,0,0.06172839506172839,0,0)" xlink:href="#ae"/><use transform="matrix(0.06172839506172839,0,0,0.06172839506172839,15.987654320987653,0)" xlink:href="#af"/><use transform="matrix(0.06172839506172839,0,0,0.06172839506172839,30.80246913580247,0)" xlink:href="#R"/><use transform="matrix(0.06172839506172839,0,0,0.06172839506172839,45.61728395061728,0)" xlink:href="#V"/></g><path fill="#333" d="M33 0v-248h34V0H33" id="ag"/><g id="l"><use transform="matrix(0.06172839506172839,0,0,0.06172839506172839,0,0)" xlink:href="#S"/><use transform="matrix(0.06172839506172839,0,0,0.06172839506172839,14.814814814814813,0)" xlink:href="#R"/><use transform="matrix(0.06172839506172839,0,0,0.06172839506172839,29.629629629629626,0)" xlink:href="#I"/><use transform="matrix(0.06172839506172839,0,0,0.06172839506172839,45.61728395061728,0)" xlink:href="#ag"/><use transform="matrix(0.06172839506172839,0,0,0.06172839506172839,51.79012345679012,0)" xlink:href="#ag"/></g><path fill="#333" d="M30-248c118-7 216 8 213 122C240-48 200 0 122 0H30v-248zM63-27c89 8 146-16 146-99s-60-101-146-95v194" id="ah"/><g id="m"><use transform="matrix(0.06172839506172839,0,0,0.06172839506172839,0,0)" xlink:href="#ah"/><use transform="matrix(0.06172839506172839,0,0,0.06172839506172839,15.987654320987653,0)" xlink:href="#S"/><use transform="matrix(0.06172839506172839,0,0,0.06172839506172839,30.80246913580247,0)" xlink:href="#X"/><use transform="matrix(0.06172839506172839,0,0,0.06172839506172839,43.148148148148145,0)" xlink:href="#ag"/></g><path fill="#333" d="M140-251c81 0 123 46 123 126C263-46 219 4 140 4 59 4 17-45 17-125s42-126 123-126zm0 227c63 0 89-41 89-101s-29-99-89-99c-61 0-89 39-89 99S79-25 140-24" id="ai"/><path fill="#333" d="M106-169C34-169 62-67 57 0H25v-261h32l-1 103c12-21 28-36 61-36 89 0 53 116 60 194h-32v-121c2-32-8-49-39-48" id="aj"/><g id="n"><use transform="matrix(0.06172839506172839,0,0,0.06172839506172839,0,0)" xlink:href="#ai"/><use transform="matrix(0.06172839506172839,0,0,0.06172839506172839,17.28395061728395,0)" xlink:href="#L"/><use transform="matrix(0.06172839506172839,0,0,0.06172839506172839,23.456790123456788,0)" xlink:href="#aj"/><use transform="matrix(0.06172839506172839,0,0,0.06172839506172839,35.80246913580247,0)" xlink:href="#O"/><use transform="matrix(0.06172839506172839,0,0,0.06172839506172839,48.148148148148145,0)" xlink:href="#M"/></g><g id="o"><use transform="matrix(0.06172839506172839,0,0,0.06172839506172839,0,0)" xlink:href="#I"/><use transform="matrix(0.06172839506172839,0,0,0.06172839506172839,15.987654320987653,0)" xlink:href="#J"/><use transform="matrix(0.06172839506172839,0,0,0.06172839506172839,28.333333333333332,0)" xlink:href="#K"/><use transform="matrix(0.06172839506172839,0,0,0.06172839506172839,40.67901234567901,0)" xlink:href="#L"/><use transform="matrix(0.06172839506172839,0,0,0.06172839506172839,46.851851851851855,0)" xlink:href="#M"/><use transform="matrix(0.06172839506172839,0,0,0.06172839506172839,54.19753086419753,0)" xlink:href="#J"/><use transform="matrix(0.06172839506172839,0,0,0.06172839506172839,66.54320987654322,0)" xlink:href="#N"/><use transform="matrix(0.06172839506172839,0,0,0.06172839506172839,71.41975308641976,0)" xlink:href="#N"/><use transform="matrix(0.06172839506172839,0,0,0.06172839506172839,76.2962962962963,0)" xlink:href="#O"/><use transform="matrix(0.06172839506172839,0,0,0.06172839506172839,88.64197530864199,0)" xlink:href="#M"/><use transform="matrix(0.06172839506172839,0,0,0.06172839506172839,95.98765432098767,0)" xlink:href="#U"/></g><g id="p"><use transform="matrix(0.06172839506172839,0,0,0.06172839506172839,0,0)" xlink:href="#I"/><use transform="matrix(0.06172839506172839,0,0,0.06172839506172839,15.987654320987653,0)" xlink:href="#N"/><use transform="matrix(0.06172839506172839,0,0,0.06172839506172839,20.864197530864196,0)" xlink:href="#Y"/><use transform="matrix(0.06172839506172839,0,0,0.06172839506172839,25.74074074074074,0)" xlink:href="#O"/><use transform="matrix(0.06172839506172839,0,0,0.06172839506172839,38.08641975308642,0)" xlink:href="#K"/><use transform="matrix(0.06172839506172839,0,0,0.06172839506172839,50.432098765432094,0)" xlink:href="#L"/></g><path fill="#333" d="M84 4C-5 8 30-112 23-190h32v120c0 31 7 50 39 49 72-2 45-101 50-169h31l1 190h-30c-1-10 1-25-2-33-11 22-28 36-60 37" id="ak"/><path fill="#333" d="M85-194c31 0 48 13 60 33l-1-100h32l1 261h-30c-2-10 0-23-3-31C134-8 116 4 85 4 32 4 16-35 15-94c0-66 23-100 70-100zm9 24c-40 0-46 34-46 75 0 40 6 74 45 74 42 0 51-32 51-76 0-42-9-74-50-73" id="al"/><g id="q"><use transform="matrix(0.06172839506172839,0,0,0.06172839506172839,0,0)" xlink:href="#I"/><use transform="matrix(0.06172839506172839,0,0,0.06172839506172839,15.987654320987653,0)" xlink:href="#N"/><use transform="matrix(0.06172839506172839,0,0,0.06172839506172839,20.864197530864196,0)" xlink:href="#J"/><use transform="matrix(0.06172839506172839,0,0,0.06172839506172839,33.20987654320987,0)" xlink:href="#ak"/><use transform="matrix(0.06172839506172839,0,0,0.06172839506172839,45.55555555555555,0)" xlink:href="#al"/></g><path fill="#333" d="M143 4C61 4 22-44 18-125c-5-107 100-154 193-111 17 8 29 25 37 43l-32 9c-13-25-37-40-76-40-61 0-88 39-88 99 0 61 29 100 91 101 35 0 62-11 79-27v-45h-74v-28h105v86C228-13 192 4 143 4" id="am"/><path fill="#333" d="M206 0h-36l-40-164L89 0H53L-1-190h32L70-26l43-164h34l41 164 42-164h31" id="an"/><path fill="#333" d="M179-190L93 31C79 59 56 82 12 73V49c39 6 53-20 64-50L1-190h34L92-34l54-156h33" id="ao"/><g id="r"><use transform="matrix(0.06172839506172839,0,0,0.06172839506172839,0,0)" xlink:href="#am"/><use transform="matrix(0.06172839506172839,0,0,0.06172839506172839,17.28395061728395,0)" xlink:href="#ac"/><use transform="matrix(0.06172839506172839,0,0,0.06172839506172839,29.629629629629626,0)" xlink:href="#L"/><use transform="matrix(0.06172839506172839,0,0,0.06172839506172839,35.80246913580247,0)" xlink:href="#O"/><use transform="matrix(0.06172839506172839,0,0,0.06172839506172839,48.148148148148145,0)" xlink:href="#an"/><use transform="matrix(0.06172839506172839,0,0,0.06172839506172839,64.1358024691358,0)" xlink:href="#ac"/><use transform="matrix(0.06172839506172839,0,0,0.06172839506172839,76.48148148148148,0)" xlink:href="#ao"/></g><g id="s"><use transform="matrix(0.06172839506172839,0,0,0.06172839506172839,0,0)" xlink:href="#R"/><use transform="matrix(0.06172839506172839,0,0,0.06172839506172839,14.814814814814813,0)" xlink:href="#ad"/><use transform="matrix(0.06172839506172839,0,0,0.06172839506172839,33.2716049382716,0)" xlink:href="#ac"/><use transform="matrix(0.06172839506172839,0,0,0.06172839506172839,45.61728395061728,0)" xlink:href="#M"/><use transform="matrix(0.06172839506172839,0,0,0.06172839506172839,52.962962962962955,0)" xlink:href="#L"/></g><g id="t"><use transform="matrix(0.06172839506172839,0,0,0.06172839506172839,0,0)" xlink:href="#I"/><use transform="matrix(0.06172839506172839,0,0,0.06172839506172839,15.987654320987653,0)" xlink:href="#J"/><use transform="matrix(0.06172839506172839,0,0,0.06172839506172839,28.333333333333332,0)" xlink:href="#M"/><use transform="matrix(0.06172839506172839,0,0,0.06172839506172839,35.67901234567901,0)" xlink:href="#O"/></g><path fill="#333" d="M30-248c87 1 191-15 191 75 0 78-77 80-158 76V0H30v-248zm33 125c57 0 124 11 124-50 0-59-68-47-124-48v98" id="ap"/><g id="u"><use transform="matrix(0.06172839506172839,0,0,0.06172839506172839,0,0)" xlink:href="#S"/><use transform="matrix(0.06172839506172839,0,0,0.06172839506172839,14.814814814814813,0)" xlink:href="#ap"/><use transform="matrix(0.06172839506172839,0,0,0.06172839506172839,29.629629629629626,0)" xlink:href="#ag"/></g><path fill="#333" d="M140-251c81 0 123 46 123 126C263-53 228-8 163 1c7 30 30 48 69 40v23c-55 16-95-15-103-61C56-3 17-48 17-125c0-80 42-126 123-126zm0 227c63 0 89-41 89-101s-29-99-89-99c-61 0-89 39-89 99S79-25 140-24" id="aq"/><g id="v"><use transform="matrix(0.06172839506172839,0,0,0.06172839506172839,0,0)" xlink:href="#Q"/><use transform="matrix(0.06172839506172839,0,0,0.06172839506172839,18.456790123456788,0)" xlink:href="#aq"/><use transform="matrix(0.06172839506172839,0,0,0.06172839506172839,35.74074074074073,0)" xlink:href="#V"/><use transform="matrix(0.06172839506172839,0,0,0.06172839506172839,49.25925925925925,0)" xlink:href="#V"/></g><path fill="#333" d="M197 0v-115H63V0H30v-248h33v105h134v-105h34V0h-34" id="ar"/><path fill="#333" d="M115-194c53 0 69 39 70 98 0 66-23 100-70 100C84 3 66-7 56-30L54 0H23l1-261h32v101c10-23 28-34 59-34zm-8 174c40 0 45-34 45-75 0-40-5-75-45-74-42 0-51 32-51 76 0 43 10 73 51 73" id="as"/><g id="w"><use transform="matrix(0.06172839506172839,0,0,0.06172839506172839,0,0)" xlink:href="#ar"/><use transform="matrix(0.06172839506172839,0,0,0.06172839506172839,15.987654320987653,0)" xlink:href="#ak"/><use transform="matrix(0.06172839506172839,0,0,0.06172839506172839,28.333333333333332,0)" xlink:href="#as"/></g><path fill="#333" d="M190 0L58-211 59 0H30v-248h39L202-35l-2-213h31V0h-41" id="at"/><g id="x"><use transform="matrix(0.06172839506172839,0,0,0.06172839506172839,0,0)" xlink:href="#at"/><use transform="matrix(0.06172839506172839,0,0,0.06172839506172839,15.987654320987653,0)" xlink:href="#J"/><use transform="matrix(0.06172839506172839,0,0,0.06172839506172839,28.333333333333332,0)" xlink:href="#M"/><use transform="matrix(0.06172839506172839,0,0,0.06172839506172839,35.67901234567901,0)" xlink:href="#ad"/><use transform="matrix(0.06172839506172839,0,0,0.06172839506172839,54.1358024691358,0)" xlink:href="#ac"/><use transform="matrix(0.06172839506172839,0,0,0.06172839506172839,66.48148148148148,0)" xlink:href="#N"/><use transform="matrix(0.06172839506172839,0,0,0.06172839506172839,71.35802469135803,0)" xlink:href="#Y"/><use transform="matrix(0.06172839506172839,0,0,0.06172839506172839,76.23456790123457,0)" xlink:href="#U"/><use transform="matrix(0.06172839506172839,0,0,0.06172839506172839,87.34567901234568,0)" xlink:href="#ac"/><use transform="matrix(0.06172839506172839,0,0,0.06172839506172839,99.69135802469137,0)" xlink:href="#L"/><use transform="matrix(0.06172839506172839,0,0,0.06172839506172839,105.8641975308642,0)" xlink:href="#Y"/><use transform="matrix(0.06172839506172839,0,0,0.06172839506172839,110.74074074074075,0)" xlink:href="#J"/><use transform="matrix(0.06172839506172839,0,0,0.06172839506172839,123.08641975308643,0)" xlink:href="#K"/></g><g id="y"><use transform="matrix(0.06172839506172839,0,0,0.06172839506172839,0,0)" xlink:href="#I"/><use transform="matrix(0.06172839506172839,0,0,0.06172839506172839,15.987654320987653,0)" xlink:href="#J"/><use transform="matrix(0.06172839506172839,0,0,0.06172839506172839,28.333333333333332,0)" xlink:href="#K"/><use transform="matrix(0.06172839506172839,0,0,0.06172839506172839,40.67901234567901,0)" xlink:href="#L"/><use transform="matrix(0.06172839506172839,0,0,0.06172839506172839,46.851851851851855,0)" xlink:href="#M"/><use transform="matrix(0.06172839506172839,0,0,0.06172839506172839,54.19753086419753,0)" xlink:href="#J"/><use transform="matrix(0.06172839506172839,0,0,0.06172839506172839,66.54320987654322,0)" xlink:href="#N"/><use transform="matrix(0.06172839506172839,0,0,0.06172839506172839,71.41975308641976,0)" xlink:href="#N"/><use transform="matrix(0.06172839506172839,0,0,0.06172839506172839,76.2962962962963,0)" xlink:href="#O"/><use transform="matrix(0.06172839506172839,0,0,0.06172839506172839,88.64197530864199,0)" xlink:href="#M"/></g><g id="z"><use transform="matrix(0.06172839506172839,0,0,0.06172839506172839,0,0)" xlink:href="#X"/><use transform="matrix(0.06172839506172839,0,0,0.06172839506172839,12.345679012345679,0)" xlink:href="#J"/><use transform="matrix(0.06172839506172839,0,0,0.06172839506172839,24.691358024691358,0)" xlink:href="#aa"/><use transform="matrix(0.06172839506172839,0,0,0.06172839506172839,37.03703703703704,0)" xlink:href="#Y"/><use transform="matrix(0.06172839506172839,0,0,0.06172839506172839,41.91358024691358,0)" xlink:href="#T"/></g><g id="A"><use transform="matrix(0.06172839506172839,0,0,0.06172839506172839,0,0)" xlink:href="#R"/><use transform="matrix(0.06172839506172839,0,0,0.06172839506172839,14.814814814814813,0)" xlink:href="#O"/><use transform="matrix(0.06172839506172839,0,0,0.06172839506172839,27.160493827160494,0)" xlink:href="#T"/><use transform="matrix(0.06172839506172839,0,0,0.06172839506172839,38.27160493827161,0)" xlink:href="#ak"/><use transform="matrix(0.06172839506172839,0,0,0.06172839506172839,50.617283950617285,0)" xlink:href="#M"/><use transform="matrix(0.06172839506172839,0,0,0.06172839506172839,57.96296296296296,0)" xlink:href="#Y"/><use transform="matrix(0.06172839506172839,0,0,0.06172839506172839,62.839506172839506,0)" xlink:href="#L"/><use transform="matrix(0.06172839506172839,0,0,0.06172839506172839,69.01234567901234,0)" xlink:href="#ao"/></g><g id="B"><use transform="matrix(0.06172839506172839,0,0,0.06172839506172839,0,0)" xlink:href="#at"/><use transform="matrix(0.06172839506172839,0,0,0.06172839506172839,15.987654320987653,0)" xlink:href="#ac"/><use transform="matrix(0.06172839506172839,0,0,0.06172839506172839,28.333333333333332,0)" xlink:href="#ad"/><use transform="matrix(0.06172839506172839,0,0,0.06172839506172839,46.79012345679012,0)" xlink:href="#Y"/><use transform="matrix(0.06172839506172839,0,0,0.06172839506172839,51.666666666666664,0)" xlink:href="#K"/><use transform="matrix(0.06172839506172839,0,0,0.06172839506172839,64.01234567901234,0)" xlink:href="#aa"/></g><path fill="#333" d="M115-194c55 1 70 41 70 98S169 2 115 4C84 4 66-9 55-30l1 105H24l-1-265h31l2 30c10-21 28-34 59-34zm-8 174c40 0 45-34 45-75s-6-73-45-74c-42 0-51 32-51 76 0 43 10 73 51 73" id="au"/><g id="C"><use transform="matrix(0.06172839506172839,0,0,0.06172839506172839,0,0)" xlink:href="#ai"/><use transform="matrix(0.06172839506172839,0,0,0.06172839506172839,17.28395061728395,0)" xlink:href="#au"/><use transform="matrix(0.06172839506172839,0,0,0.06172839506172839,29.629629629629626,0)" xlink:href="#O"/><use transform="matrix(0.06172839506172839,0,0,0.06172839506172839,41.9753086419753,0)" xlink:href="#M"/><use transform="matrix(0.06172839506172839,0,0,0.06172839506172839,49.32098765432098,0)" xlink:href="#ac"/><use transform="matrix(0.06172839506172839,0,0,0.06172839506172839,61.66666666666666,0)" xlink:href="#L"/><use transform="matrix(0.06172839506172839,0,0,0.06172839506172839,67.83950617283949,0)" xlink:href="#J"/><use transform="matrix(0.06172839506172839,0,0,0.06172839506172839,80.18518518518518,0)" xlink:href="#M"/></g><g id="D"><use transform="matrix(0.06172839506172839,0,0,0.06172839506172839,0,0)" xlink:href="#S"/><use transform="matrix(0.06172839506172839,0,0,0.06172839506172839,14.814814814814813,0)" xlink:href="#au"/><use transform="matrix(0.06172839506172839,0,0,0.06172839506172839,27.160493827160494,0)" xlink:href="#au"/></g><g id="E"><use transform="matrix(0.06172839506172839,0,0,0.06172839506172839,0,0)" xlink:href="#R"/><use transform="matrix(0.06172839506172839,0,0,0.06172839506172839,14.814814814814813,0)" xlink:href="#au"/><use transform="matrix(0.06172839506172839,0,0,0.06172839506172839,27.160493827160494,0)" xlink:href="#ac"/><use transform="matrix(0.06172839506172839,0,0,0.06172839506172839,39.50617283950617,0)" xlink:href="#T"/><use transform="matrix(0.06172839506172839,0,0,0.06172839506172839,50.61728395061728,0)" xlink:href="#O"/></g><g id="F"><use transform="matrix(0.06172839506172839,0,0,0.06172839506172839,0,0)" xlink:href="#S"/><use transform="matrix(0.06172839506172839,0,0,0.06172839506172839,14.814814814814813,0)" xlink:href="#au"/><use transform="matrix(0.06172839506172839,0,0,0.06172839506172839,27.160493827160494,0)" xlink:href="#au"/></g><g id="G"><use transform="matrix(0.06172839506172839,0,0,0.06172839506172839,0,0)" xlink:href="#ar"/><use transform="matrix(0.06172839506172839,0,0,0.06172839506172839,15.987654320987653,0)" xlink:href="#Y"/><use transform="matrix(0.06172839506172839,0,0,0.06172839506172839,20.864197530864196,0)" xlink:href="#U"/><use transform="matrix(0.06172839506172839,0,0,0.06172839506172839,31.975308641975307,0)" xlink:href="#L"/><use transform="matrix(0.06172839506172839,0,0,0.06172839506172839,38.148148148148145,0)" xlink:href="#J"/><use transform="matrix(0.06172839506172839,0,0,0.06172839506172839,50.49382716049382,0)" xlink:href="#M"/><use transform="matrix(0.06172839506172839,0,0,0.06172839506172839,57.8395061728395,0)" xlink:href="#ao"/></g><g id="H"><use transform="matrix(0.06172839506172839,0,0,0.06172839506172839,0,0)" xlink:href="#I"/><use transform="matrix(0.06172839506172839,0,0,0.06172839506172839,15.987654320987653,0)" xlink:href="#J"/><use transform="matrix(0.06172839506172839,0,0,0.06172839506172839,28.333333333333332,0)" xlink:href="#K"/><use transform="matrix(0.06172839506172839,0,0,0.06172839506172839,40.67901234567901,0)" xlink:href="#Z"/><use transform="matrix(0.06172839506172839,0,0,0.06172839506172839,46.851851851851855,0)" xlink:href="#Y"/><use transform="matrix(0.06172839506172839,0,0,0.06172839506172839,51.7283950617284,0)" xlink:href="#aa"/></g></defs></g></svg>